SplineFontDB: 3.0
FontName: DidactGothic
FullName: Didact Gothic
FamilyName: Didact Gothic
Weight: Regular
Copyright: Copyright (c) 2010, 2011 by Daniel Johnson. Released under the terms of the SIL Open Font License.
Version: 20110429
ItalicAngle: 0
UnderlinePosition: -97
UnderlineWidth: 49
Ascent: 800
Descent: 200
sfntRevision: 0x00010000
LayerCount: 2
Layer: 0 1 "Back"  1
Layer: 1 1 "Fore"  0
XUID: [1021 288 713564382 6976314]
FSType: 0
OS2Version: 2
OS2_WeightWidthSlopeOnly: 0
OS2_UseTypoMetrics: 1
CreationTime: 1287597777
ModificationTime: 1304076414
PfmFamily: 33
TTFWeight: 400
TTFWidth: 5
LineGap: 0
VLineGap: 0
Panose: 2 0 6 3 0 0 0 0 0 0
OS2TypoAscent: 1046
OS2TypoAOffset: 0
OS2TypoDescent: -265
OS2TypoDOffset: 0
OS2TypoLinegap: 0
OS2WinAscent: 1046
OS2WinAOffset: 0
OS2WinDescent: 265
OS2WinDOffset: 0
HheadAscent: 1046
HheadAOffset: 0
HheadDescent: -265
HheadDOffset: 0
OS2SubXSize: 650
OS2SubYSize: 699
OS2SubXOff: 0
OS2SubYOff: 140
OS2SupXSize: 650
OS2SupYSize: 699
OS2SupXOff: 0
OS2SupYOff: 479
OS2StrikeYSize: 49
OS2StrikeYPos: 258
OS2Vendor: 'PfEd'
OS2CodePages: 0000009f.00000000
OS2UnicodeRanges: e00002ff.0000000a.00000000.00000000
Lookup: 260 0 0 "'abvm' Above Base Mark lookup 0"  {"'abvm' Above Base Mark lookup 0 subtable"  } ['abvm' ('DFLT' <'dflt' > 'cyrl' <'dflt' > 'grek' <'dflt' > 'latn' <'dflt' > ) ]
Lookup: 258 0 0 "'kern' Horizontal Kerning in Latin lookup 1"  {"'kern' Horizontal Kerning in Latin lookup 1 per glyph data 0"  "'kern' Horizontal Kerning in Latin lookup 1 kerning class 1"  } ['kern' ('latn' <'dflt' > ) ]
MarkAttachClasses: 1
DEI: 91125
KernClass2: 173+ 140 "'kern' Horizontal Kerning in Latin lookup 1 kerning class 1" 
 5 space
 2 Xi
 197 Alphatonos Alpha Delta Lambda uni1F08 uni1F09 uni1F0A uni1F0B uni1F0C uni1F0D uni1F0E uni1F0F uni1F88 uni1F89 uni1F8A uni1F8B uni1F8C uni1F8D uni1F8E uni1F8F uni1FB8 uni1FB9 uni1FBA uni1FBB uni1FBC
 4 Beta
 5 Gamma

StartChar: .notdef
Encoding: 65536 -1 0
Width: 500
Flags: W
LayerCount: 2
Fore
SplineSet
50 0 m 1,0,-1
 50 533 l 1,1,-1
 450 533 l 1,2,-1
 450 0 l 1,3,-1
 50 0 l 1,0,-1
100 50 m 1,4,-1
 400 50 l 1,5,-1
 400 483 l 1,6,-1
 100 483 l 1,7,-1
 100 50 l 1,4,-1
EndSplineSet
EndChar

StartChar: exclam
Encoding: 33 33 4
Width: 233
GlyphClass: 2
Flags: W
LayerCount: 2
Fore
SplineSet
63 47 m 128,-1,1
 63 70 63 70 78.5 85.5 c 128,-1,2
 94 101 94 101 117 101 c 128,-1,3
 140 101 140 101 155.5 85.5 c 128,-1,4
 171 70 171 70 171 47 c 128,-1,5
 171 24 171 24 155 8 c 128,-1,6
 139 -8 139 -8 117 -8 c 128,-1,7
 95 -8 95 -8 79 8 c 128,-1,0
 63 24 63 24 63 47 c 128,-1,1
82 166 m 1,8,-1
 82 682 l 1,9,-1
 150 682 l 1,10,-1
 150 166 l 1,11,-1
 82 166 l 1,8,-1
EndSplineSet
EndChar

StartChar: quotedbl
Encoding: 34 34 5
Width: 330
GlyphClass: 2
Flags: W
LayerCount: 2
Fore
SplineSet
203 424 m 1,0,-1
 203 682 l 1,1,-1
 271 682 l 1,2,-1
 271 424 l 1,3,-1
 203 424 l 1,0,-1
59 424 m 1,4,-1
 59 682 l 1,5,-1
 127 682 l 1,6,-1
 127 424 l 1,7,-1
 59 424 l 1,4,-1
EndSplineSet
EndChar

StartChar: numbersign
Encoding: 35 35 6
Width: 540
GlyphClass: 2
Flags: W
LayerCount: 2
Fore
SplineSet
151 479 m 1,0,-1
 161 643 l 1,1,-1
 228 643 l 1,2,-1
 218 479 l 1,3,-1
 342 479 l 1,4,-1
 352 643 l 1,5,-1
 420 643 l 1,6,-1
 410 479 l 1,7,-1
 501 479 l 1,8,-1
 501 410 l 1,9,-1
 405 410 l 1,10,-1
 394 234 l 1,11,-1
 481 234 l 1,12,-1
 481 166 l 1,13,-1
 390 166 l 1,14,-1
 379 0 l 1,15,-1
 311 0 l 1,16,-1
 322 166 l 1,17,-1
 198 166 l 1,18,-1
 187 0 l 1,19,-1
 120 0 l 1,20,-1
 131 166 l 1,21,-1
 39 166 l 1,22,-1
 39 234 l 1,23,-1
 135 234 l 1,24,-1
 146 410 l 1,25,-1
 59 410 l 1,26,-1
 59 479 l 1,27,-1
 151 479 l 1,0,-1
213 410 m 1,28,-1
 202 234 l 1,29,-1
 326 234 l 1,30,-1
 337 410 l 1,31,-1
 213 410 l 1,28,-1
EndSplineSet
EndChar

StartChar: dollar
Encoding: 36 36 7
Width: 474
GlyphClass: 2
Flags: W
LayerCount: 2
Fore
SplineSet
214 682 m 1,0,-1
 255 682 l 1,1,-1
 255 583 l 1,2,3
 379 578 379 578 423 473 c 1,4,-1
 362 442 l 1,5,6
 332 516 332 516 255 520 c 1,7,-1
 255 367 l 1,8,9
 292 361 292 361 318.5 353 c 128,-1,10
 345 345 345 345 375.5 330 c 128,-1,11
 406 315 406 315 422 289.5 c 128,-1,12
 438 264 438 264 438 230 c 0,13,14
 438 168 438 168 386 129 c 128,-1,15
 334 90 334 90 255 84 c 1,16,-1
 255 0 l 1,17,-1
 214 0 l 1,18,-1
 214 83 l 1,19,20
 152 85 152 85 104 114 c 128,-1,21
 56 143 56 143 35 193 c 1,22,-1
 96 224 l 1,23,24
 109 191 109 191 140 170 c 128,-1,25
 171 149 171 149 214 146 c 1,26,-1
 214 306 l 1,27,28
 188 311 188 311 169.5 316 c 128,-1,29
 151 321 151 321 126.5 331.5 c 128,-1,30
 102 342 102 342 86.5 354.5 c 128,-1,31
 71 367 71 367 60 388.5 c 128,-1,32
 49 410 49 410 49 436 c 0,33,34
 49 498 49 498 94 536.5 c 128,-1,35
 139 575 139 575 214 582 c 1,36,-1
 214 682 l 1,0,-1
214 374 m 1,37,-1
 214 519 l 1,38,39
 167 513 167 513 142.5 491 c 128,-1,40
 118 469 118 469 118 436 c 0,41,42
 118 408 118 408 143.5 394.5 c 128,-1,43
 169 381 169 381 214 374 c 1,37,-1
255 298 m 1,44,-1
 255 147 l 1,45,46
 307 152 307 152 338.5 175 c 128,-1,47
 370 198 370 198 370 230 c 0,48,49
 370 242 370 242 366 251.5 c 128,-1,50
 362 261 362 261 350.5 268 c 128,-1,51
 339 275 339 275 332.5 279 c 128,-1,52
 326 283 326 283 306.5 287.5 c 128,-1,53
 287 292 287 292 282 293 c 128,-1,54
 277 294 277 294 255 298 c 1,44,-1
EndSplineSet
EndChar

StartChar: percent
Encoding: 37 37 8
Width: 531
GlyphClass: 2
Flags: W
LayerCount: 2
Fore
SplineSet
82 424 m 128,-1,1
 82 404 82 404 96 390.5 c 128,-1,2
 110 377 110 377 129 377 c 128,-1,3
 148 377 148 377 162 390.5 c 128,-1,4
 176 404 176 404 176 424 c 128,-1,5
 176 444 176 444 162 457.5 c 128,-1,6
 148 471 148 471 129 471 c 128,-1,7
 110 471 110 471 96 457.5 c 128,-1,0
 82 444 82 444 82 424 c 128,-1,1
39 424 m 128,-1,9
 39 462 39 462 65.5 488 c 128,-1,10
 92 514 92 514 129 514 c 128,-1,11
 166 514 166 514 192.5 488 c 128,-1,12
 219 462 219 462 219 424 c 128,-1,13
 219 386 219 386 192.5 360 c 128,-1,14
 166 334 166 334 129 334 c 128,-1,15
 92 334 92 334 65.5 360 c 128,-1,8
 39 386 39 386 39 424 c 128,-1,9
355 96 m 128,-1,17
 355 76 355 76 368.5 62.5 c 128,-1,18
 382 49 382 49 402 49 c 128,-1,19
 422 49 422 49 435.5 62.5 c 128,-1,20
 449 76 449 76 449 96 c 128,-1,21
 449 116 449 116 435.5 129.5 c 128,-1,22
 422 143 422 143 402 143 c 128,-1,23
 382 143 382 143 368.5 129.5 c 128,-1,16
 355 116 355 116 355 96 c 128,-1,17
312 96 m 128,-1,25
 312 134 312 134 338 160 c 128,-1,26
 364 186 364 186 402 186 c 128,-1,27
 440 186 440 186 466 160 c 128,-1,28
 492 134 492 134 492 96 c 128,-1,29
 492 58 492 58 466 32 c 128,-1,30
 440 6 440 6 402 6 c 128,-1,31
 364 6 364 6 338 32 c 128,-1,24
 312 58 312 58 312 96 c 128,-1,25
49 40 m 1,32,-1
 445 512 l 1,33,-1
 482 479 l 1,34,-1
 86 8 l 1,35,-1
 49 40 l 1,32,-1
EndSplineSet
EndChar

StartChar: ampersand
Encoding: 38 38 9
Width: 536
GlyphClass: 2
Flags: W
LayerCount: 2
Fore
SplineSet
210 446 m 1,0,1
 283 524 283 524 283 576 c 0,2,3
 283 596 283 596 266 610.5 c 128,-1,4
 249 625 249 625 232 625 c 0,5,6
 214 625 214 625 192 607.5 c 128,-1,7
 170 590 170 590 170 570 c 0,8,9
 170 510 170 510 210 446 c 1,0,1
436 123 m 1,10,-1
 522 0 l 1,11,-1
 431 0 l 1,12,-1
 389 60 l 1,13,14
 320 -12 320 -12 226 -12 c 0,15,16
 145 -12 145 -12 87.5 47.5 c 128,-1,17
 30 107 30 107 30 191 c 0,18,19
 30 224 30 224 50.5 261.5 c 128,-1,20
 71 299 71 299 94 325 c 128,-1,21
 117 351 117 351 157 391 c 1,22,-1
 132 427 l 2,23,24
 94 481 94 481 94 572 c 0,25,26
 94 627 94 627 136.5 660 c 128,-1,27
 179 693 179 693 232 693 c 0,28,29
 284 693 284 693 321.5 663 c 128,-1,30
 359 633 359 633 359 578 c 0,31,32
 359 499 359 499 250 388 c 1,33,-1
 386 194 l 1,34,35
 410 246 410 246 427 319 c 1,36,-1
 502 303 l 1,37,38
 483 203 483 203 436 123 c 1,10,-1
197 335 m 1,39,40
 152 289 152 289 129 256.5 c 128,-1,41
 106 224 106 224 106 193 c 0,42,43
 106 137 106 137 141 97 c 128,-1,44
 176 57 176 57 226 57 c 0,45,46
 291 57 291 57 344 125 c 1,47,-1
 197 335 l 1,39,40
EndSplineSet
EndChar

StartChar: quotesingle
Encoding: 39 39 10
Width: 186
GlyphClass: 2
Flags: W
LayerCount: 2
Fore
SplineSet
59 424 m 1,0,-1
 59 682 l 1,1,-1
 127 682 l 1,2,-1
 127 424 l 1,3,-1
 59 424 l 1,0,-1
EndSplineSet
EndChar

StartChar: parenleft
Encoding: 40 40 11
Width: 235
GlyphClass: 2
Flags: W
LayerCount: 2
Fore
SplineSet
194 629 m 1,0,1
 168 614 168 614 143.5 529.5 c 128,-1,2
 119 445 119 445 119 340 c 128,-1,3
 119 235 119 235 143.5 151.5 c 128,-1,4
 168 68 168 68 194 53 c 1,5,-1
 194 -16 l 1,6,7
 126 -16 126 -16 84.5 87.5 c 128,-1,8
 43 191 43 191 43 340 c 128,-1,9
 43 489 43 489 84.5 593 c 128,-1,10
 126 697 126 697 194 697 c 1,11,-1
 194 629 l 1,0,1
EndSplineSet
EndChar

StartChar: parenright
Encoding: 41 41 12
Width: 235
GlyphClass: 2
Flags: W
LayerCount: 2
Fore
SplineSet
41 53 m 1,0,1
 67 68 67 68 91.5 152.5 c 128,-1,2
 116 237 116 237 116 342 c 128,-1,3
 116 447 116 447 91.5 530.5 c 128,-1,4
 67 614 67 614 41 629 c 1,5,-1
 41 697 l 1,6,7
 109 697 109 697 150.5 594 c 128,-1,8
 192 491 192 491 192 342 c 0,9,10
 192 192 192 192 150.5 88 c 128,-1,11
 109 -16 109 -16 41 -16 c 1,12,-1
 41 53 l 1,0,1
EndSplineSet
EndChar

StartChar: asterisk
Encoding: 42 42 13
Width: 348
GlyphClass: 2
Flags: W
LayerCount: 2
Fore
SplineSet
216 591 m 1,0,-1
 302 591 l 1,1,-1
 302 544 l 1,2,-1
 215 544 l 1,3,-1
 259 468 l 1,4,-1
 218 444 l 1,5,-1
 175 519 l 1,6,-1
 131 444 l 1,7,-1
 90 468 l 1,8,-1
 134 544 l 1,9,-1
 46 544 l 1,10,-1
 46 591 l 1,11,-1
 133 591 l 1,12,-1
 90 666 l 1,13,-1
 131 689 l 1,14,-1
 175 614 l 1,15,-1
 218 689 l 1,16,-1
 259 666 l 1,17,-1
 216 591 l 1,0,-1
EndSplineSet
EndChar

StartChar: plus
Encoding: 43 43 14
Width: 443
GlyphClass: 2
Flags: W
LayerCount: 2
Fore
SplineSet
194 213 m 1,0,-1
 38 213 l 1,1,-1
 38 268 l 1,2,-1
 194 268 l 1,3,-1
 194 424 l 1,4,-1
 249 424 l 1,5,-1
 249 268 l 1,6,-1
 405 268 l 1,7,-1
 405 213 l 1,8,-1
 249 213 l 1,9,-1
 249 57 l 1,10,-1
 194 57 l 1,11,-1
 194 213 l 1,0,-1
EndSplineSet
EndChar

StartChar: comma
Encoding: 44 44 15
Width: 205
GlyphClass: 2
Flags: W
LayerCount: 2
Fore
SplineSet
48 47 m 128,-1,1
 48 70 48 70 64 85.5 c 128,-1,2
 80 101 80 101 102 101 c 128,-1,3
 124 101 124 101 140 85.5 c 128,-1,4
 156 70 156 70 156 47 c 0,5,6
 156 13 156 13 146.5 -17 c 128,-1,7
 137 -47 137 -47 124 -65 c 128,-1,8
 111 -83 111 -83 98 -96.5 c 128,-1,9
 85 -110 85 -110 76 -116 c 1,10,-1
 66 -121 l 1,11,-1
 49 -111 l 1,12,13
 87 -73 87 -73 102 -8 c 1,14,15
 80 -8 80 -8 64 8 c 128,-1,0
 48 24 48 24 48 47 c 128,-1,1
EndSplineSet
EndChar

StartChar: hyphen
Encoding: 45 45 16
Width: 333
GlyphClass: 2
Flags: W
LayerCount: 2
Fore
SplineSet
56 268 m 1,0,-1
 277 268 l 1,1,-1
 277 213 l 1,2,-1
 56 213 l 1,3,-1
 56 268 l 1,0,-1
EndSplineSet
EndChar

StartChar: period
Encoding: 46 46 17
Width: 204
GlyphClass: 2
Flags: W
LayerCount: 2
Fore
SplineSet
48 47 m 128,-1,1
 48 70 48 70 64 85.5 c 128,-1,2
 80 101 80 101 102 101 c 128,-1,3
 124 101 124 101 140 85.5 c 128,-1,4
 156 70 156 70 156 47 c 128,-1,5
 156 24 156 24 140 8 c 128,-1,6
 124 -8 124 -8 102 -8 c 128,-1,7
 80 -8 80 -8 64 8 c 128,-1,0
 48 24 48 24 48 47 c 128,-1,1
EndSplineSet
EndChar

StartChar: slash
Encoding: 47 47 18
Width: 377
GlyphClass: 2
Flags: W
LayerCount: 2
Fore
SplineSet
344 682 m 1,0,-1
 96 0 l 1,1,-1
 34 0 l 1,2,-1
 282 682 l 1,3,-1
 344 682 l 1,0,-1
EndSplineSet
EndChar

StartChar: zero
Encoding: 48 48 19
Width: 561
GlyphClass: 2
Flags: W
LayerCount: 2
Fore
SplineSet
106 341 m 128,-1,1
 106 218 106 218 155.5 132 c 128,-1,2
 205 46 205 46 271 46 c 128,-1,3
 337 46 337 46 386 132 c 128,-1,4
 435 218 435 218 435 341 c 128,-1,5
 435 464 435 464 386 549.5 c 128,-1,6
 337 635 337 635 271 635 c 128,-1,7
 205 635 205 635 155.5 549.5 c 128,-1,0
 106 464 106 464 106 341 c 128,-1,1
39 341 m 128,-1,9
 39 502 39 502 109 599.5 c 128,-1,10
 179 697 179 697 271 697 c 128,-1,11
 363 697 363 697 433 600 c 128,-1,12
 503 503 503 503 503 341 c 0,13,14
 503 178 503 178 433.5 81 c 128,-1,15
 364 -16 364 -16 272 -16 c 128,-1,16
 180 -16 180 -16 109.5 82 c 128,-1,8
 39 180 39 180 39 341 c 128,-1,9
EndSplineSet
EndChar

StartChar: one
Encoding: 49 49 20
Width: 561
GlyphClass: 2
Flags: W
LayerCount: 2
Fore
SplineSet
383 0 m 1,0,-1
 309 0 l 1,1,-1
 309 514 l 1,2,-1
 201 412 l 1,3,-1
 159 428 l 1,4,-1
 309 682 l 1,5,-1
 383 682 l 1,6,-1
 383 0 l 1,0,-1
EndSplineSet
EndChar

StartChar: two
Encoding: 50 50 21
Width: 561
GlyphClass: 2
Flags: W
LayerCount: 2
Fore
SplineSet
480 68 m 1,0,-1
 480 0 l 1,1,-1
 70 0 l 1,2,-1
 70 43 l 2,3,4
 70 113 70 113 122.5 181.5 c 128,-1,5
 175 250 175 250 271 327 c 0,6,7
 339 382 339 382 367.5 421 c 128,-1,8
 396 460 396 460 396 512 c 0,9,10
 396 629 396 629 266 629 c 0,11,12
 218 629 218 629 186 606.5 c 128,-1,13
 154 584 154 584 117 533 c 1,14,-1
 62 580 l 1,15,16
 110 642 110 642 155.5 669.5 c 128,-1,17
 201 697 201 697 266 697 c 0,18,19
 362 697 362 697 417.5 649 c 128,-1,20
 473 601 473 601 473 512 c 0,21,22
 473 443 473 443 436.5 390.5 c 128,-1,23
 400 338 400 338 305 268 c 0,24,25
 249 226 249 226 204.5 171.5 c 128,-1,26
 160 117 160 117 149 68 c 1,27,-1
 480 68 l 1,0,-1
EndSplineSet
EndChar

StartChar: three
Encoding: 51 51 22
Width: 561
GlyphClass: 2
Flags: W
LayerCount: 2
Fore
SplineSet
352 376 m 1,0,1
 490 319 490 319 490 186 c 0,2,3
 490 90 490 90 415 37 c 128,-1,4
 340 -16 340 -16 244 -16 c 0,5,6
 194 -16 194 -16 139.5 10.5 c 128,-1,7
 85 37 85 37 52 79 c 1,8,-1
 105 121 l 1,9,10
 128 89 128 89 166.5 70.5 c 128,-1,11
 205 52 205 52 244 52 c 0,12,13
 318 52 318 52 366.5 83 c 128,-1,14
 415 114 415 114 415 186 c 0,15,16
 415 230 415 230 394.5 261.5 c 128,-1,17
 374 293 374 293 339.5 308.5 c 128,-1,18
 305 324 305 324 271.5 330.5 c 128,-1,19
 238 337 238 337 201 337 c 1,20,-1
 201 404 l 1,21,22
 272 404 272 404 332 437 c 128,-1,23
 392 470 392 470 392 521 c 0,24,25
 392 569 392 569 360 599.5 c 128,-1,26
 328 630 328 630 269 630 c 0,27,28
 235 630 235 630 201.5 613 c 128,-1,29
 168 596 168 596 146 564 c 1,30,-1
 92 606 l 1,31,32
 125 648 125 648 174 672.5 c 128,-1,33
 223 697 223 697 269 697 c 0,34,35
 352 697 352 697 409.5 648.5 c 128,-1,36
 467 600 467 600 467 521 c 0,37,38
 467 478 467 478 435.5 440 c 128,-1,39
 404 402 404 402 352 376 c 1,0,1
EndSplineSet
EndChar

StartChar: four
Encoding: 52 52 23
Width: 561
GlyphClass: 2
Flags: W
LayerCount: 2
Fore
SplineSet
356 566 m 1,0,-1
 134 250 l 1,1,-1
 356 250 l 1,2,-1
 356 566 l 1,0,-1
356 682 m 1,3,-1
 431 682 l 1,4,-1
 431 250 l 1,5,-1
 498 250 l 1,6,-1
 498 176 l 1,7,-1
 431 176 l 1,8,-1
 431 0 l 1,9,-1
 356 0 l 1,10,-1
 356 176 l 1,11,-1
 54 176 l 1,12,-1
 54 250 l 1,13,-1
 356 682 l 1,3,-1
EndSplineSet
EndChar

StartChar: five
Encoding: 53 53 24
Width: 561
GlyphClass: 2
Flags: W
LayerCount: 2
Fore
SplineSet
46 74 m 1,0,-1
 99 111 l 1,1,2
 149 46 149 46 259 46 c 0,3,4
 332 46 332 46 380.5 98 c 128,-1,5
 429 150 429 150 429 220 c 0,6,7
 429 297 429 297 387 345 c 128,-1,8
 345 393 345 393 264 393 c 0,9,10
 247 393 247 393 232.5 392.5 c 128,-1,11
 218 392 218 392 204.5 390.5 c 128,-1,12
 191 389 191 389 182.5 388.5 c 128,-1,13
 174 388 174 388 162.5 384.5 c 128,-1,14
 151 381 151 381 146.5 380.5 c 128,-1,15
 142 380 142 380 130.5 375 c 128,-1,16
 119 370 119 370 117 369.5 c 128,-1,17
 115 369 115 369 101.5 362.5 c 128,-1,18
 88 356 88 356 86 355 c 1,19,-1
 86 682 l 1,20,-1
 432 682 l 1,21,-1
 432 613 l 1,22,-1
 160 613 l 1,23,-1
 160 443 l 1,24,25
 215 455 215 455 264 455 c 0,26,27
 377 455 377 455 436.5 395.5 c 128,-1,28
 496 336 496 336 496 220 c 0,29,30
 496 115 496 115 431.5 49.5 c 128,-1,31
 367 -16 367 -16 257 -16 c 0,32,33
 118 -16 118 -16 46 74 c 1,0,-1
EndSplineSet
EndChar

StartChar: six
Encoding: 54 54 25
Width: 561
GlyphClass: 2
Flags: W
LayerCount: 2
Fore
SplineSet
503 225 m 128,-1,1
 503 125 503 125 431 54.5 c 128,-1,2
 359 -16 359 -16 270 -16 c 128,-1,3
 181 -16 181 -16 110 54 c 128,-1,4
 39 124 39 124 39 225 c 0,5,6
 39 323 39 323 61 404 c 128,-1,7
 83 485 83 485 118.5 537 c 128,-1,8
 154 589 154 589 201 625.5 c 128,-1,9
 248 662 248 662 294 678 c 128,-1,10
 340 694 340 694 387 697 c 1,11,-1
 387 633 l 1,12,13
 195 605 195 605 134 415 c 1,14,15
 199 465 199 465 271 465 c 0,16,17
 360 465 360 465 431.5 395 c 128,-1,0
 503 325 503 325 503 225 c 128,-1,1
436 225 m 128,-1,19
 436 301 436 301 386.5 351.5 c 128,-1,20
 337 402 337 402 271 402 c 128,-1,21
 205 402 205 402 156 351.5 c 128,-1,22
 107 301 107 301 107 225 c 128,-1,23
 107 149 107 149 156 97.5 c 128,-1,24
 205 46 205 46 271 46 c 128,-1,25
 337 46 337 46 386.5 97.5 c 128,-1,18
 436 149 436 149 436 225 c 128,-1,19
EndSplineSet
EndChar

StartChar: seven
Encoding: 55 55 26
Width: 561
GlyphClass: 2
Flags: W
LayerCount: 2
Fore
SplineSet
65 613 m 1,0,-1
 65 682 l 1,1,-1
 477 682 l 1,2,-1
 245 0 l 1,3,-1
 164 0 l 1,4,-1
 373 613 l 1,5,-1
 65 613 l 1,0,-1
EndSplineSet
EndChar

StartChar: eight
Encoding: 56 56 27
Width: 561
GlyphClass: 2
Flags: W
LayerCount: 2
Fore
SplineSet
111 195 m 128,-1,1
 111 122 111 122 156 86.5 c 128,-1,2
 201 51 201 51 271 51 c 128,-1,3
 341 51 341 51 385.5 86 c 128,-1,4
 430 121 430 121 430 195 c 128,-1,5
 430 269 430 269 385.5 304 c 128,-1,6
 341 339 341 339 271 339 c 128,-1,7
 201 339 201 339 156 303.5 c 128,-1,0
 111 268 111 268 111 195 c 128,-1,1
68 519 m 0,8,9
 68 604 68 604 129.5 650.5 c 128,-1,10
 191 697 191 697 271 697 c 128,-1,11
 351 697 351 697 412.5 650.5 c 128,-1,12
 474 604 474 604 474 519 c 0,13,14
 474 425 474 425 396 375 c 1,15,16
 503 316 503 316 503 195 c 0,17,18
 503 97 503 97 434 40.5 c 128,-1,19
 365 -16 365 -16 272 -16 c 128,-1,20
 179 -16 179 -16 109 40.5 c 128,-1,21
 39 97 39 97 39 195 c 0,22,23
 39 316 39 316 146 375 c 1,24,25
 68 425 68 425 68 519 c 0,8,9
271 406 m 128,-1,27
 329 406 329 406 364.5 433.5 c 128,-1,28
 400 461 400 461 400 519 c 0,29,30
 400 576 400 576 364.5 603 c 128,-1,31
 329 630 329 630 271 630 c 0,32,33
 212 630 212 630 176.5 603 c 128,-1,34
 141 576 141 576 141 519 c 0,35,36
 141 463 141 463 177 434.5 c 128,-1,26
 213 406 213 406 271 406 c 128,-1,27
EndSplineSet
EndChar

StartChar: nine
Encoding: 57 57 28
Width: 561
GlyphClass: 2
Flags: W
LayerCount: 2
Fore
SplineSet
39 457 m 128,-1,1
 39 557 39 557 110.5 627 c 128,-1,2
 182 697 182 697 272 697 c 0,3,4
 361 697 361 697 432 627 c 128,-1,5
 503 557 503 557 503 457 c 0,6,7
 503 335 503 335 470 241 c 128,-1,8
 437 147 437 147 383.5 94 c 128,-1,9
 330 41 330 41 272.5 14 c 128,-1,10
 215 -13 215 -13 155 -16 c 1,11,-1
 155 49 l 1,12,13
 348 77 348 77 409 266 c 1,14,15
 346 217 346 217 271 217 c 0,16,17
 182 217 182 217 110.5 287 c 128,-1,0
 39 357 39 357 39 457 c 128,-1,1
106 457 m 128,-1,19
 106 381 106 381 155.5 330 c 128,-1,20
 205 279 205 279 271 279 c 128,-1,21
 337 279 337 279 386 330 c 128,-1,22
 435 381 435 381 435 457 c 128,-1,23
 435 533 435 533 386 584.5 c 128,-1,24
 337 636 337 636 271 636 c 128,-1,25
 205 636 205 636 155.5 584.5 c 128,-1,18
 106 533 106 533 106 457 c 128,-1,19
EndSplineSet
EndChar

StartChar: colon
Encoding: 58 58 29
Width: 220
GlyphClass: 2
Flags: W
LayerCount: 2
Fore
SplineSet
56 47 m 128,-1,1
 56 70 56 70 72 85.5 c 128,-1,2
 88 101 88 101 110 101 c 128,-1,3
 132 101 132 101 148 85.5 c 128,-1,4
 164 70 164 70 164 47 c 128,-1,5
 164 24 164 24 148 8 c 128,-1,6
 132 -8 132 -8 110 -8 c 128,-1,7
 88 -8 88 -8 72 8 c 128,-1,0
 56 24 56 24 56 47 c 128,-1,1
56 418 m 0,8,9
 56 440 56 440 72 456 c 128,-1,10
 88 472 88 472 110 472 c 128,-1,11
 132 472 132 472 148 456 c 128,-1,12
 164 440 164 440 164 418 c 0,13,14
 164 395 164 395 148 379 c 128,-1,15
 132 363 132 363 110 363 c 128,-1,16
 88 363 88 363 72 379 c 128,-1,17
 56 395 56 395 56 418 c 0,8,9
EndSplineSet
EndChar

StartChar: semicolon
Encoding: 59 59 30
Width: 220
GlyphClass: 2
Flags: W
LayerCount: 2
Fore
SplineSet
56 418 m 0,0,1
 56 440 56 440 72 456 c 128,-1,2
 88 472 88 472 110 472 c 128,-1,3
 132 472 132 472 148 456 c 128,-1,4
 164 440 164 440 164 418 c 0,5,6
 164 395 164 395 148 379 c 128,-1,7
 132 363 132 363 110 363 c 128,-1,8
 88 363 88 363 72 379 c 128,-1,9
 56 395 56 395 56 418 c 0,0,1
56 47 m 128,-1,11
 56 70 56 70 72 85.5 c 128,-1,12
 88 101 88 101 110 101 c 128,-1,13
 132 101 132 101 148 85.5 c 128,-1,14
 164 70 164 70 164 47 c 0,15,16
 164 13 164 13 154.5 -17 c 128,-1,17
 145 -47 145 -47 132 -65 c 128,-1,18
 119 -83 119 -83 106 -96.5 c 128,-1,19
 93 -110 93 -110 84 -116 c 1,20,-1
 74 -121 l 1,21,-1
 57 -111 l 1,22,23
 95 -73 95 -73 110 -8 c 1,24,25
 88 -8 88 -8 72 8 c 128,-1,10
 56 24 56 24 56 47 c 128,-1,11
EndSplineSet
EndChar

StartChar: less
Encoding: 60 60 31
Width: 481
GlyphClass: 2
Flags: W
LayerCount: 2
Fore
SplineSet
26 285 m 1,0,-1
 385 586 l 1,1,-1
 429 533 l 1,2,-1
 133 285 l 1,3,-1
 429 37 l 1,4,-1
 385 -16 l 1,5,-1
 26 285 l 1,0,-1
EndSplineSet
EndChar

StartChar: equal
Encoding: 61 61 32
Width: 399
GlyphClass: 2
Flags: W
LayerCount: 2
Fore
SplineSet
65 322 m 1,0,-1
 334 322 l 1,1,-1
 334 268 l 1,2,-1
 65 268 l 1,3,-1
 65 322 l 1,0,-1
65 213 m 1,4,-1
 334 213 l 1,5,-1
 334 158 l 1,6,-1
 65 158 l 1,7,-1
 65 213 l 1,4,-1
EndSplineSet
EndChar

StartChar: greater
Encoding: 62 62 33
Width: 481
GlyphClass: 2
Flags: W
LayerCount: 2
Fore
SplineSet
455 285 m 1,0,-1
 96 -16 l 1,1,-1
 52 37 l 1,2,-1
 348 285 l 1,3,-1
 52 533 l 1,4,-1
 96 586 l 1,5,-1
 455 285 l 1,0,-1
EndSplineSet
EndChar

StartChar: question
Encoding: 63 63 34
Width: 461
GlyphClass: 2
Flags: W
LayerCount: 2
Fore
SplineSet
155 47 m 128,-1,1
 155 70 155 70 170.5 85.5 c 128,-1,2
 186 101 186 101 209 101 c 128,-1,3
 232 101 232 101 248 85 c 128,-1,4
 264 69 264 69 264 47 c 0,5,6
 264 24 264 24 248 8 c 128,-1,7
 232 -8 232 -8 209 -8 c 0,8,9
 187 -8 187 -8 171 8 c 128,-1,0
 155 24 155 24 155 47 c 128,-1,1
29 559 m 1,10,11
 51 622 51 622 104.5 659.5 c 128,-1,12
 158 697 158 697 219 697 c 0,13,14
 305 697 305 697 363.5 641.5 c 128,-1,15
 422 586 422 586 422 504 c 0,16,17
 422 450 422 450 403.5 411.5 c 128,-1,18
 385 373 385 373 359 349.5 c 128,-1,19
 333 326 333 326 307 304 c 128,-1,20
 281 282 281 282 262.5 247.5 c 128,-1,21
 244 213 244 213 244 166 c 1,22,-1
 176 166 l 1,23,24
 176 220 176 220 194.5 258.5 c 128,-1,25
 213 297 213 297 239 320.5 c 128,-1,26
 265 344 265 344 291 366 c 128,-1,27
 317 388 317 388 335.5 422.5 c 128,-1,28
 354 457 354 457 354 504 c 0,29,30
 354 560 354 560 317.5 597.5 c 128,-1,31
 281 635 281 635 219 635 c 0,32,33
 174 635 174 635 140.5 610 c 128,-1,34
 107 585 107 585 92 539 c 1,35,-1
 29 559 l 1,10,11
EndSplineSet
EndChar

StartChar: at
Encoding: 64 64 35
Width: 751
GlyphClass: 2
Flags: W
LayerCount: 2
Fore
SplineSet
375 55 m 0,0,1
 297 55 297 55 255.5 114 c 128,-1,2
 214 173 214 173 214 278 c 0,3,4
 214 381 214 381 255 438.5 c 128,-1,5
 296 496 296 496 373 496 c 0,6,7
 429 496 429 496 470 458 c 1,8,-1
 470 479 l 1,9,-1
 532 479 l 1,10,-1
 532 187 l 2,11,12
 532 155 532 155 549 139.5 c 128,-1,13
 566 124 566 124 583 124 c 0,14,15
 614 124 614 124 631 169 c 128,-1,16
 648 214 648 214 648 287 c 0,17,18
 648 451 648 451 580.5 542 c 128,-1,19
 513 633 513 633 373 633 c 0,20,21
 280 633 280 633 194 536 c 128,-1,22
 108 439 108 439 108 312 c 0,23,24
 108 130 108 130 189 23 c 128,-1,25
 270 -84 270 -84 409 -84 c 0,26,27
 471 -84 471 -84 541 -58 c 1,28,-1
 568 -116 l 1,29,30
 486 -146 486 -146 409 -146 c 0,31,32
 244 -146 244 -146 142 -22 c 128,-1,33
 40 102 40 102 40 309 c 0,34,35
 40 386 40 386 70.5 459 c 128,-1,36
 101 532 101 532 148.5 583 c 128,-1,37
 196 634 196 634 255.5 664.5 c 128,-1,38
 315 695 315 695 373 695 c 0,39,40
 543 695 543 695 630 582 c 128,-1,41
 717 469 717 469 717 271 c 0,42,43
 717 184 717 184 685 120 c 128,-1,44
 653 56 653 56 583 56 c 0,45,46
 512 56 512 56 485 109 c 1,47,48
 443 55 443 55 375 55 c 0,0,1
470 275 m 0,49,50
 470 340 470 340 443.5 387 c 128,-1,51
 417 434 417 434 373 434 c 128,-1,52
 329 434 329 434 302 387 c 128,-1,53
 275 340 275 340 275 275 c 0,54,55
 275 208 275 208 301.5 162 c 128,-1,56
 328 116 328 116 373 116 c 0,57,58
 417 116 417 116 443.5 161.5 c 128,-1,59
 470 207 470 207 470 275 c 0,49,50
EndSplineSet
EndChar

StartChar: A
Encoding: 65 65 36
Width: 576
GlyphClass: 2
Flags: W
AnchorPoint: "Anchor-0" 288 726 basechar 0
LayerCount: 2
Fore
SplineSet
328 680 m 1,0,-1
 576 0 l 1,1,-1
 496 0 l 1,2,-1
 426 191 l 1,3,-1
 150 191 l 1,4,-1
 81 0 l 1,5,-1
 1 0 l 1,6,-1
 248 680 l 1,7,-1
 248 682 l 1,8,-1
 329 682 l 1,9,-1
 328 680 l 1,0,-1
288 570 m 1,10,-1
 173 253 l 1,11,-1
 404 253 l 1,12,-1
 288 570 l 1,10,-1
EndSplineSet
EndChar

StartChar: B
Encoding: 66 66 37
Width: 575
GlyphClass: 2
Flags: W
LayerCount: 2
Fore
SplineSet
79 0 m 1,0,-1
 79 682 l 1,1,-1
 281 682 l 2,2,3
 369 682 369 682 429.5 634 c 128,-1,4
 490 586 490 586 490 511 c 0,5,6
 490 426 490 426 415 377 c 1,7,8
 536 325 536 325 536 200 c 0,9,10
 536 134 536 134 500 87.5 c 128,-1,11
 464 41 464 41 412 20.5 c 128,-1,12
 360 0 360 0 299 0 c 2,13,-1
 79 0 l 1,0,-1
154 338 m 1,14,-1
 154 62 l 1,15,-1
 297 62 l 2,16,17
 365 62 365 62 409.5 98 c 128,-1,18
 454 134 454 134 454 200 c 128,-1,19
 454 266 454 266 409.5 302 c 128,-1,20
 365 338 365 338 297 338 c 2,21,-1
 154 338 l 1,14,-1
154 619 m 1,22,-1
 154 401 l 1,23,-1
 281 401 l 2,24,25
 341 401 341 401 374.5 434 c 128,-1,26
 408 467 408 467 408 511 c 128,-1,27
 408 555 408 555 375 587 c 128,-1,28
 342 619 342 619 281 619 c 2,29,-1
 154 619 l 1,22,-1
EndSplineSet
EndChar

StartChar: C
Encoding: 67 67 38
Width: 573
GlyphClass: 2
Flags: W
AnchorPoint: "Anchor-0" 322 726 basechar 0
LayerCount: 2
Fore
SplineSet
546 144 m 1,0,1
 453 -16 453 -16 319 -16 c 0,2,3
 205 -16 205 -16 124.5 89.5 c 128,-1,4
 44 195 44 195 44 340 c 128,-1,5
 44 485 44 485 124.5 591 c 128,-1,6
 205 697 205 697 319 697 c 0,7,8
 443 697 443 697 534 557 c 1,9,-1
 475 515 l 1,10,11
 406 629 406 629 319 629 c 128,-1,12
 232 629 232 629 176 543 c 128,-1,13
 120 457 120 457 120 340 c 128,-1,14
 120 223 120 223 176 138 c 128,-1,15
 232 53 232 53 319 53 c 0,16,17
 413 53 413 53 481 179 c 1,18,-1
 546 144 l 1,0,1
EndSplineSet
EndChar

StartChar: D
Encoding: 68 68 39
Width: 610
GlyphClass: 2
Flags: W
AnchorPoint: "Anchor-0" 273 726 basechar 0
LayerCount: 2
Fore
SplineSet
79 0 m 1,0,-1
 79 682 l 1,1,-1
 228 682 l 2,2,3
 294 682 294 682 353.5 661.5 c 128,-1,4
 413 641 413 641 461 601 c 128,-1,5
 509 561 509 561 537 493.5 c 128,-1,6
 565 426 565 426 565 340 c 128,-1,7
 565 254 565 254 537 187 c 128,-1,8
 509 120 509 120 461 80 c 128,-1,9
 413 40 413 40 354 20 c 128,-1,10
 295 0 295 0 228 0 c 2,11,-1
 79 0 l 1,0,-1
154 613 m 1,12,-1
 154 68 l 1,13,-1
 206 68 l 2,14,15
 340 68 340 68 413 135 c 128,-1,16
 486 202 486 202 486 340 c 128,-1,17
 486 478 486 478 413 545.5 c 128,-1,18
 340 613 340 613 206 613 c 2,19,-1
 154 613 l 1,12,-1
EndSplineSet
EndChar

StartChar: E
Encoding: 69 69 40
Width: 503
GlyphClass: 2
Flags: W
AnchorPoint: "Anchor-0" 285 726 basechar 0
LayerCount: 2
Fore
SplineSet
79 0 m 1,0,-1
 79 682 l 1,1,-1
 461 682 l 1,2,-1
 461 619 l 1,3,-1
 154 619 l 1,4,-1
 154 401 l 1,5,-1
 394 401 l 1,6,-1
 394 340 l 1,7,-1
 154 340 l 1,8,-1
 154 62 l 1,9,-1
 464 62 l 1,10,-1
 464 0 l 1,11,-1
 79 0 l 1,0,-1
EndSplineSet
EndChar

StartChar: F
Encoding: 70 70 41
Width: 479
GlyphClass: 2
Flags: W
LayerCount: 2
Fore
SplineSet
79 0 m 1,0,-1
 79 682 l 1,1,-1
 461 682 l 1,2,-1
 461 619 l 1,3,-1
 154 619 l 1,4,-1
 154 401 l 1,5,-1
 394 401 l 1,6,-1
 394 340 l 1,7,-1
 154 340 l 1,8,-1
 154 0 l 1,9,-1
 79 0 l 1,0,-1
EndSplineSet
EndChar

StartChar: G
Encoding: 71 71 42
Width: 607
GlyphClass: 2
Flags: W
AnchorPoint: "Anchor-0" 323 726 basechar 0
LayerCount: 2
Fore
SplineSet
329 291 m 1,0,-1
 329 353 l 1,1,-1
 564 353 l 1,2,-1
 564 291 l 2,3,4
 564 130 564 130 497.5 57 c 128,-1,5
 431 -16 431 -16 305 -16 c 0,6,7
 192 -16 192 -16 118 88.5 c 128,-1,8
 44 193 44 193 44 340 c 128,-1,9
 44 487 44 487 123 592 c 128,-1,10
 202 697 202 697 324 697 c 0,11,12
 401 697 401 697 449.5 662.5 c 128,-1,13
 498 628 498 628 544 557 c 1,14,-1
 484 515 l 1,15,16
 450 572 450 572 415 600.5 c 128,-1,17
 380 629 380 629 324 629 c 0,18,19
 232 629 232 629 176 543.5 c 128,-1,20
 120 458 120 458 120 340 c 0,21,22
 120 221 120 221 169.5 137 c 128,-1,23
 219 53 219 53 305 53 c 0,24,25
 350 53 350 53 379.5 61 c 128,-1,26
 409 69 409 69 436.5 93 c 128,-1,27
 464 117 464 117 477 166 c 128,-1,28
 490 215 490 215 490 291 c 1,29,-1
 329 291 l 1,0,-1
EndSplineSet
EndChar

StartChar: H
Encoding: 72 72 43
Width: 608
GlyphClass: 2
Flags: W
AnchorPoint: "Anchor-0" 308 726 basechar 0
LayerCount: 2
Fore
SplineSet
79 0 m 1,0,-1
 79 682 l 1,1,-1
 154 682 l 1,2,-1
 154 387 l 1,3,-1
 454 387 l 1,4,-1
 454 682 l 1,5,-1
 529 682 l 1,6,-1
 529 0 l 1,7,-1
 454 0 l 1,8,-1
 454 325 l 1,9,-1
 154 325 l 1,10,-1
 154 0 l 1,11,-1
 79 0 l 1,0,-1
EndSplineSet
EndChar

StartChar: I
Encoding: 73 73 44
Width: 253
GlyphClass: 2
Flags: W
AnchorPoint: "Anchor-0" 127 726 basechar 0
LayerCount: 2
Fore
SplineSet
164 616 m 1,0,-1
 164 66 l 1,1,-1
 200 66 l 1,2,-1
 200 0 l 1,3,-1
 53 0 l 1,4,-1
 53 66 l 1,5,-1
 89 66 l 1,6,-1
 89 616 l 1,7,-1
 53 616 l 1,8,-1
 53 682 l 1,9,-1
 200 682 l 1,10,-1
 200 616 l 1,11,-1
 164 616 l 1,0,-1
EndSplineSet
EndChar

StartChar: J
Encoding: 74 74 45
Width: 490
GlyphClass: 2
Flags: W
AnchorPoint: "Anchor-0" 380 726 basechar 0
LayerCount: 2
Fore
SplineSet
75 157 m 1,0,1
 90 109 90 109 123.5 81.5 c 128,-1,2
 157 54 157 54 203 54 c 0,3,4
 341 54 341 54 341 205 c 2,5,-1
 341 682 l 1,6,-1
 416 682 l 1,7,-1
 416 205 l 2,8,9
 416 105 416 105 355 44.5 c 128,-1,10
 294 -16 294 -16 205 -16 c 0,11,12
 144 -16 144 -16 91.5 23.5 c 128,-1,13
 39 63 39 63 12 127 c 1,14,-1
 75 157 l 1,0,1
EndSplineSet
EndChar

StartChar: K
Encoding: 75 75 46
Width: 533
GlyphClass: 2
Flags: W
LayerCount: 2
Fore
SplineSet
79 0 m 1,0,-1
 79 682 l 1,1,-1
 154 682 l 1,2,-1
 154 361 l 1,3,-1
 423 682 l 1,4,-1
 520 682 l 1,5,-1
 266 379 l 1,6,-1
 531 0 l 1,7,-1
 440 0 l 1,8,-1
 216 320 l 1,9,-1
 154 246 l 1,10,-1
 154 0 l 1,11,-1
 79 0 l 1,0,-1
EndSplineSet
EndChar

StartChar: L
Encoding: 76 76 47
Width: 436
GlyphClass: 2
Flags: W
AnchorPoint: "Anchor-0" 117 726 basechar 0
LayerCount: 2
Fore
SplineSet
79 0 m 1,0,-1
 79 682 l 1,1,-1
 154 682 l 1,2,-1
 154 62 l 1,3,-1
 421 62 l 1,4,-1
 421 0 l 1,5,-1
 79 0 l 1,0,-1
EndSplineSet
EndChar

StartChar: M
Encoding: 77 77 48
Width: 793
GlyphClass: 2
Flags: W
LayerCount: 2
Fore
SplineSet
79 0 m 1,0,-1
 79 682 l 1,1,-1
 160 682 l 1,2,-1
 397 99 l 1,3,-1
 633 682 l 1,4,-1
 714 682 l 1,5,-1
 714 0 l 1,6,-1
 640 0 l 1,7,-1
 640 503 l 1,8,-1
 437 0 l 1,9,-1
 357 0 l 1,10,-1
 154 502 l 1,11,-1
 154 0 l 1,12,-1
 79 0 l 1,0,-1
EndSplineSet
EndChar

StartChar: N
Encoding: 78 78 49
Width: 629
GlyphClass: 2
Flags: W
AnchorPoint: "Anchor-0" 320 726 basechar 0
LayerCount: 2
Fore
SplineSet
79 0 m 1,0,-1
 79 682 l 1,1,-1
 154 682 l 1,2,-1
 476 123 l 1,3,-1
 476 682 l 1,4,-1
 550 682 l 1,5,-1
 550 0 l 1,6,-1
 476 0 l 1,7,-1
 154 557 l 1,8,-1
 154 0 l 1,9,-1
 79 0 l 1,0,-1
EndSplineSet
EndChar

StartChar: O
Encoding: 79 79 50
Width: 670
GlyphClass: 2
Flags: W
AnchorPoint: "Anchor-0" 335 726 basechar 0
LayerCount: 2
Fore
SplineSet
121 340 m 0,0,1
 121 226 121 226 183.5 139.5 c 128,-1,2
 246 53 246 53 335 53 c 128,-1,3
 424 53 424 53 486.5 139.5 c 128,-1,4
 549 226 549 226 549 340 c 0,5,6
 549 455 549 455 486 542 c 128,-1,7
 423 629 423 629 335 629 c 128,-1,8
 247 629 247 629 184 542 c 128,-1,9
 121 455 121 455 121 340 c 0,0,1
42 340 m 128,-1,11
 42 483 42 483 130.5 590 c 128,-1,12
 219 697 219 697 335 697 c 128,-1,13
 451 697 451 697 539.5 590 c 128,-1,14
 628 483 628 483 628 340 c 128,-1,15
 628 197 628 197 539.5 90.5 c 128,-1,16
 451 -16 451 -16 335 -16 c 128,-1,17
 219 -16 219 -16 130.5 90.5 c 128,-1,10
 42 197 42 197 42 340 c 128,-1,11
EndSplineSet
EndChar

StartChar: P
Encoding: 80 80 51
Width: 557
GlyphClass: 2
Flags: W
LayerCount: 2
Fore
SplineSet
79 0 m 1,0,-1
 79 682 l 1,1,-1
 297 682 l 2,2,3
 358 682 358 682 410.5 661.5 c 128,-1,4
 463 641 463 641 499.5 594 c 128,-1,5
 536 547 536 547 536 481 c 128,-1,6
 536 415 536 415 500 368.5 c 128,-1,7
 464 322 464 322 412 301.5 c 128,-1,8
 360 281 360 281 299 281 c 2,9,-1
 154 281 l 1,10,-1
 154 0 l 1,11,-1
 79 0 l 1,0,-1
154 619 m 1,12,-1
 154 344 l 1,13,-1
 297 344 l 2,14,15
 365 344 365 344 409.5 379.5 c 128,-1,16
 454 415 454 415 454 481 c 128,-1,17
 454 547 454 547 409.5 583 c 128,-1,18
 365 619 365 619 297 619 c 2,19,-1
 154 619 l 1,12,-1
EndSplineSet
EndChar

StartChar: Q
Encoding: 81 81 52
Width: 670
GlyphClass: 2
Flags: W
LayerCount: 2
Fore
SplineSet
42 340 m 128,-1,1
 42 483 42 483 130.5 590 c 128,-1,2
 219 697 219 697 335 697 c 128,-1,3
 451 697 451 697 539.5 590 c 128,-1,4
 628 483 628 483 628 340 c 0,5,6
 628 193 628 193 536 86 c 1,7,-1
 608 14 l 1,8,-1
 564 -29 l 1,9,-1
 491 43 l 1,10,11
 418 -16 418 -16 335 -16 c 0,12,13
 219 -16 219 -16 130.5 90.5 c 128,-1,0
 42 197 42 197 42 340 c 128,-1,1
121 340 m 0,14,15
 121 226 121 226 183.5 139.5 c 128,-1,16
 246 53 246 53 335 53 c 0,17,18
 394 53 394 53 442 92 c 1,19,-1
 366 167 l 1,20,-1
 410 211 l 1,21,-1
 485 137 l 1,22,23
 549 222 549 222 549 340 c 0,24,25
 549 455 549 455 486 542 c 128,-1,26
 423 629 423 629 335 629 c 128,-1,27
 247 629 247 629 184 542 c 128,-1,28
 121 455 121 455 121 340 c 0,14,15
EndSplineSet
EndChar

StartChar: R
Encoding: 82 82 53
Width: 581
GlyphClass: 2
Flags: W
AnchorPoint: "Anchor-0" 299 726 basechar 0
LayerCount: 2
Fore
SplineSet
79 0 m 1,0,-1
 79 682 l 1,1,-1
 297 682 l 2,2,3
 358 682 358 682 410.5 661.5 c 128,-1,4
 463 641 463 641 499.5 594 c 128,-1,5
 536 547 536 547 536 481 c 0,6,7
 536 405 536 405 491.5 357 c 128,-1,8
 447 309 447 309 377 291 c 1,9,-1
 545 0 l 1,10,-1
 462 0 l 1,11,-1
 300 281 l 1,12,-1
 299 281 l 1,13,-1
 154 281 l 1,14,-1
 154 0 l 1,15,-1
 79 0 l 1,0,-1
154 619 m 1,16,-1
 154 344 l 1,17,-1
 297 344 l 2,18,19
 365 344 365 344 409.5 379.5 c 128,-1,20
 454 415 454 415 454 481 c 128,-1,21
 454 547 454 547 409.5 583 c 128,-1,22
 365 619 365 619 297 619 c 2,23,-1
 154 619 l 1,16,-1
EndSplineSet
EndChar

StartChar: S
Encoding: 83 83 54
Width: 552
GlyphClass: 2
Flags: W
AnchorPoint: "Anchor-0" 280 726 basechar 0
LayerCount: 2
Fore
SplineSet
278 307 m 0,0,1
 170 336 170 336 113.5 383 c 128,-1,2
 57 430 57 430 57 512 c 0,3,4
 57 602 57 602 114 649.5 c 128,-1,5
 171 697 171 697 276 697 c 0,6,7
 403 697 403 697 494 580 c 1,8,-1
 438 533 l 1,9,10
 367 629 367 629 276 629 c 0,11,12
 199 629 199 629 166 601 c 128,-1,13
 133 573 133 573 133 512 c 0,14,15
 133 489 133 489 140.5 470.5 c 128,-1,16
 148 452 148 452 156.5 441 c 128,-1,17
 165 430 165 430 185 420 c 128,-1,18
 205 410 205 410 216.5 405.5 c 128,-1,19
 228 401 228 401 256 392.5 c 128,-1,20
 284 384 284 384 294 381 c 0,21,22
 396 346 396 346 427 328 c 0,23,24
 514 277 514 277 514 170 c 0,25,26
 514 81 514 81 447 32.5 c 128,-1,27
 380 -16 380 -16 263 -16 c 0,28,29
 197 -16 197 -16 135 22 c 128,-1,30
 73 60 73 60 31 125 c 1,31,-1
 90 167 l 1,32,33
 120 117 120 117 167 85 c 128,-1,34
 214 53 214 53 263 53 c 0,35,36
 353 53 353 53 395.5 81.5 c 128,-1,37
 438 110 438 110 438 170 c 0,38,39
 438 229 438 229 401.5 256.5 c 128,-1,40
 365 284 365 284 278 307 c 0,0,1
EndSplineSet
EndChar

StartChar: T
Encoding: 84 84 55
Width: 502
GlyphClass: 2
Flags: W
AnchorPoint: "Anchor-0" 250 726 basechar 0
LayerCount: 2
Fore
SplineSet
19 620 m 1,0,-1
 19 682 l 1,1,-1
 483 682 l 1,2,-1
 483 620 l 1,3,-1
 288 620 l 1,4,-1
 288 0 l 1,5,-1
 214 0 l 1,6,-1
 214 620 l 1,7,-1
 19 620 l 1,0,-1
EndSplineSet
EndChar

StartChar: U
Encoding: 85 85 56
Width: 635
GlyphClass: 2
Flags: W
AnchorPoint: "Anchor-0" 318 726 basechar 0
LayerCount: 2
Fore
SplineSet
73 283 m 2,0,-1
 73 682 l 1,1,-1
 153 682 l 1,2,-1
 153 283 l 2,3,4
 153 181 153 181 193 117 c 128,-1,5
 233 53 233 53 318 53 c 128,-1,6
 403 53 403 53 443 117 c 128,-1,7
 483 181 483 181 483 283 c 2,8,-1
 483 682 l 1,9,-1
 562 682 l 1,10,-1
 562 283 l 2,11,12
 562 140 562 140 497.5 62 c 128,-1,13
 433 -16 433 -16 318 -16 c 0,14,15
 202 -16 202 -16 137.5 62 c 128,-1,16
 73 140 73 140 73 283 c 2,0,-1
EndSplineSet
EndChar

StartChar: V
Encoding: 86 86 57
Width: 573
GlyphClass: 2
Flags: W
LayerCount: 2
Fore
SplineSet
246 1 m 1,0,-1
 -1 682 l 1,1,-1
 79 682 l 1,2,-1
 286 111 l 1,3,-1
 494 682 l 1,4,-1
 574 682 l 1,5,-1
 326 1 l 1,6,-1
 327 0 l 1,7,-1
 246 0 l 1,8,-1
 246 1 l 1,0,-1
EndSplineSet
EndChar

StartChar: W
Encoding: 87 87 58
Width: 851
GlyphClass: 2
Flags: W
AnchorPoint: "Anchor-0" 427 726 basechar 0
LayerCount: 2
Fore
SplineSet
281 0 m 1,0,-1
 204 0 l 1,1,-1
 22 682 l 1,2,-1
 99 682 l 1,3,-1
 243 144 l 1,4,-1
 387 682 l 1,5,-1
 464 682 l 1,6,-1
 608 145 l 1,7,-1
 752 682 l 1,8,-1
 829 682 l 1,9,-1
 647 0 l 1,10,-1
 569 0 l 1,11,-1
 425 538 l 1,12,-1
 281 0 l 1,0,-1
EndSplineSet
EndChar

StartChar: X
Encoding: 88 88 59
Width: 496
GlyphClass: 2
Flags: W
LayerCount: 2
Fore
SplineSet
290 349 m 1,0,-1
 476 0 l 1,1,-1
 392 0 l 1,2,-1
 248 270 l 1,3,-1
 105 0 l 1,4,-1
 21 0 l 1,5,-1
 206 349 l 1,6,-1
 29 682 l 1,7,-1
 113 682 l 1,8,-1
 248 427 l 1,9,-1
 384 682 l 1,10,-1
 468 682 l 1,11,-1
 290 349 l 1,0,-1
EndSplineSet
EndChar

StartChar: Y
Encoding: 89 89 60
Width: 473
GlyphClass: 2
Flags: W
AnchorPoint: "Anchor-0" 237 726 basechar 0
LayerCount: 2
Fore
SplineSet
237 432 m 1,0,-1
 387 682 l 1,1,-1
 474 682 l 1,2,-1
 273 347 l 1,3,-1
 273 0 l 1,4,-1
 199 0 l 1,5,-1
 199 350 l 1,6,-1
 0 682 l 1,7,-1
 87 682 l 1,8,-1
 237 432 l 1,0,-1
EndSplineSet
EndChar

StartChar: Z
Encoding: 90 90 61
Width: 503
GlyphClass: 2
Flags: W
AnchorPoint: "Anchor-0" 260 726 basechar 0
LayerCount: 2
Fore
SplineSet
38 620 m 1,0,-1
 38 682 l 1,1,-1
 464 682 l 1,2,-1
 464 607 l 1,3,-1
 123 62 l 1,4,-1
 464 62 l 1,5,-1
 464 0 l 1,6,-1
 38 0 l 1,7,-1
 38 63 l 1,8,-1
 385 620 l 1,9,-1
 38 620 l 1,0,-1
EndSplineSet
EndChar

StartChar: bracketleft
Encoding: 91 91 62
Width: 259
GlyphClass: 2
Flags: W
LayerCount: 2
Fore
SplineSet
67 721 m 1,0,-1
 239 721 l 1,1,-1
 239 682 l 1,2,-1
 142 682 l 1,3,-1
 142 0 l 1,4,-1
 239 0 l 1,5,-1
 239 -39 l 1,6,-1
 67 -39 l 1,7,-1
 67 721 l 1,0,-1
EndSplineSet
EndChar

StartChar: backslash
Encoding: 92 92 63
Width: 377
GlyphClass: 2
Flags: W
LayerCount: 2
Fore
SplineSet
33 682 m 1,0,-1
 95 682 l 1,1,-1
 343 0 l 1,2,-1
 281 0 l 1,3,-1
 33 682 l 1,0,-1
EndSplineSet
EndChar

StartChar: bracketright
Encoding: 93 93 64
Width: 259
GlyphClass: 2
Flags: W
LayerCount: 2
Fore
SplineSet
192 -39 m 1,0,-1
 20 -39 l 1,1,-1
 20 0 l 1,2,-1
 118 0 l 1,3,-1
 118 682 l 1,4,-1
 20 682 l 1,5,-1
 20 721 l 1,6,-1
 192 721 l 1,7,-1
 192 -39 l 1,0,-1
EndSplineSet
EndChar

StartChar: asciicircum
Encoding: 94 94 65
Width: 478
GlyphClass: 2
Flags: W
LayerCount: 2
Fore
SplineSet
229 476 m 1,0,-1
 412 231 l 1,1,-1
 355 190 l 1,2,-1
 228 361 l 1,3,-1
 100 190 l 1,4,-1
 45 231 l 1,5,-1
 229 476 l 1,0,-1
EndSplineSet
EndChar

StartChar: underscore
Encoding: 95 95 66
Width: 458
GlyphClass: 2
Flags: W
LayerCount: 2
Fore
SplineSet
0 -27 m 1,0,-1
 458 -27 l 1,1,-1
 458 -86 l 1,2,-1
 0 -86 l 1,3,-1
 0 -27 l 1,0,-1
EndSplineSet
EndChar

StartChar: grave
Encoding: 96 96 67
Width: 388
GlyphClass: 2
Flags: W
LayerCount: 2
Fore
SplineSet
289 567 m 1,0,-1
 59 684 l 1,1,-1
 93 742 l 1,2,-1
 309 601 l 1,3,-1
 289 567 l 1,0,-1
EndSplineSet
EndChar

StartChar: a
Encoding: 97 97 68
Width: 561
GlyphClass: 2
Flags: W
AnchorPoint: "Anchor-0" 275 567 basechar 0
LayerCount: 2
Fore
SplineSet
34 234 m 128,-1,1
 34 335 34 335 105.5 409.5 c 128,-1,2
 177 484 177 484 266 484 c 0,3,4
 358 484 358 484 430 406 c 1,5,-1
 430 468 l 1,6,-1
 498 468 l 1,7,-1
 498 0 l 1,8,-1
 430 0 l 1,9,-1
 430 61 l 1,10,11
 359 -16 359 -16 268 -16 c 0,12,13
 179 -16 179 -16 106.5 58.5 c 128,-1,0
 34 133 34 133 34 234 c 128,-1,1
102 234 m 128,-1,15
 102 157 102 157 151.5 101.5 c 128,-1,16
 201 46 201 46 266 46 c 128,-1,17
 331 46 331 46 380.5 101.5 c 128,-1,18
 430 157 430 157 430 234 c 128,-1,19
 430 311 430 311 380.5 366.5 c 128,-1,20
 331 422 331 422 266 422 c 128,-1,21
 201 422 201 422 151.5 366.5 c 128,-1,14
 102 311 102 311 102 234 c 128,-1,15
EndSplineSet
EndChar

StartChar: b
Encoding: 98 98 69
Width: 561
GlyphClass: 2
Flags: W
LayerCount: 2
Fore
SplineSet
131 63 m 1,0,-1
 131 0 l 1,1,-1
 63 0 l 1,2,-1
 63 726 l 1,3,-1
 131 726 l 1,4,-1
 131 406 l 1,5,6
 202 484 202 484 295 484 c 0,7,8
 384 484 384 484 455.5 409.5 c 128,-1,9
 527 335 527 335 527 234 c 128,-1,10
 527 133 527 133 456 58.5 c 128,-1,11
 385 -16 385 -16 297 -16 c 0,12,13
 204 -16 204 -16 131 63 c 1,0,-1
131 234 m 128,-1,15
 131 157 131 157 180.5 101.5 c 128,-1,16
 230 46 230 46 295 46 c 128,-1,17
 360 46 360 46 409.5 101.5 c 128,-1,18
 459 157 459 157 459 234 c 128,-1,19
 459 311 459 311 409.5 366.5 c 128,-1,20
 360 422 360 422 295 422 c 128,-1,21
 230 422 230 422 180.5 366.5 c 128,-1,14
 131 311 131 311 131 234 c 128,-1,15
EndSplineSet
EndChar

StartChar: c
Encoding: 99 99 70
Width: 477
GlyphClass: 2
Flags: W
AnchorPoint: "Anchor-0" 268 567 basechar 0
LayerCount: 2
Fore
SplineSet
454 74 m 1,0,1
 418 29 418 29 375.5 6.5 c 128,-1,2
 333 -16 333 -16 268 -16 c 0,3,4
 179 -16 179 -16 106.5 58.5 c 128,-1,5
 34 133 34 133 34 234 c 128,-1,6
 34 335 34 335 105.5 409.5 c 128,-1,7
 177 484 177 484 266 484 c 0,8,9
 315 484 315 484 362 458.5 c 128,-1,10
 409 433 409 433 443 390 c 1,11,-1
 393 351 l 1,12,13
 343 422 343 422 266 422 c 0,14,15
 201 422 201 422 151.5 366.5 c 128,-1,16
 102 311 102 311 102 234 c 128,-1,17
 102 157 102 157 151.5 101.5 c 128,-1,18
 201 46 201 46 266 46 c 0,19,20
 318 46 318 46 346.5 61.5 c 128,-1,21
 375 77 375 77 401 111 c 1,22,-1
 454 74 l 1,0,1
EndSplineSet
EndChar

StartChar: d
Encoding: 100 100 71
Width: 561
GlyphClass: 2
Flags: W
LayerCount: 2
Fore
SplineSet
34 234 m 128,-1,1
 34 335 34 335 105.5 409.5 c 128,-1,2
 177 484 177 484 266 484 c 0,3,4
 358 484 358 484 430 406 c 1,5,-1
 430 726 l 1,6,-1
 498 726 l 1,7,-1
 498 0 l 1,8,-1
 430 0 l 1,9,-1
 430 61 l 1,10,11
 359 -16 359 -16 268 -16 c 0,12,13
 179 -16 179 -16 106.5 58.5 c 128,-1,0
 34 133 34 133 34 234 c 128,-1,1
102 234 m 128,-1,15
 102 157 102 157 151.5 101.5 c 128,-1,16
 201 46 201 46 266 46 c 128,-1,17
 331 46 331 46 380.5 101.5 c 128,-1,18
 430 157 430 157 430 234 c 128,-1,19
 430 311 430 311 380.5 366.5 c 128,-1,20
 331 422 331 422 266 422 c 128,-1,21
 201 422 201 422 151.5 366.5 c 128,-1,14
 102 311 102 311 102 234 c 128,-1,15
EndSplineSet
EndChar

StartChar: e
Encoding: 101 101 72
Width: 526
GlyphClass: 2
Flags: W
AnchorPoint: "Anchor-0" 266 567 basechar 0
LayerCount: 2
Fore
SplineSet
102 234 m 1,0,1
 102 157 102 157 151.5 101.5 c 128,-1,2
 201 46 201 46 266 46 c 0,3,4
 338 46 338 46 370.5 66 c 128,-1,5
 403 86 403 86 429 131 c 1,6,-1
 483 95 l 1,7,8
 446 39 446 39 399 11.5 c 128,-1,9
 352 -16 352 -16 268 -16 c 0,10,11
 179 -16 179 -16 106.5 58.5 c 128,-1,12
 34 133 34 133 34 234 c 128,-1,13
 34 335 34 335 105.5 409.5 c 128,-1,14
 177 484 177 484 266 484 c 128,-1,15
 355 484 355 484 426.5 409.5 c 128,-1,16
 498 335 498 335 498 234 c 1,17,-1
 102 234 l 1,0,1
112 296 m 1,18,-1
 420 296 l 1,19,20
 403 351 403 351 360 386.5 c 128,-1,21
 317 422 317 422 266 422 c 128,-1,22
 215 422 215 422 172 386.5 c 128,-1,23
 129 351 129 351 112 296 c 1,18,-1
EndSplineSet
EndChar

StartChar: f
Encoding: 102 102 73
Width: 276
GlyphClass: 2
Flags: W
LayerCount: 2
Fore
SplineSet
264 680 m 1,0,-1
 236 680 l 2,1,2
 202 680 202 680 179 654.5 c 128,-1,3
 156 629 156 629 156 594 c 2,4,-1
 156 468 l 1,5,-1
 264 468 l 1,6,-1
 264 406 l 1,7,-1
 156 406 l 1,8,-1
 156 0 l 1,9,-1
 88 0 l 1,10,-1
 88 406 l 1,11,-1
 28 406 l 1,12,-1
 28 468 l 1,13,-1
 88 468 l 1,14,-1
 88 594 l 2,15,16
 88 656 88 656 131 699 c 128,-1,17
 174 742 174 742 236 742 c 2,18,-1
 264 742 l 1,19,-1
 264 680 l 1,0,-1
EndSplineSet
EndChar

StartChar: g
Encoding: 103 103 74
Width: 561
GlyphClass: 2
Flags: W
AnchorPoint: "Anchor-0" 266 567 basechar 0
LayerCount: 2
Fore
SplineSet
34 234 m 128,-1,1
 34 335 34 335 105.5 409.5 c 128,-1,2
 177 484 177 484 266 484 c 0,3,4
 358 484 358 484 430 406 c 1,5,-1
 430 468 l 1,6,-1
 498 468 l 1,7,-1
 498 18 l 2,8,9
 498 -91 498 -91 441.5 -145.5 c 128,-1,10
 385 -200 385 -200 292 -200 c 2,11,-1
 138 -200 l 1,12,-1
 138 -138 l 1,13,-1
 292 -138 l 2,14,15
 358 -138 358 -138 394 -98.5 c 128,-1,16
 430 -59 430 -59 430 18 c 2,17,-1
 430 61 l 1,18,19
 359 -16 359 -16 268 -16 c 0,20,21
 179 -16 179 -16 106.5 58.5 c 128,-1,0
 34 133 34 133 34 234 c 128,-1,1
102 234 m 128,-1,23
 102 157 102 157 151.5 101.5 c 128,-1,24
 201 46 201 46 266 46 c 128,-1,25
 331 46 331 46 380.5 101.5 c 128,-1,26
 430 157 430 157 430 234 c 128,-1,27
 430 311 430 311 380.5 366.5 c 128,-1,28
 331 422 331 422 266 422 c 128,-1,29
 201 422 201 422 151.5 366.5 c 128,-1,22
 102 311 102 311 102 234 c 128,-1,23
EndSplineSet
EndChar

StartChar: h
Encoding: 104 104 75
Width: 535
GlyphClass: 2
Flags: W
AnchorPoint: "Anchor-0" 111 765 basechar 0
LayerCount: 2
Fore
SplineSet
477 296 m 2,0,-1
 477 0 l 1,1,-1
 409 0 l 1,2,-1
 409 296 l 2,3,4
 409 349 409 349 371 385.5 c 128,-1,5
 333 422 333 422 270 422 c 128,-1,6
 207 422 207 422 169 368 c 128,-1,7
 131 314 131 314 131 234 c 2,8,-1
 131 0 l 1,9,-1
 63 0 l 1,10,-1
 63 726 l 1,11,-1
 131 726 l 1,12,-1
 131 425 l 1,13,14
 188 484 188 484 270 484 c 0,15,16
 359 484 359 484 418 433.5 c 128,-1,17
 477 383 477 383 477 296 c 2,0,-1
EndSplineSet
EndChar

StartChar: i
Encoding: 105 105 76
Width: 194
GlyphClass: 2
Flags: W
LayerCount: 2
Fore
SplineSet
43 613 m 128,-1,1
 43 636 43 636 58.5 651.5 c 128,-1,2
 74 667 74 667 97 667 c 128,-1,3
 120 667 120 667 135.5 651.5 c 128,-1,4
 151 636 151 636 151 613 c 128,-1,5
 151 590 151 590 135.5 574.5 c 128,-1,6
 120 559 120 559 97 559 c 128,-1,7
 74 559 74 559 58.5 574.5 c 128,-1,0
 43 590 43 590 43 613 c 128,-1,1
63 0 m 1,8,-1
 63 468 l 1,9,-1
 131 468 l 1,10,-1
 131 0 l 1,11,-1
 63 0 l 1,8,-1
EndSplineSet
EndChar

StartChar: j
Encoding: 106 106 77
Width: 194
GlyphClass: 2
Flags: W
LayerCount: 2
Fore
SplineSet
43 613 m 128,-1,1
 43 636 43 636 58.5 651.5 c 128,-1,2
 74 667 74 667 97 667 c 128,-1,3
 120 667 120 667 135.5 651.5 c 128,-1,4
 151 636 151 636 151 613 c 128,-1,5
 151 590 151 590 135.5 574.5 c 128,-1,6
 120 559 120 559 97 559 c 128,-1,7
 74 559 74 559 58.5 574.5 c 128,-1,0
 43 590 43 590 43 613 c 128,-1,1
-45 -138 m 1,8,-1
 -17 -138 l 2,9,10
 17 -138 17 -138 40 -112.5 c 128,-1,11
 63 -87 63 -87 63 -52 c 2,12,-1
 63 468 l 1,13,-1
 131 468 l 1,14,-1
 131 -52 l 2,15,16
 131 -114 131 -114 87.5 -157 c 128,-1,17
 44 -200 44 -200 -17 -200 c 2,18,-1
 -45 -200 l 1,19,-1
 -45 -138 l 1,8,-1
EndSplineSet
EndChar

StartChar: k
Encoding: 107 107 78
Width: 436
GlyphClass: 2
Flags: W
LayerCount: 2
Fore
SplineSet
63 0 m 1,0,-1
 63 726 l 1,1,-1
 131 726 l 1,2,-1
 131 282 l 1,3,-1
 316 468 l 1,4,-1
 414 468 l 1,5,-1
 234 288 l 1,6,-1
 428 0 l 1,7,-1
 345 0 l 1,8,-1
 185 239 l 1,9,-1
 131 186 l 1,10,-1
 131 0 l 1,11,-1
 63 0 l 1,0,-1
EndSplineSet
EndChar

StartChar: l
Encoding: 108 108 79
Width: 204
GlyphClass: 2
Flags: W
AnchorPoint: "Anchor-0" 103 765 basechar 0
LayerCount: 2
Fore
SplineSet
68 0 m 1,0,-1
 68 726 l 1,1,-1
 136 726 l 1,2,-1
 136 0 l 1,3,-1
 68 0 l 1,0,-1
EndSplineSet
EndChar

StartChar: m
Encoding: 109 109 80
Width: 770
GlyphClass: 2
Flags: W
LayerCount: 2
Fore
SplineSet
711 296 m 2,0,-1
 711 0 l 1,1,-1
 644 0 l 1,2,-1
 644 296 l 2,3,4
 644 348 644 348 612.5 385 c 128,-1,5
 581 422 581 422 531 422 c 128,-1,6
 481 422 481 422 451 368 c 128,-1,7
 421 314 421 314 421 234 c 2,8,-1
 421 0 l 1,9,-1
 354 0 l 1,10,-1
 354 296 l 2,11,12
 354 348 354 348 322.5 385 c 128,-1,13
 291 422 291 422 241 422 c 128,-1,14
 191 422 191 422 161 368 c 128,-1,15
 131 314 131 314 131 234 c 2,16,-1
 131 0 l 1,17,-1
 63 0 l 1,18,-1
 63 468 l 1,19,-1
 131 468 l 1,20,-1
 131 433 l 1,21,22
 179 484 179 484 241 484 c 0,23,24
 288 484 288 484 329.5 461.5 c 128,-1,25
 371 439 371 439 395 398 c 1,26,27
 447 484 447 484 531 484 c 0,28,29
 604 484 604 484 657.5 433 c 128,-1,30
 711 382 711 382 711 296 c 2,0,-1
EndSplineSet
EndChar

StartChar: n
Encoding: 110 110 81
Width: 535
GlyphClass: 2
Flags: W
AnchorPoint: "Anchor-0" 274 567 basechar 0
LayerCount: 2
Fore
SplineSet
477 296 m 2,0,-1
 477 0 l 1,1,-1
 409 0 l 1,2,-1
 409 296 l 2,3,4
 409 349 409 349 371 385.5 c 128,-1,5
 333 422 333 422 270 422 c 128,-1,6
 207 422 207 422 169 368 c 128,-1,7
 131 314 131 314 131 234 c 2,8,-1
 131 0 l 1,9,-1
 63 0 l 1,10,-1
 63 468 l 1,11,-1
 131 468 l 1,12,-1
 131 426 l 1,13,14
 187 484 187 484 270 484 c 0,15,16
 359 484 359 484 418 433.5 c 128,-1,17
 477 383 477 383 477 296 c 2,0,-1
EndSplineSet
EndChar

StartChar: o
Encoding: 111 111 82
Width: 532
GlyphClass: 2
Flags: W
AnchorPoint: "Anchor-0" 266 567 basechar 0
LayerCount: 2
Fore
SplineSet
102 234 m 128,-1,1
 102 157 102 157 151.5 101.5 c 128,-1,2
 201 46 201 46 266 46 c 128,-1,3
 331 46 331 46 380.5 101.5 c 128,-1,4
 430 157 430 157 430 234 c 128,-1,5
 430 311 430 311 380.5 366.5 c 128,-1,6
 331 422 331 422 266 422 c 128,-1,7
 201 422 201 422 151.5 366.5 c 128,-1,0
 102 311 102 311 102 234 c 128,-1,1
34 234 m 128,-1,9
 34 335 34 335 105.5 409.5 c 128,-1,10
 177 484 177 484 266 484 c 128,-1,11
 355 484 355 484 426.5 409.5 c 128,-1,12
 498 335 498 335 498 234 c 128,-1,13
 498 133 498 133 427 58.5 c 128,-1,14
 356 -16 356 -16 268 -16 c 0,15,16
 179 -16 179 -16 106.5 58.5 c 128,-1,8
 34 133 34 133 34 234 c 128,-1,9
EndSplineSet
EndChar

StartChar: p
Encoding: 112 112 83
Width: 561
GlyphClass: 2
Flags: W
LayerCount: 2
Fore
SplineSet
131 63 m 1,0,-1
 131 -199 l 1,1,-1
 63 -199 l 1,2,-1
 63 468 l 1,3,-1
 131 468 l 1,4,-1
 131 406 l 1,5,6
 202 484 202 484 295 484 c 0,7,8
 384 484 384 484 455.5 409.5 c 128,-1,9
 527 335 527 335 527 234 c 128,-1,10
 527 133 527 133 456 58.5 c 128,-1,11
 385 -16 385 -16 297 -16 c 0,12,13
 204 -16 204 -16 131 63 c 1,0,-1
131 234 m 128,-1,15
 131 157 131 157 180.5 101.5 c 128,-1,16
 230 46 230 46 295 46 c 128,-1,17
 360 46 360 46 409.5 101.5 c 128,-1,18
 459 157 459 157 459 234 c 128,-1,19
 459 311 459 311 409.5 366.5 c 128,-1,20
 360 422 360 422 295 422 c 128,-1,21
 230 422 230 422 180.5 366.5 c 128,-1,14
 131 311 131 311 131 234 c 128,-1,15
EndSplineSet
EndChar

StartChar: q
Encoding: 113 113 84
Width: 561
GlyphClass: 2
Flags: W
LayerCount: 2
Fore
SplineSet
34 234 m 128,-1,1
 34 335 34 335 105.5 409.5 c 128,-1,2
 177 484 177 484 266 484 c 0,3,4
 358 484 358 484 430 406 c 1,5,-1
 430 468 l 1,6,-1
 498 468 l 1,7,-1
 498 -200 l 1,8,-1
 430 -200 l 1,9,-1
 430 61 l 1,10,11
 359 -16 359 -16 268 -16 c 0,12,13
 179 -16 179 -16 106.5 58.5 c 128,-1,0
 34 133 34 133 34 234 c 128,-1,1
102 234 m 128,-1,15
 102 157 102 157 151.5 101.5 c 128,-1,16
 201 46 201 46 266 46 c 128,-1,17
 331 46 331 46 380.5 101.5 c 128,-1,18
 430 157 430 157 430 234 c 128,-1,19
 430 311 430 311 380.5 366.5 c 128,-1,20
 331 422 331 422 266 422 c 128,-1,21
 201 422 201 422 151.5 366.5 c 128,-1,14
 102 311 102 311 102 234 c 128,-1,15
EndSplineSet
EndChar

StartChar: r
Encoding: 114 114 85
Width: 435
GlyphClass: 2
Flags: W
AnchorPoint: "Anchor-0" 245 567 basechar 0
LayerCount: 2
Fore
SplineSet
375 344 m 1,0,1
 343 422 343 422 260 422 c 0,2,3
 198 422 198 422 164.5 369 c 128,-1,4
 131 316 131 316 131 234 c 2,5,-1
 131 0 l 1,6,-1
 63 0 l 1,7,-1
 63 468 l 1,8,-1
 131 468 l 1,9,-1
 131 431 l 1,10,11
 184 484 184 484 260 484 c 0,12,13
 391 484 391 484 437 374 c 1,14,-1
 375 344 l 1,0,1
EndSplineSet
EndChar

StartChar: s
Encoding: 115 115 86
Width: 464
GlyphClass: 2
Flags: W
AnchorPoint: "Anchor-0" 240 567 basechar 0
LayerCount: 2
Fore
SplineSet
240 201 m 0,0,1
 237 202 237 202 218.5 205.5 c 128,-1,2
 200 209 200 209 193 210.5 c 128,-1,3
 186 212 186 212 167.5 216.5 c 128,-1,4
 149 221 149 221 140.5 224.5 c 128,-1,5
 132 228 132 228 116.5 234.5 c 128,-1,6
 101 241 101 241 93 247.5 c 128,-1,7
 85 254 85 254 74 263.5 c 128,-1,8
 63 273 63 273 57.5 283.5 c 128,-1,9
 52 294 52 294 48 307.5 c 128,-1,10
 44 321 44 321 44 337 c 0,11,12
 44 405 44 405 99 444.5 c 128,-1,13
 154 484 154 484 242 484 c 0,14,15
 372 484 372 484 418 374 c 1,16,-1
 357 344 l 1,17,18
 325 422 325 422 242 422 c 0,19,20
 179 422 179 422 146 399 c 128,-1,21
 113 376 113 376 113 337 c 0,22,23
 113 326 113 326 117 317.5 c 128,-1,24
 121 309 121 309 130 302.5 c 128,-1,25
 139 296 139 296 146.5 292 c 128,-1,26
 154 288 154 288 170 284 c 128,-1,27
 186 280 186 280 194 278.5 c 128,-1,28
 202 277 202 277 221 274 c 128,-1,29
 240 271 240 271 246 270 c 0,30,31
 284 263 284 263 310.5 255.5 c 128,-1,32
 337 248 337 248 368.5 233 c 128,-1,33
 400 218 400 218 416.5 192.5 c 128,-1,34
 433 167 433 167 433 132 c 0,35,36
 433 64 433 64 372 24 c 128,-1,37
 311 -16 311 -16 221 -16 c 0,38,39
 155 -16 155 -16 103.5 13 c 128,-1,40
 52 42 52 42 30 95 c 1,41,-1
 91 125 l 1,42,43
 106 90 106 90 140 68.5 c 128,-1,44
 174 47 174 47 221 47 c 0,45,46
 285 47 285 47 325 71.5 c 128,-1,47
 365 96 365 96 365 132 c 0,48,49
 365 143 365 143 361 152 c 128,-1,50
 357 161 357 161 348.5 167.5 c 128,-1,51
 340 174 340 174 332.5 178.5 c 128,-1,52
 325 183 325 183 310.5 186.5 c 128,-1,53
 296 190 296 190 288 192 c 128,-1,54
 280 194 280 194 263 197 c 128,-1,55
 246 200 246 200 240 201 c 0,0,1
EndSplineSet
EndChar

StartChar: t
Encoding: 116 116 87
Width: 276
GlyphClass: 2
Flags: W
LayerCount: 2
Fore
SplineSet
28 406 m 1,0,-1
 28 468 l 1,1,-1
 88 468 l 1,2,-1
 88 623 l 1,3,-1
 156 623 l 1,4,-1
 156 468 l 1,5,-1
 264 468 l 1,6,-1
 264 406 l 1,7,-1
 156 406 l 1,8,-1
 156 0 l 1,9,-1
 88 0 l 1,10,-1
 88 406 l 1,11,-1
 28 406 l 1,0,-1
EndSplineSet
EndChar

StartChar: u
Encoding: 117 117 88
Width: 535
GlyphClass: 2
Flags: W
AnchorPoint: "Anchor-0" 264 567 basechar 0
LayerCount: 2
Fore
SplineSet
58 172 m 2,0,-1
 58 468 l 1,1,-1
 125 468 l 1,2,-1
 125 172 l 2,3,4
 125 119 125 119 163.5 82.5 c 128,-1,5
 202 46 202 46 265 46 c 128,-1,6
 328 46 328 46 365.5 99.5 c 128,-1,7
 403 153 403 153 403 233 c 2,8,-1
 403 468 l 1,9,-1
 472 468 l 1,10,-1
 472 0 l 1,11,-1
 403 0 l 1,12,-1
 403 41 l 1,13,14
 345 -17 345 -17 265 -17 c 0,15,16
 176 -17 176 -17 117 34 c 128,-1,17
 58 85 58 85 58 172 c 2,0,-1
EndSplineSet
EndChar

StartChar: v
Encoding: 118 118 89
Width: 456
GlyphClass: 2
Flags: W
LayerCount: 2
Fore
SplineSet
190 0 m 1,0,-1
 1 468 l 1,1,-1
 75 468 l 1,2,-1
 228 88 l 1,3,-1
 381 468 l 1,4,-1
 455 468 l 1,5,-1
 265 0 l 1,6,-1
 190 0 l 1,0,-1
EndSplineSet
EndChar

StartChar: w
Encoding: 119 119 90
Width: 719
GlyphClass: 2
Flags: W
AnchorPoint: "Anchor-0" 360 567 basechar 0
LayerCount: 2
Fore
SplineSet
168 0 m 1,0,-1
 16 468 l 1,1,-1
 88 468 l 1,2,-1
 206 102 l 1,3,-1
 324 468 l 1,4,-1
 394 468 l 1,5,-1
 512 103 l 1,6,-1
 631 468 l 1,7,-1
 703 468 l 1,8,-1
 551 0 l 1,9,-1
 475 0 l 1,10,-1
 359 354 l 1,11,-1
 244 0 l 1,12,-1
 168 0 l 1,0,-1
EndSplineSet
EndChar

StartChar: x
Encoding: 120 120 91
Width: 415
GlyphClass: 2
Flags: W
LayerCount: 2
Fore
SplineSet
167 244 m 1,0,-1
 27 468 l 1,1,-1
 107 468 l 1,2,-1
 207 308 l 1,3,-1
 307 468 l 1,4,-1
 388 468 l 1,5,-1
 248 244 l 1,6,-1
 400 0 l 1,7,-1
 319 0 l 1,8,-1
 207 179 l 1,9,-1
 95 0 l 1,10,-1
 15 0 l 1,11,-1
 167 244 l 1,0,-1
EndSplineSet
EndChar

StartChar: y
Encoding: 121 121 92
Width: 456
GlyphClass: 2
Flags: W
AnchorPoint: "Anchor-0" 226 567 basechar 0
LayerCount: 2
Fore
SplineSet
228 88 m 1,0,-1
 381 468 l 1,1,-1
 455 468 l 1,2,-1
 184 -200 l 1,3,-1
 111 -200 l 1,4,-1
 191 -1 l 1,5,-1
 1 468 l 1,6,-1
 75 468 l 1,7,-1
 228 88 l 1,0,-1
EndSplineSet
EndChar

StartChar: z
Encoding: 122 122 93
Width: 420
GlyphClass: 2
Flags: W
AnchorPoint: "Anchor-0" 220 567 basechar 0
LayerCount: 2
Fore
SplineSet
37 406 m 1,0,-1
 37 468 l 1,1,-1
 383 468 l 1,2,-1
 383 406 l 1,3,-1
 119 62 l 1,4,-1
 383 62 l 1,5,-1
 383 0 l 1,6,-1
 37 0 l 1,7,-1
 37 62 l 1,8,-1
 301 406 l 1,9,-1
 37 406 l 1,0,-1
EndSplineSet
EndChar

StartChar: braceleft
Encoding: 123 123 94
Width: 248
GlyphClass: 2
Flags: W
LayerCount: 2
Fore
SplineSet
164 202 m 0,0,1
 164 168 164 168 155.5 115.5 c 128,-1,2
 147 63 147 63 147 46 c 0,3,4
 147 12 147 12 168 -9 c 128,-1,5
 189 -30 189 -30 213 -35 c 1,6,-1
 213 -81 l 1,7,8
 159 -73 159 -73 117 -42.5 c 128,-1,9
 75 -12 75 -12 75 47 c 0,10,11
 75 81 75 81 83.5 133.5 c 128,-1,12
 92 186 92 186 92 203 c 0,13,14
 92 230 92 230 70 255.5 c 128,-1,15
 48 281 48 281 27 285 c 1,16,-1
 27 331 l 1,17,18
 49 335 49 335 74 360.5 c 128,-1,19
 99 386 99 386 99 413 c 0,20,21
 99 430 99 430 87 482.5 c 128,-1,22
 75 535 75 535 75 569 c 0,23,24
 75 628 75 628 116.5 658.5 c 128,-1,25
 158 689 158 689 212 697 c 1,26,-1
 213 651 l 1,27,28
 190 646 190 646 169 625 c 128,-1,29
 148 604 148 604 148 570 c 0,30,31
 148 553 148 553 156.5 500.5 c 128,-1,32
 165 448 165 448 165 414 c 0,33,34
 165 344 165 344 106 308 c 1,35,36
 164 273 164 273 164 202 c 0,0,1
EndSplineSet
EndChar

StartChar: bar
Encoding: 124 124 95
Width: 173
GlyphClass: 2
Flags: W
LayerCount: 2
Fore
SplineSet
66 -68 m 1,0,-1
 66 750 l 1,1,-1
 107 750 l 1,2,-1
 107 -68 l 1,3,-1
 66 -68 l 1,0,-1
EndSplineSet
EndChar

StartChar: braceright
Encoding: 125 125 96
Width: 248
GlyphClass: 2
Flags: W
LayerCount: 2
Fore
SplineSet
84 414 m 0,0,1
 84 448 84 448 92.5 500.5 c 128,-1,2
 101 553 101 553 101 570 c 0,3,4
 101 604 101 604 80 625 c 128,-1,5
 59 646 59 646 35 651 c 1,6,-1
 35 697 l 1,7,8
 89 689 89 689 131 658.5 c 128,-1,9
 173 628 173 628 173 569 c 0,10,11
 173 535 173 535 164.5 482.5 c 128,-1,12
 156 430 156 430 156 413 c 0,13,14
 156 386 156 386 178 360.5 c 128,-1,15
 200 335 200 335 221 331 c 1,16,-1
 221 285 l 1,17,18
 199 281 199 281 174 255.5 c 128,-1,19
 149 230 149 230 149 203 c 0,20,21
 149 186 149 186 161 133.5 c 128,-1,22
 173 81 173 81 173 47 c 0,23,24
 173 -12 173 -12 131.5 -42.5 c 128,-1,25
 90 -73 90 -73 36 -81 c 1,26,-1
 35 -35 l 1,27,28
 58 -30 58 -30 79 -9 c 128,-1,29
 100 12 100 12 100 46 c 0,30,31
 100 63 100 63 91.5 115.5 c 128,-1,32
 83 168 83 168 83 202 c 0,33,34
 83 272 83 272 142 308 c 1,35,36
 84 343 84 343 84 414 c 0,0,1
EndSplineSet
EndChar

StartChar: asciitilde
Encoding: 126 126 97
Width: 505
GlyphClass: 2
Flags: W
LayerCount: 2
Fore
SplineSet
334 321 m 0,0,1
 362 321 362 321 387 342.5 c 128,-1,2
 412 364 412 364 416 385 c 1,3,-1
 462 385 l 1,4,5
 457 340 457 340 417 297.5 c 128,-1,6
 377 255 377 255 334 255 c 0,7,8
 301 255 301 255 248.5 286.5 c 128,-1,9
 196 318 196 318 180 318 c 0,10,11
 152 318 152 318 126.5 297 c 128,-1,12
 101 276 101 276 97 255 c 1,13,-1
 52 255 l 1,14,15
 57 300 57 300 97 342.5 c 128,-1,16
 137 385 137 385 180 385 c 0,17,18
 213 385 213 385 265.5 353 c 128,-1,19
 318 321 318 321 334 321 c 0,0,1
EndSplineSet
EndChar

StartChar: exclamdown
Encoding: 161 161 99
Width: 231
GlyphClass: 2
Flags: W
LayerCount: 2
Fore
SplineSet
168 529 m 128,-1,1
 168 506 168 506 153 491 c 128,-1,2
 138 476 138 476 115 476 c 128,-1,3
 92 476 92 476 76 491.5 c 128,-1,4
 60 507 60 507 60 529 c 0,5,6
 60 552 60 552 76 568 c 128,-1,7
 92 584 92 584 115 584 c 0,8,9
 137 584 137 584 152.5 568 c 128,-1,0
 168 552 168 552 168 529 c 128,-1,1
150 410 m 1,10,-1
 150 -105 l 1,11,-1
 82 -105 l 1,12,-1
 82 410 l 1,13,-1
 150 410 l 1,10,-1
EndSplineSet
EndChar

StartChar: cent
Encoding: 162 162 100
Width: 489
GlyphClass: 2
Flags: W
LayerCount: 2
Fore
SplineSet
235 682 m 1,0,-1
 276 682 l 1,1,-1
 276 583 l 1,2,3
 322 580 322 580 366 554.5 c 128,-1,4
 410 529 410 529 442 488 c 1,5,-1
 392 449 l 1,6,7
 345 515 345 515 276 521 c 1,8,-1
 276 145 l 1,9,10
 323 146 323 146 349 162 c 128,-1,11
 375 178 375 178 400 210 c 1,12,-1
 453 173 l 1,13,14
 418 129 418 129 377.5 106.5 c 128,-1,15
 337 84 337 84 276 83 c 1,16,-1
 276 0 l 1,17,-1
 235 0 l 1,18,-1
 235 86 l 1,19,20
 154 100 154 100 93.5 171 c 128,-1,21
 33 242 33 242 33 333 c 0,22,23
 33 425 33 425 93.5 496.5 c 128,-1,24
 154 568 154 568 235 581 c 1,25,-1
 235 682 l 1,0,-1
235 148 m 1,26,-1
 235 518 l 1,27,28
 179 505 179 505 140 453 c 128,-1,29
 101 401 101 401 101 333 c 128,-1,30
 101 265 101 265 140 213 c 128,-1,31
 179 161 179 161 235 148 c 1,26,-1
EndSplineSet
EndChar

StartChar: sterling
Encoding: 163 163 101
Width: 470
GlyphClass: 2
Flags: W
LayerCount: 2
Fore
SplineSet
416 551 m 1,0,-1
 342 551 l 1,1,2
 342 588 342 588 311.5 612 c 128,-1,3
 281 636 281 636 242 636 c 128,-1,4
 203 636 203 636 172.5 612.5 c 128,-1,5
 142 589 142 589 142 551 c 0,6,7
 142 526 142 526 170 468 c 128,-1,8
 198 410 198 410 206 379 c 1,9,-1
 293 379 l 1,10,-1
 293 324 l 1,11,-1
 213 324 l 1,12,13
 213 260 213 260 191.5 194.5 c 128,-1,14
 170 129 170 129 149 96 c 2,15,-1
 128 62 l 1,16,-1
 435 62 l 1,17,-1
 435 0 l 1,18,-1
 53 0 l 1,19,-1
 53 62 l 1,20,21
 56 66 56 66 62 74 c 128,-1,22
 68 82 68 82 83 109 c 128,-1,23
 98 136 98 136 109 164.5 c 128,-1,24
 120 193 120 193 129.5 236.5 c 128,-1,25
 139 280 139 280 139 324 c 1,26,-1
 60 324 l 1,27,-1
 60 379 l 1,28,-1
 127 379 l 1,29,30
 121 396 121 396 104 433.5 c 128,-1,31
 87 471 87 471 77.5 499.5 c 128,-1,32
 68 528 68 528 68 551 c 0,33,34
 68 629 68 629 116.5 663 c 128,-1,35
 165 697 165 697 242 697 c 0,36,37
 312 697 312 697 364 654 c 128,-1,38
 416 611 416 611 416 551 c 1,0,-1
EndSplineSet
EndChar

StartChar: currency
Encoding: 164 164 102
Width: 511
GlyphClass: 2
Flags: W
LayerCount: 2
Fore
SplineSet
137 295 m 128,-1,1
 137 246 137 246 172.5 210.5 c 128,-1,2
 208 175 208 175 257 175 c 128,-1,3
 306 175 306 175 341.5 210.5 c 128,-1,4
 377 246 377 246 377 295 c 128,-1,5
 377 344 377 344 341.5 379.5 c 128,-1,6
 306 415 306 415 257 415 c 128,-1,7
 208 415 208 415 172.5 379.5 c 128,-1,0
 137 344 137 344 137 295 c 128,-1,1
363 148 m 1,8,9
 317 114 317 114 257 114 c 0,10,11
 195 114 195 114 148 150 c 1,12,-1
 89 91 l 1,13,-1
 51 129 l 1,14,-1
 110 189 l 1,15,16
 76 235 76 235 76 295 c 128,-1,17
 76 355 76 355 110 401 c 1,18,-1
 51 461 l 1,19,-1
 89 499 l 1,20,-1
 149 440 l 1,21,22
 196 476 196 476 257 476 c 0,23,24
 317 476 317 476 363 442 c 1,25,-1
 421 499 l 1,26,-1
 459 461 l 1,27,-1
 402 403 l 1,28,29
 437 355 437 355 437 295 c 128,-1,30
 437 235 437 235 402 187 c 1,31,-1
 459 129 l 1,32,-1
 421 91 l 1,33,-1
 363 148 l 1,8,9
EndSplineSet
EndChar

StartChar: yen
Encoding: 165 165 103
Width: 524
GlyphClass: 2
Flags: W
LayerCount: 2
Fore
SplineSet
262 432 m 1,0,-1
 412 682 l 1,1,-1
 499 682 l 1,2,-1
 298 347 l 1,3,-1
 298 318 l 1,4,-1
 386 318 l 1,5,-1
 386 270 l 1,6,-1
 298 270 l 1,7,-1
 298 221 l 1,8,-1
 386 221 l 1,9,-1
 386 172 l 1,10,-1
 298 172 l 1,11,-1
 298 0 l 1,12,-1
 224 0 l 1,13,-1
 224 172 l 1,14,-1
 136 172 l 1,15,-1
 136 221 l 1,16,-1
 224 221 l 1,17,-1
 224 270 l 1,18,-1
 136 270 l 1,19,-1
 136 318 l 1,20,-1
 224 318 l 1,21,-1
 224 350 l 1,22,-1
 25 682 l 1,23,-1
 112 682 l 1,24,-1
 262 432 l 1,0,-1
EndSplineSet
EndChar

StartChar: brokenbar
Encoding: 166 166 104
Width: 179
GlyphClass: 2
Flags: W
LayerCount: 2
Fore
SplineSet
69 389 m 1,0,-1
 69 750 l 1,1,-1
 110 750 l 1,2,-1
 110 389 l 1,3,-1
 69 389 l 1,0,-1
69 -68 m 1,4,-1
 69 293 l 1,5,-1
 110 293 l 1,6,-1
 110 -68 l 1,7,-1
 69 -68 l 1,4,-1
EndSplineSet
EndChar

StartChar: section
Encoding: 167 167 105
Width: 492
GlyphClass: 2
Flags: W
LayerCount: 2
Fore
SplineSet
388 160 m 1,0,1
 417 128 417 128 417 75 c 0,2,3
 417 7 417 7 367.5 -35.5 c 128,-1,4
 318 -78 318 -78 236 -78 c 0,5,6
 140 -78 140 -78 87 4 c 1,7,-1
 142 44 l 1,8,9
 158 18 158 18 190 1.5 c 128,-1,10
 222 -15 222 -15 251 -15 c 0,11,12
 294 -15 294 -15 321 11.5 c 128,-1,13
 348 38 348 38 348 72 c 0,14,15
 348 91 348 91 340.5 105 c 128,-1,16
 333 119 333 119 317.5 127.5 c 128,-1,17
 302 136 302 136 287.5 141 c 128,-1,18
 273 146 273 146 250.5 152.5 c 128,-1,19
 228 159 228 159 215 164 c 0,20,21
 206 168 206 168 179 178.5 c 128,-1,22
 152 189 152 189 141.5 194.5 c 128,-1,23
 131 200 131 200 109.5 211 c 128,-1,24
 88 222 88 222 78.5 232.5 c 128,-1,25
 69 243 69 243 56.5 258.5 c 128,-1,26
 44 274 44 274 39.5 293.5 c 128,-1,27
 35 313 35 313 35 337 c 0,28,29
 35 381 35 381 50 406.5 c 128,-1,30
 65 432 65 432 105 459 c 1,31,32
 76 491 76 491 76 544 c 0,33,34
 76 613 76 613 125.5 655 c 128,-1,35
 175 697 175 697 256 697 c 0,36,37
 353 697 353 697 406 615 c 1,38,-1
 350 575 l 1,39,40
 334 602 334 602 302.5 618 c 128,-1,41
 271 634 271 634 242 634 c 0,42,43
 199 634 199 634 171.5 607.5 c 128,-1,44
 144 581 144 581 144 547 c 0,45,46
 144 528 144 528 151.5 514 c 128,-1,47
 159 500 159 500 174.5 491.5 c 128,-1,48
 190 483 190 483 204.5 478 c 128,-1,49
 219 473 219 473 241.5 466.5 c 128,-1,50
 264 460 264 460 277 455 c 0,51,52
 286 451 286 451 313 440.5 c 128,-1,53
 340 430 340 430 351 424.5 c 128,-1,54
 362 419 362 419 383.5 408 c 128,-1,55
 405 397 405 397 414.5 386.5 c 128,-1,56
 424 376 424 376 436 360.5 c 128,-1,57
 448 345 448 345 453 325.5 c 128,-1,58
 458 306 458 306 458 282 c 0,59,60
 458 238 458 238 443 212.5 c 128,-1,61
 428 187 428 187 388 160 c 1,0,1
160 420 m 1,62,63
 126 398 126 398 114.5 380.5 c 128,-1,64
 103 363 103 363 103 337 c 0,65,66
 103 318 103 318 110.5 302.5 c 128,-1,67
 118 287 118 287 127.5 278 c 128,-1,68
 137 269 137 269 156.5 259 c 128,-1,69
 176 249 176 249 187 245 c 128,-1,70
 198 241 198 241 222 233 c 0,71,72
 226 232 226 232 268 220.5 c 128,-1,73
 310 209 310 209 332 199 c 1,74,75
 367 221 367 221 378 238 c 128,-1,76
 389 255 389 255 389 282 c 0,77,78
 389 301 389 301 381.5 316.5 c 128,-1,79
 374 332 374 332 364.5 341 c 128,-1,80
 355 350 355 350 335.5 360 c 128,-1,81
 316 370 316 370 305 374 c 128,-1,82
 294 378 294 378 270 386 c 0,83,84
 267 387 267 387 224.5 398.5 c 128,-1,85
 182 410 182 410 160 420 c 1,62,63
EndSplineSet
EndChar

StartChar: dieresis
Encoding: 168 168 106
Width: 442
GlyphClass: 2
Flags: W
LayerCount: 2
Fore
SplineSet
253 613 m 128,-1,1
 253 636 253 636 268.5 651.5 c 128,-1,2
 284 667 284 667 307 667 c 128,-1,3
 330 667 330 667 346 651 c 128,-1,4
 362 635 362 635 362 613 c 128,-1,5
 362 591 362 591 346 575 c 128,-1,6
 330 559 330 559 307 559 c 128,-1,7
 284 559 284 559 268.5 574.5 c 128,-1,0
 253 590 253 590 253 613 c 128,-1,1
58 613 m 128,-1,9
 58 636 58 636 74 651.5 c 128,-1,10
 90 667 90 667 112 667 c 0,11,12
 135 667 135 667 151 651 c 128,-1,13
 167 635 167 635 167 613 c 128,-1,14
 167 591 167 591 151 575 c 128,-1,15
 135 559 135 559 112 559 c 0,16,17
 90 559 90 559 74 574.5 c 128,-1,8
 58 590 58 590 58 613 c 128,-1,9
EndSplineSet
EndChar

StartChar: copyright
Encoding: 169 169 107
Width: 703
GlyphClass: 2
Flags: W
LayerCount: 2
Fore
SplineSet
487 178 m 1,0,1
 438 112 438 112 356 112 c 0,2,3
 294 112 294 112 245 163 c 128,-1,4
 196 214 196 214 196 283 c 0,5,6
 196 354 196 354 245 404 c 128,-1,7
 294 454 294 454 355 454 c 0,8,9
 429 454 429 454 480 386 c 1,10,-1
 438 354 l 1,11,-1
 435 357 l 1,12,13
 402 403 402 403 355 403 c 0,14,15
 313 403 313 403 282 367 c 128,-1,16
 251 331 251 331 251 283 c 0,17,18
 251 233 251 233 282.5 197.5 c 128,-1,19
 314 162 314 162 355 162 c 0,20,21
 391 162 391 162 408.5 173 c 128,-1,22
 426 184 426 184 444 208 c 1,23,-1
 487 178 l 1,0,1
45 286 m 0,24,25
 45 414 45 414 135 503.5 c 128,-1,26
 225 593 225 593 351 593 c 0,27,28
 479 593 479 593 568.5 502.5 c 128,-1,29
 658 412 658 412 658 286 c 0,30,31
 658 158 658 158 567.5 68.5 c 128,-1,32
 477 -21 477 -21 351 -21 c 0,33,34
 224 -21 224 -21 134.5 69.5 c 128,-1,35
 45 160 45 160 45 286 c 0,24,25
91 286 m 0,36,37
 91 177 91 177 167.5 101.5 c 128,-1,38
 244 26 244 26 351 26 c 0,39,40
 460 26 460 26 535.5 102.5 c 128,-1,41
 611 179 611 179 611 286 c 0,42,43
 611 395 611 395 534.5 470.5 c 128,-1,44
 458 546 458 546 351 546 c 0,45,46
 242 546 242 546 166.5 469.5 c 128,-1,47
 91 393 91 393 91 286 c 0,36,37
EndSplineSet
EndChar

StartChar: ordfeminine
Encoding: 170 170 108
Width: 413
GlyphClass: 2
Flags: W
LayerCount: 2
Fore
SplineSet
348 285 m 1,0,-1
 60 285 l 1,1,-1
 60 336 l 1,2,-1
 348 336 l 1,3,-1
 348 285 l 1,0,-1
202 649 m 0,4,5
 164 649 164 649 137 616 c 128,-1,6
 110 583 110 583 110 541 c 128,-1,7
 110 499 110 499 138 466.5 c 128,-1,8
 166 434 166 434 204 434 c 128,-1,9
 242 434 242 434 269.5 467.5 c 128,-1,10
 297 501 297 501 297 543 c 128,-1,11
 297 585 297 585 269 617 c 128,-1,12
 241 649 241 649 202 649 c 0,4,5
60 542 m 128,-1,14
 60 601 60 601 103 648.5 c 128,-1,15
 146 696 146 696 202 696 c 0,16,17
 255 696 255 696 297 657 c 1,18,-1
 297 687 l 1,19,-1
 348 687 l 1,20,-1
 348 396 l 1,21,-1
 297 396 l 1,22,-1
 297 426 l 1,23,24
 255 387 255 387 202 387 c 0,25,26
 146 387 146 387 103 435 c 128,-1,13
 60 483 60 483 60 542 c 128,-1,14
EndSplineSet
EndChar

StartChar: guillemotleft
Encoding: 171 171 109
Width: 567
GlyphClass: 2
Flags: W
LayerCount: 2
Fore
SplineSet
22 238 m 1,0,-1
 265 422 l 1,1,-1
 306 366 l 1,2,-1
 134 238 l 1,3,-1
 306 109 l 1,4,-1
 265 55 l 1,5,-1
 22 238 l 1,0,-1
237 238 m 1,6,-1
 480 422 l 1,7,-1
 521 366 l 1,8,-1
 349 238 l 1,9,-1
 521 109 l 1,10,-1
 480 55 l 1,11,-1
 237 238 l 1,6,-1
EndSplineSet
EndChar

StartChar: logicalnot
Encoding: 172 172 110
Width: 385
GlyphClass: 2
Flags: W
LayerCount: 2
Fore
SplineSet
320 268 m 1,0,-1
 320 118 l 1,1,-1
 265 118 l 1,2,-1
 265 213 l 1,3,-1
 65 213 l 1,4,-1
 65 268 l 1,5,-1
 320 268 l 1,0,-1
EndSplineSet
EndChar

StartChar: uni00AD
Encoding: 173 173 111
Width: 333
GlyphClass: 2
Flags: W
LayerCount: 2
Fore
SplineSet
56 268 m 1,0,-1
 277 268 l 1,1,-1
 277 213 l 1,2,-1
 56 213 l 1,3,-1
 56 268 l 1,0,-1
EndSplineSet
EndChar

StartChar: registered
Encoding: 174 174 112
Width: 703
GlyphClass: 2
Flags: W
LayerCount: 2
Fore
SplineSet
236 117 m 1,0,-1
 236 449 l 1,1,-1
 365 449 l 2,2,3
 407 449 407 449 438.5 421.5 c 128,-1,4
 470 394 470 394 470 350 c 0,5,6
 470 291 470 291 418 263 c 1,7,-1
 505 117 l 1,8,-1
 441 117 l 1,9,-1
 361 250 l 1,10,-1
 291 250 l 1,11,-1
 291 117 l 1,12,-1
 236 117 l 1,0,-1
45 286 m 0,13,14
 45 414 45 414 135 503.5 c 128,-1,15
 225 593 225 593 351 593 c 0,16,17
 479 593 479 593 568.5 502.5 c 128,-1,18
 658 412 658 412 658 286 c 0,19,20
 658 158 658 158 567.5 68.5 c 128,-1,21
 477 -21 477 -21 351 -21 c 0,22,23
 224 -21 224 -21 134.5 69.5 c 128,-1,24
 45 160 45 160 45 286 c 0,13,14
91 286 m 0,25,26
 91 177 91 177 167.5 101.5 c 128,-1,27
 244 26 244 26 351 26 c 0,28,29
 460 26 460 26 535.5 102.5 c 128,-1,30
 611 179 611 179 611 286 c 0,31,32
 611 395 611 395 534.5 470.5 c 128,-1,33
 458 546 458 546 351 546 c 0,34,35
 242 546 242 546 166.5 469.5 c 128,-1,36
 91 393 91 393 91 286 c 0,25,26
291 399 m 1,37,-1
 291 301 l 1,38,-1
 346 301 l 2,39,40
 384 301 384 301 400 315.5 c 128,-1,41
 416 330 416 330 416 350 c 0,42,43
 416 371 416 371 399 385 c 128,-1,44
 382 399 382 399 346 399 c 2,45,-1
 291 399 l 1,37,-1
EndSplineSet
EndChar

StartChar: macron
Encoding: 175 175 113
Width: 406
GlyphClass: 2
Flags: W
LayerCount: 2
Fore
SplineSet
59 631 m 1,0,-1
 326 631 l 1,1,-1
 326 586 l 1,2,-1
 59 586 l 1,3,-1
 59 631 l 1,0,-1
EndSplineSet
EndChar

StartChar: degree
Encoding: 176 176 114
Width: 341
GlyphClass: 2
Flags: W
LayerCount: 2
Fore
SplineSet
36 562 m 0,0,1
 36 618 36 618 75.5 657.5 c 128,-1,2
 115 697 115 697 170 697 c 0,3,4
 226 697 226 697 265.5 657.5 c 128,-1,5
 305 618 305 618 305 562 c 0,6,7
 305 507 305 507 265.5 468 c 128,-1,8
 226 429 226 429 170 429 c 128,-1,9
 114 429 114 429 75 468 c 128,-1,10
 36 507 36 507 36 562 c 0,0,1
90 562 m 128,-1,12
 90 528 90 528 113 505 c 128,-1,13
 136 482 136 482 170 482 c 128,-1,14
 204 482 204 482 227 505 c 128,-1,15
 250 528 250 528 250 562 c 128,-1,16
 250 596 250 596 227 620 c 128,-1,17
 204 644 204 644 170 644 c 128,-1,18
 136 644 136 644 113 620 c 128,-1,11
 90 596 90 596 90 562 c 128,-1,12
EndSplineSet
EndChar

StartChar: plusminus
Encoding: 177 177 115
Width: 491
GlyphClass: 2
Flags: W
LayerCount: 2
Fore
SplineSet
62 22 m 1,0,-1
 62 77 l 1,1,-1
 429 77 l 1,2,-1
 429 22 l 1,3,-1
 62 22 l 1,0,-1
218 278 m 1,4,-1
 62 278 l 1,5,-1
 62 333 l 1,6,-1
 218 333 l 1,7,-1
 218 468 l 1,8,-1
 273 468 l 1,9,-1
 273 333 l 1,10,-1
 429 333 l 1,11,-1
 429 278 l 1,12,-1
 273 278 l 1,13,-1
 273 144 l 1,14,-1
 218 144 l 1,15,-1
 218 278 l 1,4,-1
EndSplineSet
EndChar

StartChar: uni00B2
Encoding: 178 178 116
Width: 356
GlyphClass: 2
Flags: W
LayerCount: 2
Fore
SplineSet
40 611 m 1,0,1
 71 652 71 652 100 670.5 c 128,-1,2
 129 689 129 689 171 689 c 0,3,4
 232 689 232 689 267 658 c 128,-1,5
 302 627 302 627 302 571 c 0,6,7
 302 527 302 527 279 495 c 128,-1,8
 256 463 256 463 199 420 c 0,9,10
 130 369 130 369 111 312 c 1,11,-1
 307 312 l 1,12,-1
 307 258 l 1,13,-1
 47 258 l 1,14,-1
 47 290 l 2,15,16
 47 367 47 367 170 466 c 0,17,18
 212 499 212 499 228 520.5 c 128,-1,19
 244 542 244 542 244 571 c 0,20,21
 244 635 244 635 171 635 c 0,22,23
 151 635 151 635 134.5 626 c 128,-1,24
 118 617 118 617 109.5 607 c 128,-1,25
 101 597 101 597 84 574 c 1,26,-1
 40 611 l 1,0,1
EndSplineSet
EndChar

StartChar: uni00B3
Encoding: 179 179 117
Width: 340
GlyphClass: 2
Flags: W
LayerCount: 2
Fore
SplineSet
48 627 m 1,0,1
 67 656 67 656 100 672.5 c 128,-1,2
 133 689 133 689 163 689 c 0,3,4
 215 689 215 689 252 657.5 c 128,-1,5
 289 626 289 626 289 576 c 0,6,7
 289 527 289 527 229 490 c 1,8,9
 303 452 303 452 303 379 c 0,10,11
 303 317 303 317 255.5 285.5 c 128,-1,12
 208 254 208 254 149 254 c 0,13,14
 114 254 114 254 80 272 c 128,-1,15
 46 290 46 290 24 318 c 1,16,-1
 67 353 l 1,17,18
 103 308 103 308 149 308 c 0,19,20
 245 308 245 308 245 379 c 0,21,22
 245 460 245 460 117 460 c 1,23,-1
 117 514 l 1,24,25
 162 514 162 514 196.5 531.5 c 128,-1,26
 231 549 231 549 231 576 c 0,27,28
 231 602 231 602 213 619 c 128,-1,29
 195 636 195 636 163 636 c 0,30,31
 123 636 123 636 91 593 c 1,32,-1
 48 627 l 1,0,1
EndSplineSet
EndChar

StartChar: acute
Encoding: 180 180 118
Width: 388
GlyphClass: 2
Flags: W
LayerCount: 2
Fore
SplineSet
58 601 m 1,0,-1
 274 742 l 1,1,-1
 308 684 l 1,2,-1
 78 567 l 1,3,-1
 58 601 l 1,0,-1
EndSplineSet
EndChar

StartChar: paragraph
Encoding: 182 182 120
Width: 525
GlyphClass: 2
Flags: W
LayerCount: 2
Fore
SplineSet
320 0 m 1,0,-1
 245 0 l 1,1,-1
 245 282 l 1,2,3
 157 289 157 289 94.5 340 c 128,-1,4
 32 391 32 391 32 481 c 0,5,6
 32 547 32 547 69 594 c 128,-1,7
 106 641 106 641 158.5 661.5 c 128,-1,8
 211 682 211 682 272 682 c 2,9,-1
 441 682 l 1,10,-1
 441 0 l 1,11,-1
 366 0 l 1,12,-1
 366 619 l 1,13,-1
 320 619 l 1,14,-1
 320 0 l 1,0,-1
245 346 m 1,15,-1
 245 617 l 1,16,17
 187 610 187 610 150.5 575 c 128,-1,18
 114 540 114 540 114 481 c 128,-1,19
 114 422 114 422 150 387.5 c 128,-1,20
 186 353 186 353 245 346 c 1,15,-1
EndSplineSet
EndChar

StartChar: periodcentered
Encoding: 183 183 121
Width: 220
GlyphClass: 2
Flags: W
LayerCount: 2
Fore
SplineSet
56 254 m 0,0,1
 56 276 56 276 72 292 c 128,-1,2
 88 308 88 308 110 308 c 128,-1,3
 132 308 132 308 148 292 c 128,-1,4
 164 276 164 276 164 254 c 0,5,6
 164 231 164 231 148 215 c 128,-1,7
 132 199 132 199 110 199 c 128,-1,8
 88 199 88 199 72 215 c 128,-1,9
 56 231 56 231 56 254 c 0,0,1
EndSplineSet
EndChar

StartChar: cedilla
Encoding: 184 184 122
Width: 345
GlyphClass: 2
Flags: W
LayerCount: 2
Fore
SplineSet
138 0 m 1,0,-1
 189 0 l 1,1,-1
 156 -68 l 1,2,3
 210 -68 210 -68 236.5 -86 c 128,-1,4
 263 -104 263 -104 263 -125 c 0,5,6
 263 -200 263 -200 58 -200 c 1,7,-1
 58 -173 l 1,8,9
 108 -173 108 -173 153 -161.5 c 128,-1,10
 198 -150 198 -150 198 -131 c 0,11,12
 198 -121 198 -121 191 -115.5 c 128,-1,13
 184 -110 184 -110 160 -106.5 c 128,-1,14
 136 -103 136 -103 90 -103 c 1,15,-1
 138 0 l 1,0,-1
EndSplineSet
EndChar

StartChar: uni00B9
Encoding: 185 185 123
Width: 222
GlyphClass: 2
Flags: W
LayerCount: 2
Fore
SplineSet
108 682 m 1,0,-1
 162 682 l 1,1,-1
 162 260 l 1,2,-1
 105 260 l 1,3,-1
 105 559 l 1,4,-1
 48 506 l 1,5,-1
 12 520 l 1,6,-1
 108 682 l 1,0,-1
EndSplineSet
EndChar

StartChar: ordmasculine
Encoding: 186 186 124
Width: 408
GlyphClass: 2
Flags: W
LayerCount: 2
Fore
SplineSet
204 387 m 128,-1,1
 147 387 147 387 103.5 434.5 c 128,-1,2
 60 482 60 482 60 542 c 128,-1,3
 60 602 60 602 103.5 649 c 128,-1,4
 147 696 147 696 204 696 c 128,-1,5
 261 696 261 696 304.5 649 c 128,-1,6
 348 602 348 602 348 542 c 128,-1,7
 348 482 348 482 304.5 434.5 c 128,-1,0
 261 387 261 387 204 387 c 128,-1,1
202 649 m 0,8,9
 164 649 164 649 137 616 c 128,-1,10
 110 583 110 583 110 541 c 128,-1,11
 110 499 110 499 138 466.5 c 128,-1,12
 166 434 166 434 204 434 c 128,-1,13
 242 434 242 434 269.5 467.5 c 128,-1,14
 297 501 297 501 297 543 c 128,-1,15
 297 585 297 585 269 617 c 128,-1,16
 241 649 241 649 202 649 c 0,8,9
348 285 m 1,17,-1
 60 285 l 1,18,-1
 60 336 l 1,19,-1
 348 336 l 1,20,-1
 348 285 l 1,17,-1
EndSplineSet
EndChar

StartChar: guillemotright
Encoding: 187 187 125
Width: 568
GlyphClass: 2
Flags: W
LayerCount: 2
Fore
SplineSet
331 238 m 1,0,-1
 88 55 l 1,1,-1
 47 110 l 1,2,-1
 218 238 l 1,3,-1
 47 367 l 1,4,-1
 88 422 l 1,5,-1
 331 238 l 1,0,-1
546 238 m 1,6,-1
 303 55 l 1,7,-1
 262 110 l 1,8,-1
 433 238 l 1,9,-1
 262 367 l 1,10,-1
 303 422 l 1,11,-1
 546 238 l 1,6,-1
EndSplineSet
EndChar

StartChar: onequarter
Encoding: 188 188 126
Width: 691
GlyphClass: 2
Flags: W
LayerCount: 2
Fore
SplineSet
472 682 m 1,0,-1
 224 0 l 1,1,-1
 162 0 l 1,2,-1
 410 682 l 1,3,-1
 472 682 l 1,0,-1
125 682 m 1,4,-1
 179 682 l 1,5,-1
 179 260 l 1,6,-1
 122 260 l 1,7,-1
 122 559 l 1,8,-1
 65 506 l 1,9,-1
 29 520 l 1,10,-1
 125 682 l 1,4,-1
552 324 m 1,11,-1
 439 163 l 1,12,-1
 552 163 l 1,13,-1
 552 324 l 1,11,-1
555 422 m 1,14,-1
 611 422 l 1,15,-1
 611 163 l 1,16,-1
 651 163 l 1,17,-1
 651 105 l 1,18,-1
 611 105 l 1,19,-1
 611 0 l 1,20,-1
 552 0 l 1,21,-1
 552 105 l 1,22,-1
 371 105 l 1,23,-1
 371 158 l 1,24,-1
 555 422 l 1,14,-1
EndSplineSet
EndChar

StartChar: onehalf
Encoding: 189 189 127
Width: 733
GlyphClass: 2
Flags: W
LayerCount: 2
Fore
SplineSet
422 354 m 1,0,1
 453 395 453 395 482 413.5 c 128,-1,2
 511 432 511 432 553 432 c 0,3,4
 613 432 613 432 648.5 400.5 c 128,-1,5
 684 369 684 369 684 313 c 0,6,7
 684 269 684 269 661 237 c 128,-1,8
 638 205 638 205 581 162 c 0,9,10
 511 110 511 110 493 55 c 1,11,-1
 689 55 l 1,12,-1
 689 0 l 1,13,-1
 429 0 l 1,14,-1
 429 32 l 2,15,16
 429 109 429 109 552 208 c 0,17,18
 594 241 594 241 610 262.5 c 128,-1,19
 626 284 626 284 626 313 c 0,20,21
 626 377 626 377 553 377 c 0,22,23
 533 377 533 377 516.5 368 c 128,-1,24
 500 359 500 359 491.5 349 c 128,-1,25
 483 339 483 339 466 316 c 1,26,-1
 422 354 l 1,0,1
472 682 m 1,27,-1
 224 0 l 1,28,-1
 162 0 l 1,29,-1
 410 682 l 1,30,-1
 472 682 l 1,27,-1
125 682 m 1,31,-1
 179 682 l 1,32,-1
 179 260 l 1,33,-1
 122 260 l 1,34,-1
 122 559 l 1,35,-1
 65 506 l 1,36,-1
 29 520 l 1,37,-1
 125 682 l 1,31,-1
EndSplineSet
EndChar

StartChar: threequarters
Encoding: 190 190 128
Width: 773
GlyphClass: 2
Flags: W
LayerCount: 2
Fore
SplineSet
55 627 m 1,0,1
 74 656 74 656 107 672.5 c 128,-1,2
 140 689 140 689 170 689 c 0,3,4
 222 689 222 689 259 657.5 c 128,-1,5
 296 626 296 626 296 576 c 0,6,7
 296 527 296 527 236 490 c 1,8,9
 310 452 310 452 310 379 c 0,10,11
 310 317 310 317 262.5 285.5 c 128,-1,12
 215 254 215 254 156 254 c 0,13,14
 121 254 121 254 87 272 c 128,-1,15
 53 290 53 290 31 318 c 1,16,-1
 74 353 l 1,17,18
 110 308 110 308 156 308 c 0,19,20
 252 308 252 308 252 379 c 0,21,22
 252 460 252 460 124 460 c 1,23,-1
 124 514 l 1,24,25
 169 514 169 514 203.5 531.5 c 128,-1,26
 238 549 238 549 238 576 c 0,27,28
 238 602 238 602 220 619 c 128,-1,29
 202 636 202 636 170 636 c 0,30,31
 130 636 130 636 98 593 c 1,32,-1
 55 627 l 1,0,1
558 682 m 1,33,-1
 310 0 l 1,34,-1
 248 0 l 1,35,-1
 496 682 l 1,36,-1
 558 682 l 1,33,-1
638 324 m 1,37,-1
 525 163 l 1,38,-1
 638 163 l 1,39,-1
 638 324 l 1,37,-1
641 422 m 1,40,-1
 697 422 l 1,41,-1
 697 163 l 1,42,-1
 737 163 l 1,43,-1
 737 105 l 1,44,-1
 697 105 l 1,45,-1
 697 0 l 1,46,-1
 638 0 l 1,47,-1
 638 105 l 1,48,-1
 457 105 l 1,49,-1
 457 158 l 1,50,-1
 641 422 l 1,40,-1
EndSplineSet
EndChar

StartChar: questiondown
Encoding: 191 191 129
Width: 461
GlyphClass: 2
Flags: W
LayerCount: 2
Fore
SplineSet
306 545 m 128,-1,1
 306 522 306 522 290 506.5 c 128,-1,2
 274 491 274 491 252 491 c 128,-1,3
 230 491 230 491 214 506.5 c 128,-1,4
 198 522 198 522 198 545 c 128,-1,5
 198 568 198 568 214 584 c 128,-1,6
 230 600 230 600 252 600 c 128,-1,7
 274 600 274 600 290 584 c 128,-1,0
 306 568 306 568 306 545 c 128,-1,1
432 33 m 1,8,9
 410 -30 410 -30 357 -67.5 c 128,-1,10
 304 -105 304 -105 243 -105 c 0,11,12
 157 -105 157 -105 98 -49.5 c 128,-1,13
 39 6 39 6 39 88 c 0,14,15
 39 142 39 142 57.5 180.5 c 128,-1,16
 76 219 76 219 102 242.5 c 128,-1,17
 128 266 128 266 154 288 c 128,-1,18
 180 310 180 310 198.5 344.5 c 128,-1,19
 217 379 217 379 217 426 c 1,20,-1
 286 426 l 1,21,22
 286 372 286 372 267.5 333.5 c 128,-1,23
 249 295 249 295 223 271.5 c 128,-1,24
 197 248 197 248 171 226 c 128,-1,25
 145 204 145 204 126.5 169.5 c 128,-1,26
 108 135 108 135 108 88 c 0,27,28
 108 32 108 32 144.5 -5.5 c 128,-1,29
 181 -43 181 -43 243 -43 c 0,30,31
 288 -43 288 -43 321.5 -18 c 128,-1,32
 355 7 355 7 370 53 c 1,33,-1
 432 33 l 1,8,9
EndSplineSet
EndChar

StartChar: AE
Encoding: 198 198 136
Width: 772
GlyphClass: 2
Flags: W
AnchorPoint: "Anchor-0" 403 726 basechar 0
LayerCount: 2
Fore
SplineSet
163 191 m 1,0,-1
 60 0 l 1,1,-1
 -20 0 l 1,2,-1
 348 680 l 1,3,-1
 348 682 l 1,4,-1
 730 682 l 1,5,-1
 730 619 l 1,6,-1
 422 619 l 1,7,-1
 422 401 l 1,8,-1
 662 401 l 1,9,-1
 662 340 l 1,10,-1
 422 340 l 1,11,-1
 422 62 l 1,12,-1
 733 62 l 1,13,-1
 733 0 l 1,14,-1
 348 0 l 1,15,-1
 348 191 l 1,16,-1
 163 191 l 1,0,-1
197 253 m 1,17,-1
 348 253 l 1,18,-1
 348 532 l 1,19,-1
 197 253 l 1,17,-1
EndSplineSet
EndChar

StartChar: Ccedilla
Encoding: 199 199 137
Width: 575
GlyphClass: 2
Flags: W
LayerCount: 2
Fore
SplineSet
295 -15 m 1,0,1
 189 -2 189 -2 117 100.5 c 128,-1,2
 45 203 45 203 45 340 c 0,3,4
 45 485 45 485 125.5 591 c 128,-1,5
 206 697 206 697 320 697 c 0,6,7
 444 697 444 697 535 557 c 1,8,-1
 476 515 l 1,9,10
 407 629 407 629 320 629 c 128,-1,11
 233 629 233 629 177 543 c 128,-1,12
 121 457 121 457 121 340 c 128,-1,13
 121 223 121 223 177 138 c 128,-1,14
 233 53 233 53 320 53 c 0,15,16
 414 53 414 53 482 179 c 1,17,-1
 547 144 l 1,18,19
 464 1 464 1 346 -14 c 1,20,-1
 319 -68 l 1,21,22
 373 -68 373 -68 400 -86 c 128,-1,23
 427 -104 427 -104 427 -125 c 0,24,25
 427 -200 427 -200 222 -200 c 1,26,-1
 222 -173 l 1,27,28
 271 -173 271 -173 316 -161.5 c 128,-1,29
 361 -150 361 -150 361 -131 c 0,30,31
 361 -121 361 -121 354 -115.5 c 128,-1,32
 347 -110 347 -110 323.5 -106.5 c 128,-1,33
 300 -103 300 -103 254 -103 c 1,34,-1
 295 -15 l 1,0,1
EndSplineSet
EndChar

StartChar: Eth
Encoding: 208 208 146
Width: 612
GlyphClass: 2
Flags: W
LayerCount: 2
Fore
SplineSet
156 309 m 1,0,-1
 156 68 l 1,1,-1
 208 68 l 2,2,3
 342 68 342 68 415 135 c 128,-1,4
 488 202 488 202 488 340 c 128,-1,5
 488 478 488 478 415 545.5 c 128,-1,6
 342 613 342 613 208 613 c 2,7,-1
 156 613 l 1,8,-1
 156 371 l 1,9,-1
 283 371 l 1,10,-1
 283 309 l 1,11,-1
 156 309 l 1,0,-1
81 309 m 1,12,-1
 21 309 l 1,13,-1
 21 371 l 1,14,-1
 81 371 l 1,15,-1
 81 682 l 1,16,-1
 230 682 l 2,17,18
 296 682 296 682 355.5 661.5 c 128,-1,19
 415 641 415 641 463 601 c 128,-1,20
 511 561 511 561 539 493.5 c 128,-1,21
 567 426 567 426 567 340 c 128,-1,22
 567 254 567 254 539 187 c 128,-1,23
 511 120 511 120 463 80 c 128,-1,24
 415 40 415 40 356 20 c 128,-1,25
 297 0 297 0 230 0 c 2,26,-1
 81 0 l 1,27,-1
 81 309 l 1,12,-1
EndSplineSet
EndChar

StartChar: multiply
Encoding: 215 215 153
Width: 430
GlyphClass: 2
Flags: W
LayerCount: 2
Fore
SplineSet
176 240 m 1,0,-1
 52 364 l 1,1,-1
 91 403 l 1,2,-1
 215 279 l 1,3,-1
 339 403 l 1,4,-1
 378 364 l 1,5,-1
 254 240 l 1,6,-1
 378 116 l 1,7,-1
 339 77 l 1,8,-1
 215 201 l 1,9,-1
 91 77 l 1,10,-1
 52 116 l 1,11,-1
 176 240 l 1,0,-1
EndSplineSet
EndChar

StartChar: Oslash
Encoding: 216 216 154
Width: 672
GlyphClass: 2
Flags: W
LayerCount: 2
Fore
SplineSet
507 511 m 1,0,-1
 192 129 l 1,1,2
 253 53 253 53 336 53 c 0,3,4
 425 53 425 53 487.5 139.5 c 128,-1,5
 550 226 550 226 550 340 c 0,6,7
 550 433 550 433 507 511 c 1,0,-1
478 553 m 1,8,9
 415 629 415 629 336 629 c 0,10,11
 248 629 248 629 185 542 c 128,-1,12
 122 455 122 455 122 340 c 0,13,14
 122 246 122 246 164 171 c 1,15,-1
 478 553 l 1,8,9
43 340 m 0,16,17
 43 483 43 483 131.5 590 c 128,-1,18
 220 697 220 697 336 697 c 0,19,20
 441 697 441 697 524 609 c 1,21,-1
 584 682 l 1,22,-1
 647 682 l 1,23,-1
 555 571 l 1,24,25
 629 467 629 467 629 340 c 0,26,27
 629 197 629 197 540.5 90.5 c 128,-1,28
 452 -16 452 -16 336 -16 c 0,29,30
 232 -16 232 -16 147 74 c 1,31,-1
 86 0 l 1,32,-1
 24 0 l 1,33,-1
 116 111 l 1,34,35
 43 212 43 212 43 340 c 0,16,17
EndSplineSet
EndChar

StartChar: Thorn
Encoding: 222 222 160
Width: 513
GlyphClass: 2
Flags: W
LayerCount: 2
Fore
SplineSet
79 0 m 1,0,-1
 79 682 l 1,1,-1
 154 682 l 1,2,-1
 154 513 l 1,3,-1
 286 513 l 2,4,5
 374 513 374 513 434.5 465 c 128,-1,6
 495 417 495 417 495 342 c 128,-1,7
 495 267 495 267 435.5 219 c 128,-1,8
 376 171 376 171 288 171 c 2,9,-1
 154 171 l 1,10,-1
 154 0 l 1,11,-1
 79 0 l 1,0,-1
154 450 m 1,12,-1
 154 232 l 1,13,-1
 286 232 l 2,14,15
 346 232 346 232 379.5 265 c 128,-1,16
 413 298 413 298 413 342 c 128,-1,17
 413 386 413 386 380 418 c 128,-1,18
 347 450 347 450 286 450 c 2,19,-1
 154 450 l 1,12,-1
EndSplineSet
EndChar

StartChar: germandbls
Encoding: 223 223 161
Width: 518
GlyphClass: 2
Flags: W
LayerCount: 2
Fore
SplineSet
272 403 m 0,0,1
 272 384 272 384 293.5 374 c 128,-1,2
 315 364 315 364 357 355 c 0,3,4
 417 342 417 342 456 286.5 c 128,-1,5
 495 231 495 231 495 157 c 0,6,7
 495 82 495 82 454.5 33 c 128,-1,8
 414 -16 414 -16 332 -16 c 0,9,10
 269 -16 269 -16 232.5 11.5 c 128,-1,11
 196 39 196 39 172 95 c 1,12,-1
 233 125 l 1,13,14
 250 84 250 84 269 65.5 c 128,-1,15
 288 47 288 47 332 47 c 0,16,17
 381 47 381 47 404 80.5 c 128,-1,18
 427 114 427 114 427 157 c 0,19,20
 427 201 427 201 407 238.5 c 128,-1,21
 387 276 387 276 351 287 c 0,22,23
 315 297 315 297 300 301.5 c 128,-1,24
 285 306 285 306 261 316.5 c 128,-1,25
 237 327 237 327 228 337 c 128,-1,26
 219 347 219 347 211 364 c 128,-1,27
 203 381 203 381 203 403 c 0,28,29
 203 442 203 442 227 467 c 128,-1,30
 251 492 251 492 280.5 503 c 128,-1,31
 310 514 310 514 334 536.5 c 128,-1,32
 358 559 358 559 358 594 c 0,33,34
 358 679 358 679 238 679 c 0,35,36
 189 679 189 679 160 647.5 c 128,-1,37
 131 616 131 616 131 551 c 2,38,-1
 131 0 l 1,39,-1
 63 0 l 1,40,-1
 63 533 l 2,41,42
 63 741 63 741 238 741 c 0,43,44
 341 741 341 741 384 699 c 128,-1,45
 427 657 427 657 427 576 c 0,46,47
 427 546 427 546 411 522.5 c 128,-1,48
 395 499 395 499 372.5 484.5 c 128,-1,49
 350 470 350 470 327 457.5 c 128,-1,50
 304 445 304 445 288 431.5 c 128,-1,51
 272 418 272 418 272 403 c 0,0,1
EndSplineSet
EndChar

StartChar: ae
Encoding: 230 230 168
Width: 867
GlyphClass: 2
Flags: W
AnchorPoint: "Anchor-0" 409 567 basechar 0
LayerCount: 2
Fore
SplineSet
111 356 m 1,0,-1
 58 389 l 1,1,2
 83 421 83 421 101 438 c 128,-1,3
 119 455 119 455 154.5 469 c 128,-1,4
 190 483 190 483 237 483 c 0,5,6
 362 483 362 483 413 366 c 1,7,8
 446 419 446 419 498.5 451 c 128,-1,9
 551 483 551 483 607 483 c 0,10,11
 696 483 696 483 767.5 409 c 128,-1,12
 839 335 839 335 839 234 c 1,13,-1
 443 234 l 1,14,15
 443 157 443 157 492.5 101.5 c 128,-1,16
 542 46 542 46 607 46 c 0,17,18
 679 46 679 46 711.5 66 c 128,-1,19
 744 86 744 86 770 130 c 1,20,-1
 824 95 l 1,21,22
 787 39 787 39 740 11.5 c 128,-1,23
 693 -16 693 -16 609 -16 c 0,24,25
 519 -16 519 -16 449 56 c 1,26,27
 362 -16 362 -16 208 -16 c 0,28,29
 129 -16 129 -16 78 23 c 128,-1,30
 27 62 27 62 27 128 c 0,31,32
 27 198 27 198 91.5 244 c 128,-1,33
 156 290 156 290 294 290 c 0,34,35
 334 290 334 290 373 278 c 1,36,37
 367 333 367 333 331.5 377 c 128,-1,38
 296 421 296 421 237 421 c 0,39,40
 187 421 187 421 162.5 406 c 128,-1,41
 138 391 138 391 111 356 c 1,0,-1
453 296 m 1,42,-1
 761 296 l 1,43,44
 744 351 744 351 701 386 c 128,-1,45
 658 421 658 421 607 421 c 128,-1,46
 556 421 556 421 513 386 c 128,-1,47
 470 351 470 351 453 296 c 1,42,-1
408 110 m 1,48,49
 377 164 377 164 374 219 c 1,50,51
 324 231 324 231 295 231 c 0,52,53
 201 231 201 231 151.5 204 c 128,-1,54
 102 177 102 177 102 127 c 0,55,56
 102 96 102 96 122 76.5 c 128,-1,57
 142 57 142 57 164.5 51.5 c 128,-1,58
 187 46 187 46 211 46 c 0,59,60
 329 46 329 46 408 110 c 1,48,49
EndSplineSet
EndChar

StartChar: ccedilla
Encoding: 231 231 169
Width: 479
GlyphClass: 2
Flags: W
LayerCount: 2
Fore
SplineSet
246 -15 m 1,0,1
 163 -5 163 -5 99 67.5 c 128,-1,2
 35 140 35 140 35 234 c 0,3,4
 35 335 35 335 106.5 409.5 c 128,-1,5
 178 484 178 484 267 484 c 0,6,7
 316 484 316 484 363 458.5 c 128,-1,8
 410 433 410 433 444 390 c 1,9,-1
 394 351 l 1,10,11
 344 422 344 422 267 422 c 0,12,13
 202 422 202 422 152.5 366.5 c 128,-1,14
 103 311 103 311 103 234 c 128,-1,15
 103 157 103 157 152.5 101.5 c 128,-1,16
 202 46 202 46 267 46 c 0,17,18
 319 46 319 46 347.5 61.5 c 128,-1,19
 376 77 376 77 402 111 c 1,20,-1
 455 74 l 1,21,22
 390 -8 390 -8 297 -15 c 1,23,-1
 271 -68 l 1,24,25
 325 -68 325 -68 351.5 -86 c 128,-1,26
 378 -104 378 -104 378 -125 c 0,27,28
 378 -200 378 -200 173 -200 c 1,29,-1
 173 -173 l 1,30,31
 223 -173 223 -173 268 -161.5 c 128,-1,32
 313 -150 313 -150 313 -131 c 0,33,34
 313 -121 313 -121 306 -115.5 c 128,-1,35
 299 -110 299 -110 275 -106.5 c 128,-1,36
 251 -103 251 -103 205 -103 c 1,37,-1
 246 -15 l 1,0,1
EndSplineSet
EndChar

StartChar: eth
Encoding: 240 240 178
Width: 544
GlyphClass: 2
Flags: W
LayerCount: 2
Fore
SplineSet
34 234 m 128,-1,1
 34 335 34 335 105.5 409.5 c 128,-1,2
 177 484 177 484 266 484 c 0,3,4
 337 484 337 484 402 432 c 1,5,6
 372 505 372 505 277 589 c 1,7,-1
 225 519 l 1,8,-1
 179 553 l 1,9,-1
 235 625 l 1,10,11
 209 646 209 646 161 680 c 1,12,-1
 203 735 l 1,13,-1
 275 679 l 1,14,-1
 323 742 l 1,15,-1
 368 708 l 1,16,-1
 318 643 l 1,17,18
 406 564 406 564 452 470 c 128,-1,19
 498 376 498 376 498 234 c 0,20,21
 498 133 498 133 427 58.5 c 128,-1,22
 356 -16 356 -16 268 -16 c 0,23,24
 179 -16 179 -16 106.5 58.5 c 128,-1,0
 34 133 34 133 34 234 c 128,-1,1
101 234 m 128,-1,26
 101 157 101 157 151 101.5 c 128,-1,27
 201 46 201 46 266 46 c 128,-1,28
 331 46 331 46 380.5 101.5 c 128,-1,29
 430 157 430 157 430 234 c 128,-1,30
 430 311 430 311 380.5 366 c 128,-1,31
 331 421 331 421 266 421 c 128,-1,32
 201 421 201 421 151 366 c 128,-1,25
 101 311 101 311 101 234 c 128,-1,26
EndSplineSet
EndChar

StartChar: divide
Encoding: 247 247 185
Width: 447
GlyphClass: 2
Flags: W
LayerCount: 2
Fore
SplineSet
166 76 m 0,0,1
 166 98 166 98 182 114 c 128,-1,2
 198 130 198 130 220 130 c 0,3,4
 243 130 243 130 259 114 c 128,-1,5
 275 98 275 98 275 76 c 128,-1,6
 275 54 275 54 258.5 37.5 c 128,-1,7
 242 21 242 21 220 21 c 128,-1,8
 198 21 198 21 182 37 c 128,-1,9
 166 53 166 53 166 76 c 0,0,1
166 389 m 0,10,11
 166 411 166 411 181.5 426.5 c 128,-1,12
 197 442 197 442 220 442 c 128,-1,13
 243 442 243 442 259 426.5 c 128,-1,14
 275 411 275 411 275 389 c 0,15,16
 275 366 275 366 258.5 350 c 128,-1,17
 242 334 242 334 220 334 c 128,-1,18
 198 334 198 334 182 350 c 128,-1,19
 166 366 166 366 166 389 c 0,10,11
53 268 m 1,20,-1
 393 268 l 1,21,-1
 393 213 l 1,22,-1
 53 213 l 1,23,-1
 53 268 l 1,20,-1
EndSplineSet
EndChar

StartChar: oslash
Encoding: 248 248 186
Width: 533
GlyphClass: 2
Flags: W
LayerCount: 2
Fore
SplineSet
35 234 m 0,0,1
 35 335 35 335 106.5 409.5 c 128,-1,2
 178 484 178 484 267 484 c 0,3,4
 347 484 347 484 413 424 c 1,5,-1
 454 468 l 1,6,-1
 517 468 l 1,7,-1
 444 391 l 1,8,9
 499 319 499 319 499 234 c 0,10,11
 499 133 499 133 428 58.5 c 128,-1,12
 357 -16 357 -16 269 -16 c 0,13,14
 189 -16 189 -16 122 45 c 1,15,-1
 80 0 l 1,16,-1
 18 0 l 1,17,-1
 91 78 l 1,18,19
 35 149 35 149 35 234 c 0,0,1
370 378 m 1,20,21
 323 422 323 422 267 422 c 0,22,23
 202 422 202 422 152.5 366.5 c 128,-1,24
 103 311 103 311 103 234 c 0,25,26
 103 175 103 175 135 125 c 1,27,-1
 370 378 l 1,20,21
399 342 m 1,28,-1
 164 90 l 1,29,30
 210 46 210 46 267 46 c 0,31,32
 332 46 332 46 381.5 101.5 c 128,-1,33
 431 157 431 157 431 234 c 0,34,35
 431 294 431 294 399 342 c 1,28,-1
EndSplineSet
EndChar

StartChar: thorn
Encoding: 254 254 192
Width: 501
GlyphClass: 2
Flags: W
LayerCount: 2
Fore
SplineSet
131 -200 m 1,0,-1
 63 -200 l 1,1,-1
 63 623 l 1,2,-1
 131 623 l 1,3,-1
 131 410 l 1,4,5
 212 484 212 484 336 484 c 0,6,7
 403 484 403 484 438.5 446 c 128,-1,8
 474 408 474 408 474 346 c 0,9,10
 474 282 474 282 444 221.5 c 128,-1,11
 414 161 414 161 374 120.5 c 128,-1,12
 334 80 334 80 280.5 43 c 128,-1,13
 227 6 227 6 194 -11 c 128,-1,14
 161 -28 161 -28 131 -41 c 1,15,-1
 131 -200 l 1,0,-1
131 311 m 1,16,-1
 131 48 l 1,17,18
 155 59 155 59 182 73.5 c 128,-1,19
 209 88 209 88 250.5 117 c 128,-1,20
 292 146 292 146 323 178 c 128,-1,21
 354 210 354 210 377 255.5 c 128,-1,22
 400 301 400 301 400 349 c 0,23,24
 400 382 400 382 379 401.5 c 128,-1,25
 358 421 358 421 336 421 c 0,26,27
 217 421 217 421 131 311 c 1,16,-1
EndSplineSet
EndChar

StartChar: Aogonek
Encoding: 260 260 198
Width: 575
GlyphClass: 2
Flags: W
LayerCount: 2
Fore
SplineSet
512 0 m 1,0,1
 473 -13 473 -13 459.5 -27.5 c 128,-1,2
 446 -42 446 -42 446 -82 c 0,3,4
 446 -150 446 -150 549 -150 c 0,5,6
 574 -150 574 -150 603 -144 c 1,7,-1
 610 -170 l 1,8,9
 553 -186 553 -186 507 -186 c 0,10,11
 381 -186 381 -186 381 -91 c 0,12,13
 381 -3 381 -3 489 21 c 1,14,-1
 426 191 l 1,15,-1
 150 191 l 1,16,-1
 81 0 l 1,17,-1
 1 0 l 1,18,-1
 248 681 l 1,19,-1
 248 682 l 1,20,-1
 329 682 l 1,21,-1
 328 681 l 1,22,-1
 576 0 l 1,23,-1
 512 0 l 1,0,1
289 570 m 1,24,-1
 173 253 l 1,25,-1
 404 253 l 1,26,-1
 289 570 l 1,24,-1
EndSplineSet
EndChar

StartChar: aogonek
Encoding: 261 261 199
Width: 561
GlyphClass: 2
Flags: W
LayerCount: 2
Fore
SplineSet
432 -82 m 0,0,1
 432 -150 432 -150 535 -150 c 0,2,3
 565 -150 565 -150 589 -144 c 1,4,-1
 596 -170 l 1,5,6
 538 -186 538 -186 492 -186 c 0,7,8
 435 -186 435 -186 400.5 -163 c 128,-1,9
 366 -140 366 -140 366 -91 c 0,10,11
 366 -26 366 -26 430 5 c 1,12,-1
 430 61 l 1,13,14
 359 -16 359 -16 268 -16 c 0,15,16
 179 -16 179 -16 106.5 58.5 c 128,-1,17
 34 133 34 133 34 234 c 128,-1,18
 34 335 34 335 105.5 409.5 c 128,-1,19
 177 484 177 484 266 484 c 0,20,21
 358 484 358 484 430 406 c 1,22,-1
 430 468 l 1,23,-1
 498 468 l 1,24,-1
 498 0 l 1,25,26
 457 -13 457 -13 444.5 -29.5 c 128,-1,27
 432 -46 432 -46 432 -82 c 0,0,1
102 234 m 128,-1,29
 102 157 102 157 151.5 101.5 c 128,-1,30
 201 46 201 46 266 46 c 128,-1,31
 331 46 331 46 380.5 101.5 c 128,-1,32
 430 157 430 157 430 234 c 128,-1,33
 430 311 430 311 380.5 366.5 c 128,-1,34
 331 422 331 422 266 422 c 128,-1,35
 201 422 201 422 151.5 366.5 c 128,-1,28
 102 311 102 311 102 234 c 128,-1,29
EndSplineSet
EndChar

StartChar: dcroat
Encoding: 273 273 211
Width: 561
GlyphClass: 2
Flags: W
LayerCount: 2
Fore
SplineSet
102 234 m 128,-1,1
 102 157 102 157 151.5 101.5 c 128,-1,2
 201 46 201 46 266 46 c 128,-1,3
 331 46 331 46 380.5 101.5 c 128,-1,4
 430 157 430 157 430 234 c 128,-1,5
 430 311 430 311 380.5 366.5 c 128,-1,6
 331 422 331 422 266 422 c 128,-1,7
 201 422 201 422 151.5 366.5 c 128,-1,0
 102 311 102 311 102 234 c 128,-1,1
34 234 m 128,-1,9
 34 335 34 335 105.5 409.5 c 128,-1,10
 177 484 177 484 266 484 c 0,11,12
 358 484 358 484 430 406 c 1,13,-1
 430 567 l 1,14,-1
 289 567 l 1,15,-1
 289 630 l 1,16,-1
 430 630 l 1,17,-1
 430 726 l 1,18,-1
 498 726 l 1,19,-1
 498 630 l 1,20,-1
 551 630 l 1,21,-1
 551 567 l 1,22,-1
 498 567 l 1,23,-1
 498 0 l 1,24,-1
 430 0 l 1,25,-1
 430 61 l 1,26,27
 359 -16 359 -16 268 -16 c 0,28,29
 179 -16 179 -16 106.5 58.5 c 128,-1,8
 34 133 34 133 34 234 c 128,-1,9
EndSplineSet
EndChar

StartChar: Eogonek
Encoding: 280 280 218
Width: 503
GlyphClass: 2
Flags: W
LayerCount: 2
Fore
SplineSet
337 -82 m 0,0,1
 337 -150 337 -150 440 -150 c 0,2,3
 470 -150 470 -150 494 -144 c 1,4,-1
 501 -170 l 1,5,6
 443 -186 443 -186 397 -186 c 0,7,8
 340 -186 340 -186 305.5 -163 c 128,-1,9
 271 -140 271 -140 271 -91 c 0,10,11
 271 -31 271 -31 325 0 c 1,12,-1
 79 0 l 1,13,-1
 79 682 l 1,14,-1
 461 682 l 1,15,-1
 461 619 l 1,16,-1
 154 619 l 1,17,-1
 154 401 l 1,18,-1
 394 401 l 1,19,-1
 394 340 l 1,20,-1
 154 340 l 1,21,-1
 154 62 l 1,22,-1
 464 62 l 1,23,-1
 464 0 l 1,24,-1
 403 0 l 1,25,26
 362 -13 362 -13 349.5 -29.5 c 128,-1,27
 337 -46 337 -46 337 -82 c 0,0,1
EndSplineSet
EndChar

StartChar: eogonek
Encoding: 281 281 219
Width: 528
GlyphClass: 2
Flags: W
LayerCount: 2
Fore
SplineSet
284 -82 m 0,0,1
 284 -150 284 -150 387 -150 c 0,2,3
 417 -150 417 -150 441 -144 c 1,4,-1
 448 -170 l 1,5,6
 390 -186 390 -186 344 -186 c 0,7,8
 287 -186 287 -186 252.5 -163 c 128,-1,9
 218 -140 218 -140 218 -91 c 0,10,11
 218 -44 218 -44 251 -15 c 1,12,13
 167 -6 167 -6 101 66 c 128,-1,14
 35 138 35 138 35 234 c 0,15,16
 35 335 35 335 106.5 409.5 c 128,-1,17
 178 484 178 484 267 484 c 128,-1,18
 356 484 356 484 427.5 409.5 c 128,-1,19
 499 335 499 335 499 234 c 1,20,-1
 103 234 l 1,21,22
 103 157 103 157 152.5 101.5 c 128,-1,23
 202 46 202 46 267 46 c 0,24,25
 339 46 339 46 371.5 66 c 128,-1,26
 404 86 404 86 430 131 c 1,27,-1
 484 95 l 1,28,29
 452 47 452 47 414.5 20.5 c 128,-1,30
 377 -6 377 -6 316 -13 c 1,31,32
 297 -24 297 -24 290.5 -39 c 128,-1,33
 284 -54 284 -54 284 -82 c 0,0,1
113 296 m 1,34,-1
 421 296 l 1,35,36
 404 351 404 351 361 386.5 c 128,-1,37
 318 422 318 422 267 422 c 128,-1,38
 216 422 216 422 173 386.5 c 128,-1,39
 130 351 130 351 113 296 c 1,34,-1
EndSplineSet
EndChar

StartChar: Hbar
Encoding: 294 294 232
Width: 608
GlyphClass: 2
Flags: W
LayerCount: 2
Fore
SplineSet
529 529 m 1,0,-1
 529 0 l 1,1,-1
 454 0 l 1,2,-1
 454 325 l 1,3,-1
 154 325 l 1,4,-1
 154 0 l 1,5,-1
 79 0 l 1,6,-1
 79 529 l 1,7,-1
 36 529 l 1,8,-1
 36 567 l 1,9,-1
 79 567 l 1,10,-1
 79 682 l 1,11,-1
 154 682 l 1,12,-1
 154 567 l 1,13,-1
 454 567 l 1,14,-1
 454 682 l 1,15,-1
 529 682 l 1,16,-1
 529 567 l 1,17,-1
 574 567 l 1,18,-1
 574 529 l 1,19,-1
 529 529 l 1,0,-1
454 529 m 1,20,-1
 154 529 l 1,21,-1
 154 387 l 1,22,-1
 454 387 l 1,23,-1
 454 529 l 1,20,-1
EndSplineSet
EndChar

StartChar: hbar
Encoding: 295 295 233
Width: 535
GlyphClass: 2
Flags: W
LayerCount: 2
Fore
SplineSet
477 296 m 2,0,-1
 477 0 l 1,1,-1
 409 0 l 1,2,-1
 409 296 l 2,3,4
 409 349 409 349 371 385.5 c 128,-1,5
 333 422 333 422 270 422 c 128,-1,6
 207 422 207 422 169 368 c 128,-1,7
 131 314 131 314 131 234 c 2,8,-1
 131 0 l 1,9,-1
 63 0 l 1,10,-1
 63 567 l 1,11,-1
 19 567 l 1,12,-1
 19 630 l 1,13,-1
 63 630 l 1,14,-1
 63 726 l 1,15,-1
 131 726 l 1,16,-1
 131 630 l 1,17,-1
 280 630 l 1,18,-1
 280 567 l 1,19,-1
 131 567 l 1,20,-1
 131 425 l 1,21,22
 188 484 188 484 270 484 c 0,23,24
 359 484 359 484 418 433.5 c 128,-1,25
 477 383 477 383 477 296 c 2,0,-1
EndSplineSet
EndChar

StartChar: Iogonek
Encoding: 302 302 240
Width: 253
GlyphClass: 2
Flags: W
LayerCount: 2
Fore
SplineSet
134 -82 m 0,0,1
 134 -150 134 -150 237 -150 c 0,2,3
 267 -150 267 -150 291 -144 c 1,4,-1
 298 -170 l 1,5,6
 240 -186 240 -186 194 -186 c 0,7,8
 137 -186 137 -186 102.5 -163 c 128,-1,9
 68 -140 68 -140 68 -91 c 0,10,11
 68 -31 68 -31 123 0 c 1,12,-1
 53 0 l 1,13,-1
 53 66 l 1,14,-1
 89 66 l 1,15,-1
 89 616 l 1,16,-1
 53 616 l 1,17,-1
 53 682 l 1,18,-1
 200 682 l 1,19,-1
 200 616 l 1,20,-1
 164 616 l 1,21,-1
 164 66 l 1,22,-1
 200 66 l 1,23,-1
 200 0 l 1,24,25
 159 -13 159 -13 146.5 -29.5 c 128,-1,26
 134 -46 134 -46 134 -82 c 0,0,1
EndSplineSet
EndChar

StartChar: iogonek
Encoding: 303 303 241
Width: 194
GlyphClass: 2
Flags: W
LayerCount: 2
Fore
SplineSet
65 -82 m 0,0,1
 65 -150 65 -150 168 -150 c 0,2,3
 198 -150 198 -150 222 -144 c 1,4,-1
 229 -170 l 1,5,6
 171 -186 171 -186 125 -186 c 0,7,8
 68 -186 68 -186 33.5 -163 c 128,-1,9
 -1 -140 -1 -140 -1 -91 c 0,10,11
 -1 -26 -1 -26 63 5 c 1,12,-1
 63 468 l 1,13,-1
 131 468 l 1,14,-1
 131 0 l 1,15,16
 90 -13 90 -13 77.5 -29.5 c 128,-1,17
 65 -46 65 -46 65 -82 c 0,0,1
43 613 m 128,-1,19
 43 636 43 636 58.5 651.5 c 128,-1,20
 74 667 74 667 97 667 c 128,-1,21
 120 667 120 667 135.5 651.5 c 128,-1,22
 151 636 151 636 151 613 c 128,-1,23
 151 590 151 590 135.5 574.5 c 128,-1,24
 120 559 120 559 97 559 c 128,-1,25
 74 559 74 559 58.5 574.5 c 128,-1,18
 43 590 43 590 43 613 c 128,-1,19
EndSplineSet
EndChar

StartChar: dotlessi
Encoding: 305 305 243
Width: 194
GlyphClass: 2
Flags: W
AnchorPoint: "Anchor-0" 97 567 basechar 0
LayerCount: 2
Fore
SplineSet
63 0 m 1,0,-1
 63 468 l 1,1,-1
 131 468 l 1,2,-1
 131 0 l 1,3,-1
 63 0 l 1,0,-1
EndSplineSet
EndChar

StartChar: Lslash
Encoding: 321 321 257
Width: 441
GlyphClass: 2
Flags: W
LayerCount: 2
Fore
SplineSet
159 392 m 1,0,-1
 159 62 l 1,1,-1
 426 62 l 1,2,-1
 426 0 l 1,3,-1
 84 0 l 1,4,-1
 84 339 l 1,5,-1
 28 300 l 1,6,-1
 5 332 l 1,7,-1
 84 388 l 1,8,-1
 84 682 l 1,9,-1
 159 682 l 1,10,-1
 159 440 l 1,11,-1
 243 499 l 1,12,-1
 266 467 l 1,13,-1
 159 392 l 1,0,-1
EndSplineSet
EndChar

StartChar: lslash
Encoding: 322 322 258
Width: 226
GlyphClass: 2
Flags: W
LayerCount: 2
Fore
SplineSet
148 396 m 1,0,-1
 148 0 l 1,1,-1
 80 0 l 1,2,-1
 80 349 l 1,3,-1
 10 300 l 1,4,-1
 -13 332 l 1,5,-1
 80 397 l 1,6,-1
 80 726 l 1,7,-1
 148 726 l 1,8,-1
 148 445 l 1,9,-1
 225 499 l 1,10,-1
 248 467 l 1,11,-1
 148 396 l 1,0,-1
EndSplineSet
EndChar

StartChar: Eng
Encoding: 330 330 265
Width: 621
GlyphClass: 2
Flags: W
LayerCount: 2
Fore
SplineSet
568 305 m 2,0,1
 568 167 568 167 512.5 83.5 c 128,-1,2
 457 0 457 0 350 0 c 2,3,-1
 322 0 l 1,4,-1
 322 62 l 1,5,-1
 350 62 l 2,6,7
 414 62 414 62 451.5 127.5 c 128,-1,8
 489 193 489 193 489 305 c 2,9,-1
 489 398 l 2,10,11
 489 500 489 500 449 564.5 c 128,-1,12
 409 629 409 629 324 629 c 128,-1,13
 239 629 239 629 199 564.5 c 128,-1,14
 159 500 159 500 159 398 c 2,15,-1
 159 0 l 1,16,-1
 79 0 l 1,17,-1
 79 682 l 1,18,-1
 154 682 l 1,19,-1
 154 631 l 1,20,21
 217 697 217 697 324 697 c 0,22,23
 439 697 439 697 503.5 619 c 128,-1,24
 568 541 568 541 568 398 c 2,25,-1
 568 305 l 2,0,1
EndSplineSet
EndChar

StartChar: eng
Encoding: 331 331 266
Width: 535
GlyphClass: 2
Flags: W
LayerCount: 2
Fore
SplineSet
477 -21 m 2,0,1
 477 -83 477 -83 433.5 -126.5 c 128,-1,2
 390 -170 390 -170 329 -170 c 2,3,-1
 249 -170 l 1,4,-1
 249 -107 l 1,5,-1
 329 -107 l 2,6,7
 363 -107 363 -107 386 -81.5 c 128,-1,8
 409 -56 409 -56 409 -21 c 2,9,-1
 409 296 l 2,10,11
 409 349 409 349 371 385.5 c 128,-1,12
 333 422 333 422 270 422 c 128,-1,13
 207 422 207 422 169 368 c 128,-1,14
 131 314 131 314 131 234 c 2,15,-1
 131 0 l 1,16,-1
 63 0 l 1,17,-1
 63 468 l 1,18,-1
 131 468 l 1,19,-1
 131 425 l 1,20,21
 188 484 188 484 270 484 c 0,22,23
 359 484 359 484 418 433.5 c 128,-1,24
 477 383 477 383 477 296 c 2,25,-1
 477 -21 l 2,0,1
EndSplineSet
EndChar

StartChar: OE
Encoding: 338 338 273
Width: 830
GlyphClass: 2
Flags: W
AnchorPoint: "Anchor-0" 466 726 basechar 0
LayerCount: 2
Fore
SplineSet
418 0 m 1,0,1
 375 -16 375 -16 335 -16 c 0,2,3
 219 -16 219 -16 130.5 90.5 c 128,-1,4
 42 197 42 197 42 340 c 128,-1,5
 42 483 42 483 130.5 590 c 128,-1,6
 219 697 219 697 335 697 c 0,7,8
 376 697 376 697 415 682 c 1,9,-1
 788 682 l 1,10,-1
 788 619 l 1,11,-1
 481 619 l 1,12,-1
 481 401 l 1,13,-1
 721 401 l 1,14,-1
 721 340 l 1,15,-1
 481 340 l 1,16,-1
 481 62 l 1,17,-1
 791 62 l 1,18,-1
 791 0 l 1,19,-1
 418 0 l 1,0,1
406 70 m 1,20,-1
 406 613 l 1,21,22
 374 629 374 629 335 629 c 0,23,24
 247 629 247 629 184 542 c 128,-1,25
 121 455 121 455 121 340 c 0,26,27
 121 226 121 226 183.5 139.5 c 128,-1,28
 246 53 246 53 335 53 c 0,29,30
 372 53 372 53 406 70 c 1,20,-1
EndSplineSet
EndChar

StartChar: oe
Encoding: 339 339 274
Width: 922
GlyphClass: 2
Flags: W
AnchorPoint: "Anchor-0" 461 567 basechar 0
LayerCount: 2
Fore
SplineSet
102 234 m 128,-1,1
 102 157 102 157 151.5 101.5 c 128,-1,2
 201 46 201 46 266 46 c 128,-1,3
 331 46 331 46 380.5 101.5 c 128,-1,4
 430 157 430 157 430 234 c 128,-1,5
 430 311 430 311 380.5 366.5 c 128,-1,6
 331 422 331 422 266 422 c 128,-1,7
 201 422 201 422 151.5 366.5 c 128,-1,0
 102 311 102 311 102 234 c 128,-1,1
34 234 m 128,-1,9
 34 335 34 335 105.5 409.5 c 128,-1,10
 177 484 177 484 266 484 c 0,11,12
 324 484 324 484 378 449.5 c 128,-1,13
 432 415 432 415 464 359 c 1,14,15
 496 415 496 415 550 449.5 c 128,-1,16
 604 484 604 484 662 484 c 0,17,18
 751 484 751 484 822.5 409.5 c 128,-1,19
 894 335 894 335 894 234 c 1,20,-1
 498 234 l 1,21,22
 498 157 498 157 547.5 101.5 c 128,-1,23
 597 46 597 46 662 46 c 0,24,25
 734 46 734 46 766.5 66 c 128,-1,26
 799 86 799 86 825 131 c 1,27,-1
 879 95 l 1,28,29
 842 39 842 39 795 11.5 c 128,-1,30
 748 -16 748 -16 664 -16 c 0,31,32
 607 -16 607 -16 552.5 18 c 128,-1,33
 498 52 498 52 465 109 c 1,34,35
 433 53 433 53 379.5 18.5 c 128,-1,36
 326 -16 326 -16 268 -16 c 0,37,38
 179 -16 179 -16 106.5 58.5 c 128,-1,8
 34 133 34 133 34 234 c 128,-1,9
508 296 m 1,39,-1
 816 296 l 1,40,41
 799 351 799 351 756 386.5 c 128,-1,42
 713 422 713 422 662 422 c 128,-1,43
 611 422 611 422 568 386.5 c 128,-1,44
 525 351 525 351 508 296 c 1,39,-1
EndSplineSet
EndChar

StartChar: Scedilla
Encoding: 350 350 285
Width: 554
GlyphClass: 2
Flags: W
LayerCount: 2
Fore
SplineSet
279 307 m 0,0,1
 171 336 171 336 114.5 383 c 128,-1,2
 58 430 58 430 58 512 c 0,3,4
 58 602 58 602 115 649.5 c 128,-1,5
 172 697 172 697 277 697 c 0,6,7
 404 697 404 697 495 580 c 1,8,-1
 439 533 l 1,9,10
 368 629 368 629 277 629 c 0,11,12
 200 629 200 629 167 601 c 128,-1,13
 134 573 134 573 134 512 c 0,14,15
 134 489 134 489 141.5 470.5 c 128,-1,16
 149 452 149 452 157.5 441 c 128,-1,17
 166 430 166 430 186 420 c 128,-1,18
 206 410 206 410 217.5 405.5 c 128,-1,19
 229 401 229 401 257 392.5 c 128,-1,20
 285 384 285 384 295 381 c 0,21,22
 397 346 397 346 428 328 c 0,23,24
 515 277 515 277 515 170 c 0,25,26
 515 87 515 87 457 39.5 c 128,-1,27
 399 -8 399 -8 296 -15 c 1,28,-1
 270 -68 l 1,29,30
 324 -68 324 -68 350.5 -86 c 128,-1,31
 377 -104 377 -104 377 -125 c 0,32,33
 377 -200 377 -200 172 -200 c 1,34,-1
 172 -173 l 1,35,36
 222 -173 222 -173 267 -161.5 c 128,-1,37
 312 -150 312 -150 312 -131 c 0,38,39
 312 -121 312 -121 305 -115.5 c 128,-1,40
 298 -110 298 -110 274 -106.5 c 128,-1,41
 250 -103 250 -103 204 -103 c 1,42,-1
 245 -15 l 1,43,44
 184 -10 184 -10 127.5 27.5 c 128,-1,45
 71 65 71 65 32 125 c 1,46,-1
 91 167 l 1,47,48
 121 117 121 117 168 85 c 128,-1,49
 215 53 215 53 264 53 c 0,50,51
 354 53 354 53 396.5 81.5 c 128,-1,52
 439 110 439 110 439 170 c 0,53,54
 439 229 439 229 402.5 256.5 c 128,-1,55
 366 284 366 284 279 307 c 0,0,1
EndSplineSet
EndChar

StartChar: scedilla
Encoding: 351 351 286
Width: 466
GlyphClass: 2
Flags: W
LayerCount: 2
Fore
SplineSet
241 201 m 0,0,1
 238 202 238 202 219.5 205.5 c 128,-1,2
 201 209 201 209 194 210.5 c 128,-1,3
 187 212 187 212 168.5 216.5 c 128,-1,4
 150 221 150 221 141.5 224.5 c 128,-1,5
 133 228 133 228 117.5 234.5 c 128,-1,6
 102 241 102 241 94 247.5 c 128,-1,7
 86 254 86 254 75 263.5 c 128,-1,8
 64 273 64 273 58.5 283.5 c 128,-1,9
 53 294 53 294 49 307.5 c 128,-1,10
 45 321 45 321 45 337 c 0,11,12
 45 405 45 405 100 444.5 c 128,-1,13
 155 484 155 484 243 484 c 0,14,15
 373 484 373 484 419 374 c 1,16,-1
 358 344 l 1,17,18
 326 422 326 422 243 422 c 0,19,20
 180 422 180 422 147 399 c 128,-1,21
 114 376 114 376 114 337 c 0,22,23
 114 326 114 326 118 317.5 c 128,-1,24
 122 309 122 309 131 302.5 c 128,-1,25
 140 296 140 296 147.5 292 c 128,-1,26
 155 288 155 288 171 284 c 128,-1,27
 187 280 187 280 195 278.5 c 128,-1,28
 203 277 203 277 222 274 c 128,-1,29
 241 271 241 271 247 270 c 0,30,31
 285 263 285 263 311.5 255.5 c 128,-1,32
 338 248 338 248 369.5 233 c 128,-1,33
 401 218 401 218 417.5 192.5 c 128,-1,34
 434 167 434 167 434 132 c 0,35,36
 434 69 434 69 381 29.5 c 128,-1,37
 328 -10 328 -10 247 -15 c 1,38,-1
 221 -68 l 1,39,40
 275 -68 275 -68 301.5 -86 c 128,-1,41
 328 -104 328 -104 328 -125 c 0,42,43
 328 -200 328 -200 123 -200 c 1,44,-1
 123 -173 l 1,45,46
 173 -173 173 -173 218 -161.5 c 128,-1,47
 263 -150 263 -150 263 -131 c 0,48,49
 263 -121 263 -121 256 -115.5 c 128,-1,50
 249 -110 249 -110 225 -106.5 c 128,-1,51
 201 -103 201 -103 155 -103 c 1,52,-1
 196 -15 l 1,53,54
 138 -10 138 -10 94.5 19 c 128,-1,55
 51 48 51 48 31 95 c 1,56,-1
 92 125 l 1,57,58
 107 90 107 90 141 68.5 c 128,-1,59
 175 47 175 47 222 47 c 0,60,61
 286 47 286 47 326 71.5 c 128,-1,62
 366 96 366 96 366 132 c 0,63,64
 366 143 366 143 362 152 c 128,-1,65
 358 161 358 161 349.5 167.5 c 128,-1,66
 341 174 341 174 333.5 178.5 c 128,-1,67
 326 183 326 183 311.5 186.5 c 128,-1,68
 297 190 297 190 289 192 c 128,-1,69
 281 194 281 194 264 197 c 128,-1,70
 247 200 247 200 241 201 c 0,0,1
EndSplineSet
EndChar

StartChar: Tbar
Encoding: 358 358 293
Width: 502
GlyphClass: 2
Flags: W
LayerCount: 2
Fore
SplineSet
19 620 m 1,0,-1
 19 682 l 1,1,-1
 483 682 l 1,2,-1
 483 620 l 1,3,-1
 288 620 l 1,4,-1
 288 468 l 1,5,-1
 360 468 l 1,6,-1
 360 424 l 1,7,-1
 288 424 l 1,8,-1
 288 0 l 1,9,-1
 214 0 l 1,10,-1
 214 424 l 1,11,-1
 142 424 l 1,12,-1
 142 468 l 1,13,-1
 214 468 l 1,14,-1
 214 620 l 1,15,-1
 19 620 l 1,0,-1
EndSplineSet
EndChar

StartChar: tbar
Encoding: 359 359 294
Width: 277
GlyphClass: 2
Flags: W
LayerCount: 2
Fore
SplineSet
28 406 m 1,0,-1
 28 468 l 1,1,-1
 88 468 l 1,2,-1
 88 623 l 1,3,-1
 156 623 l 1,4,-1
 156 468 l 1,5,-1
 264 468 l 1,6,-1
 264 406 l 1,7,-1
 156 406 l 1,8,-1
 156 317 l 1,9,-1
 247 317 l 1,10,-1
 247 273 l 1,11,-1
 156 273 l 1,12,-1
 156 0 l 1,13,-1
 88 0 l 1,14,-1
 88 273 l 1,15,-1
 28 273 l 1,16,-1
 28 317 l 1,17,-1
 88 317 l 1,18,-1
 88 406 l 1,19,-1
 28 406 l 1,0,-1
EndSplineSet
EndChar

StartChar: Uogonek
Encoding: 370 370 305
Width: 635
GlyphClass: 2
Flags: W
LayerCount: 2
Fore
SplineSet
340 -82 m 0,0,1
 340 -150 340 -150 443 -150 c 0,2,3
 473 -150 473 -150 497 -144 c 1,4,-1
 504 -170 l 1,5,6
 446 -186 446 -186 400 -186 c 0,7,8
 343 -186 343 -186 308.5 -163 c 128,-1,9
 274 -140 274 -140 274 -91 c 0,10,11
 274 -46 274 -46 307 -16 c 1,12,13
 197 -12 197 -12 135 66 c 128,-1,14
 73 144 73 144 73 283 c 2,15,-1
 73 682 l 1,16,-1
 153 682 l 1,17,-1
 153 283 l 2,18,19
 153 181 153 181 193 117 c 128,-1,20
 233 53 233 53 318 53 c 128,-1,21
 403 53 403 53 443 117 c 128,-1,22
 483 181 483 181 483 283 c 2,23,-1
 483 682 l 1,24,-1
 562 682 l 1,25,-1
 562 283 l 2,26,27
 562 162 562 162 515 86.5 c 128,-1,28
 468 11 468 11 382 -9 c 1,29,30
 357 -21 357 -21 348.5 -36.5 c 128,-1,31
 340 -52 340 -52 340 -82 c 0,0,1
EndSplineSet
EndChar

StartChar: uogonek
Encoding: 371 371 306
Width: 535
GlyphClass: 2
Flags: W
LayerCount: 2
Fore
SplineSet
406 -82 m 0,0,1
 406 -150 406 -150 509 -150 c 0,2,3
 539 -150 539 -150 563 -144 c 1,4,-1
 570 -170 l 1,5,6
 512 -186 512 -186 466 -186 c 0,7,8
 409 -186 409 -186 374.5 -163 c 128,-1,9
 340 -140 340 -140 340 -91 c 0,10,11
 340 -26 340 -26 403 5 c 1,12,-1
 403 41 l 1,13,14
 345 -17 345 -17 265 -17 c 0,15,16
 176 -17 176 -17 117 34 c 128,-1,17
 58 85 58 85 58 172 c 2,18,-1
 58 468 l 1,19,-1
 125 468 l 1,20,-1
 125 172 l 2,21,22
 125 119 125 119 163.5 82.5 c 128,-1,23
 202 46 202 46 265 46 c 128,-1,24
 328 46 328 46 365.5 99.5 c 128,-1,25
 403 153 403 153 403 233 c 2,26,-1
 403 468 l 1,27,-1
 472 468 l 1,28,-1
 472 0 l 1,29,30
 431 -13 431 -13 418.5 -29.5 c 128,-1,31
 406 -46 406 -46 406 -82 c 0,0,1
EndSplineSet
EndChar

StartChar: uni0180
Encoding: 384 384 318
Width: 561
GlyphClass: 2
Flags: W
LayerCount: 2
Fore
SplineSet
33 567 m 1,0,-1
 33 615 l 1,1,-1
 63 615 l 1,2,-1
 63 726 l 1,3,-1
 131 726 l 1,4,-1
 131 615 l 1,5,-1
 305 615 l 1,6,-1
 305 567 l 1,7,-1
 131 567 l 1,8,-1
 131 406 l 1,9,10
 202 484 202 484 295 484 c 0,11,12
 384 484 384 484 455.5 409.5 c 128,-1,13
 527 335 527 335 527 234 c 128,-1,14
 527 133 527 133 456 58.5 c 128,-1,15
 385 -16 385 -16 297 -16 c 0,16,17
 204 -16 204 -16 131 63 c 1,18,-1
 131 0 l 1,19,-1
 63 0 l 1,20,-1
 63 567 l 1,21,-1
 33 567 l 1,0,-1
131 234 m 128,-1,23
 131 157 131 157 180.5 101.5 c 128,-1,24
 230 46 230 46 295 46 c 128,-1,25
 360 46 360 46 409.5 101.5 c 128,-1,26
 459 157 459 157 459 234 c 128,-1,27
 459 311 459 311 409.5 366.5 c 128,-1,28
 360 422 360 422 295 422 c 128,-1,29
 230 422 230 422 180.5 366.5 c 128,-1,22
 131 311 131 311 131 234 c 128,-1,23
EndSplineSet
EndChar

StartChar: uni0181
Encoding: 385 385 319
Width: 699
GlyphClass: 2
Flags: W
LayerCount: 2
Fore
SplineSet
90 426 m 1,0,-1
 27 426 l 1,1,-1
 27 534 l 2,2,3
 27 595 27 595 70.5 638.5 c 128,-1,4
 114 682 114 682 176 682 c 2,5,-1
 404 682 l 2,6,7
 492 682 492 682 552.5 634 c 128,-1,8
 613 586 613 586 613 511 c 0,9,10
 613 426 613 426 539 377 c 1,11,12
 660 326 660 326 660 200 c 0,13,14
 660 134 660 134 624 87.5 c 128,-1,15
 588 41 588 41 536 20.5 c 128,-1,16
 484 0 484 0 423 0 c 2,17,-1
 203 0 l 1,18,-1
 203 614 l 1,19,-1
 176 614 l 2,20,21
 141 614 141 614 115.5 591 c 128,-1,22
 90 568 90 568 90 534 c 2,23,-1
 90 426 l 1,0,-1
277 338 m 1,24,-1
 277 62 l 1,25,-1
 421 62 l 2,26,27
 489 62 489 62 533.5 98 c 128,-1,28
 578 134 578 134 578 200 c 128,-1,29
 578 266 578 266 533.5 302 c 128,-1,30
 489 338 489 338 421 338 c 2,31,-1
 277 338 l 1,24,-1
277 619 m 1,32,-1
 277 401 l 1,33,-1
 404 401 l 2,34,35
 464 401 464 401 497.5 434 c 128,-1,36
 531 467 531 467 531 511 c 128,-1,37
 531 555 531 555 498 587 c 128,-1,38
 465 619 465 619 404 619 c 2,39,-1
 277 619 l 1,32,-1
EndSplineSet
EndChar

StartChar: uni0186
Encoding: 390 390 320
Width: 572
GlyphClass: 2
Flags: W
AnchorPoint: "Anchor-0" 248 726 basechar 0
LayerCount: 2
Fore
SplineSet
26 537 m 1,0,1
 119 697 119 697 253 697 c 0,2,3
 367 697 367 697 447.5 591.5 c 128,-1,4
 528 486 528 486 528 341 c 128,-1,5
 528 196 528 196 447.5 90 c 128,-1,6
 367 -16 367 -16 253 -16 c 0,7,8
 129 -16 129 -16 38 124 c 1,9,-1
 97 166 l 1,10,11
 166 52 166 52 253 52 c 128,-1,12
 340 52 340 52 396 138 c 128,-1,13
 452 224 452 224 452 341 c 128,-1,14
 452 458 452 458 396 543 c 128,-1,15
 340 628 340 628 253 628 c 0,16,17
 159 628 159 628 91 502 c 1,18,-1
 26 537 l 1,0,1
EndSplineSet
EndChar

StartChar: uni0187
Encoding: 391 391 321
Width: 578
GlyphClass: 2
Flags: W
LayerCount: 2
Fore
SplineSet
546 144 m 1,0,1
 453 -16 453 -16 319 -16 c 0,2,3
 205 -16 205 -16 124.5 89.5 c 128,-1,4
 44 195 44 195 44 340 c 128,-1,5
 44 485 44 485 124.5 591 c 128,-1,6
 205 697 205 697 319 697 c 0,7,8
 402 697 402 697 471 633 c 1,9,-1
 471 665 l 2,10,11
 471 726 471 726 514.5 769.5 c 128,-1,12
 558 813 558 813 620 813 c 2,13,-1
 647 813 l 1,14,-1
 647 745 l 1,15,-1
 620 745 l 2,16,17
 585 745 585 745 559.5 722 c 128,-1,18
 534 699 534 699 534 665 c 2,19,-1
 534 557 l 1,20,-1
 475 515 l 1,21,22
 406 629 406 629 319 629 c 128,-1,23
 232 629 232 629 176 543 c 128,-1,24
 120 457 120 457 120 340 c 128,-1,25
 120 223 120 223 176 138 c 128,-1,26
 232 53 232 53 319 53 c 0,27,28
 413 53 413 53 481 179 c 1,29,-1
 546 144 l 1,0,1
EndSplineSet
EndChar

StartChar: uni0188
Encoding: 392 392 322
Width: 479
GlyphClass: 2
Flags: W
LayerCount: 2
Fore
SplineSet
454 74 m 1,0,1
 418 29 418 29 375.5 6.5 c 128,-1,2
 333 -16 333 -16 268 -16 c 0,3,4
 179 -16 179 -16 106.5 58.5 c 128,-1,5
 34 133 34 133 34 234 c 128,-1,6
 34 335 34 335 105.5 409.5 c 128,-1,7
 177 484 177 484 266 484 c 0,8,9
 325 484 325 484 380 448 c 1,10,-1
 380 498 l 2,11,12
 380 559 380 559 423.5 602.5 c 128,-1,13
 467 646 467 646 529 646 c 2,14,-1
 556 646 l 1,15,-1
 556 578 l 1,16,-1
 529 578 l 2,17,18
 494 578 494 578 468.5 555 c 128,-1,19
 443 532 443 532 443 498 c 2,20,-1
 443 390 l 1,21,-1
 393 351 l 1,22,23
 343 422 343 422 266 422 c 0,24,25
 201 422 201 422 151.5 366.5 c 128,-1,26
 102 311 102 311 102 234 c 128,-1,27
 102 157 102 157 151.5 101.5 c 128,-1,28
 201 46 201 46 266 46 c 0,29,30
 318 46 318 46 346.5 61.5 c 128,-1,31
 375 77 375 77 401 111 c 1,32,-1
 454 74 l 1,0,1
EndSplineSet
EndChar

StartChar: uni0189
Encoding: 393 393 323
Width: 627
GlyphClass: 2
Flags: W
LayerCount: 2
Fore
SplineSet
171 309 m 1,0,-1
 171 68 l 1,1,-1
 223 68 l 2,2,3
 357 68 357 68 430 135 c 128,-1,4
 503 202 503 202 503 340 c 128,-1,5
 503 478 503 478 430 545.5 c 128,-1,6
 357 613 357 613 223 613 c 2,7,-1
 171 613 l 1,8,-1
 171 371 l 1,9,-1
 298 371 l 1,10,-1
 298 309 l 1,11,-1
 171 309 l 1,0,-1
96 309 m 1,12,-1
 36 309 l 1,13,-1
 36 371 l 1,14,-1
 96 371 l 1,15,-1
 96 682 l 1,16,-1
 245 682 l 2,17,18
 311 682 311 682 370.5 661.5 c 128,-1,19
 430 641 430 641 478 601 c 128,-1,20
 526 561 526 561 554 493.5 c 128,-1,21
 582 426 582 426 582 340 c 128,-1,22
 582 254 582 254 554 187 c 128,-1,23
 526 120 526 120 478 80 c 128,-1,24
 430 40 430 40 371 20 c 128,-1,25
 312 0 312 0 245 0 c 2,26,-1
 96 0 l 1,27,-1
 96 309 l 1,12,-1
EndSplineSet
EndChar

StartChar: uni018A
Encoding: 394 394 324
Width: 733
GlyphClass: 2
Flags: W
LayerCount: 2
Fore
SplineSet
90 426 m 1,0,-1
 27 426 l 1,1,-1
 27 534 l 2,2,3
 27 595 27 595 70.5 638.5 c 128,-1,4
 114 682 114 682 176 682 c 2,5,-1
 352 682 l 2,6,7
 418 682 418 682 477 661.5 c 128,-1,8
 536 641 536 641 584 601 c 128,-1,9
 632 561 632 561 660 493.5 c 128,-1,10
 688 426 688 426 688 340 c 128,-1,11
 688 254 688 254 660 187 c 128,-1,12
 632 120 632 120 584 80 c 128,-1,13
 536 40 536 40 477.5 20 c 128,-1,14
 419 0 419 0 352 0 c 2,15,-1
 203 0 l 1,16,-1
 203 614 l 1,17,-1
 176 614 l 2,18,19
 141 614 141 614 115.5 591 c 128,-1,20
 90 568 90 568 90 534 c 2,21,-1
 90 426 l 1,0,-1
277 613 m 1,22,-1
 277 68 l 1,23,-1
 330 68 l 2,24,25
 464 68 464 68 536.5 135 c 128,-1,26
 609 202 609 202 609 340 c 128,-1,27
 609 478 609 478 536.5 545.5 c 128,-1,28
 464 613 464 613 330 613 c 2,29,-1
 277 613 l 1,22,-1
EndSplineSet
EndChar

StartChar: uni018E
Encoding: 398 398 325
Width: 503
GlyphClass: 2
Flags: W
AnchorPoint: "Anchor-0" 218 726 basechar 0
LayerCount: 2
Fore
SplineSet
424 0 m 1,0,-1
 39 0 l 1,1,-1
 39 62 l 1,2,-1
 350 62 l 1,3,-1
 350 340 l 1,4,-1
 110 340 l 1,5,-1
 110 401 l 1,6,-1
 350 401 l 1,7,-1
 350 619 l 1,8,-1
 42 619 l 1,9,-1
 42 682 l 1,10,-1
 424 682 l 1,11,-1
 424 0 l 1,0,-1
EndSplineSet
EndChar

StartChar: uni0190
Encoding: 400 400 327
Width: 516
GlyphClass: 2
Flags: W
AnchorPoint: "Anchor-0" 266 726 basechar 0
LayerCount: 2
Fore
SplineSet
147 365 m 1,0,1
 69 414 69 414 69 511 c 0,2,3
 69 604 69 604 125 650.5 c 128,-1,4
 181 697 181 697 267 697 c 0,5,6
 319 697 319 697 375.5 679.5 c 128,-1,7
 432 662 432 662 466 625 c 1,8,-1
 416 578 l 1,9,10
 392 606 392 606 349.5 618 c 128,-1,11
 307 630 307 630 267 630 c 0,12,13
 213 630 213 630 178.5 594.5 c 128,-1,14
 144 559 144 559 144 511 c 0,15,16
 144 460 144 460 182 427 c 128,-1,17
 220 394 220 394 304 394 c 1,18,-1
 304 327 l 1,19,20
 218 327 218 327 169.5 287.5 c 128,-1,21
 121 248 121 248 121 186 c 0,22,23
 121 131 121 131 167.5 91.5 c 128,-1,24
 214 52 214 52 282 52 c 0,25,26
 404 52 404 52 453 121 c 1,27,-1
 506 79 l 1,28,29
 469 32 469 32 418 8 c 128,-1,30
 367 -16 367 -16 282 -16 c 0,31,32
 177 -16 177 -16 111.5 41 c 128,-1,33
 46 98 46 98 46 202 c 0,34,35
 46 319 46 319 147 365 c 1,0,1
EndSplineSet
EndChar

StartChar: uni0191
Encoding: 401 401 328
Width: 479
GlyphClass: 2
Flags: W
LayerCount: 2
Fore
SplineSet
79 682 m 1,0,-1
 461 682 l 1,1,-1
 461 619 l 1,2,-1
 154 619 l 1,3,-1
 154 401 l 1,4,-1
 394 401 l 1,5,-1
 394 340 l 1,6,-1
 154 340 l 1,7,-1
 154 -52 l 2,8,9
 154 -112 154 -112 105 -156 c 128,-1,10
 56 -200 56 -200 -7 -200 c 2,11,-1
 -34 -200 l 1,12,-1
 -34 -132 l 1,13,-1
 -7 -132 l 2,14,15
 28 -132 28 -132 53.5 -109 c 128,-1,16
 79 -86 79 -86 79 -52 c 2,17,-1
 79 682 l 1,0,-1
EndSplineSet
EndChar

StartChar: florin
Encoding: 402 402 329
Width: 276
GlyphClass: 2
Flags: W
LayerCount: 2
Fore
SplineSet
156 -52 m 2,0,1
 156 -113 156 -113 110 -156.5 c 128,-1,2
 64 -200 64 -200 2 -200 c 2,3,-1
 -25 -200 l 1,4,-1
 -25 -132 l 1,5,-1
 2 -132 l 2,6,7
 37 -132 37 -132 62.5 -109 c 128,-1,8
 88 -86 88 -86 88 -52 c 2,9,-1
 88 406 l 1,10,-1
 28 406 l 1,11,-1
 28 468 l 1,12,-1
 88 468 l 1,13,-1
 88 594 l 2,14,15
 88 656 88 656 131 699 c 128,-1,16
 174 742 174 742 236 742 c 2,17,-1
 264 742 l 1,18,-1
 264 680 l 1,19,-1
 236 680 l 2,20,21
 202 680 202 680 179 654.5 c 128,-1,22
 156 629 156 629 156 594 c 2,23,-1
 156 468 l 1,24,-1
 264 468 l 1,25,-1
 264 406 l 1,26,-1
 156 406 l 1,27,-1
 156 -52 l 2,0,1
EndSplineSet
EndChar

StartChar: uni0193
Encoding: 403 403 330
Width: 612
GlyphClass: 2
Flags: W
LayerCount: 2
Fore
SplineSet
329 291 m 1,0,-1
 329 353 l 1,1,-1
 564 353 l 1,2,-1
 564 291 l 2,3,4
 564 130 564 130 497.5 57 c 128,-1,5
 431 -16 431 -16 305 -16 c 0,6,7
 192 -16 192 -16 118 88.5 c 128,-1,8
 44 193 44 193 44 340 c 128,-1,9
 44 487 44 487 123 592 c 128,-1,10
 202 697 202 697 324 697 c 0,11,12
 419 697 419 697 481 637 c 1,13,-1
 481 665 l 2,14,15
 481 726 481 726 524.5 769.5 c 128,-1,16
 568 813 568 813 630 813 c 2,17,-1
 657 813 l 1,18,-1
 657 745 l 1,19,-1
 630 745 l 2,20,21
 595 745 595 745 569.5 722 c 128,-1,22
 544 699 544 699 544 665 c 2,23,-1
 544 557 l 1,24,-1
 484 515 l 1,25,26
 450 572 450 572 415 600.5 c 128,-1,27
 380 629 380 629 324 629 c 0,28,29
 232 629 232 629 176 543.5 c 128,-1,30
 120 458 120 458 120 340 c 0,31,32
 120 221 120 221 169.5 137 c 128,-1,33
 219 53 219 53 305 53 c 0,34,35
 350 53 350 53 379.5 61 c 128,-1,36
 409 69 409 69 436.5 93 c 128,-1,37
 464 117 464 117 477 166 c 128,-1,38
 490 215 490 215 490 291 c 1,39,-1
 329 291 l 1,0,-1
EndSplineSet
EndChar

StartChar: uni0194
Encoding: 404 404 331
Width: 528
GlyphClass: 2
Flags: W
LayerCount: 2
Fore
SplineSet
264 -138 m 128,-1,1
 280 -138 280 -138 280 -106 c 0,2,3
 280 -90 280 -90 264 -45 c 1,4,5
 248 -90 248 -90 248 -106 c 0,6,0
 248 -138 248 -138 264 -138 c 128,-1,1
224 65 m 1,7,-1
 0 682 l 1,8,-1
 79 682 l 1,9,-1
 264 174 l 1,10,-1
 449 682 l 1,11,-1
 528 682 l 1,12,-1
 304 65 l 1,13,14
 350 -62 350 -62 350 -96 c 0,15,16
 350 -144 350 -144 328.5 -172 c 128,-1,17
 307 -200 307 -200 264 -200 c 128,-1,18
 221 -200 221 -200 199.5 -172 c 128,-1,19
 178 -144 178 -144 178 -96 c 0,20,21
 178 -62 178 -62 224 65 c 1,7,-1
EndSplineSet
EndChar

StartChar: uni0196
Encoding: 406 406 332
Width: 264
GlyphClass: 2
Flags: W
AnchorPoint: "Anchor-0" 113 726 basechar 0
LayerCount: 2
Fore
SplineSet
236 0 m 1,0,1
 169 0 169 0 122 38 c 128,-1,2
 75 76 75 76 75 148 c 2,3,-1
 75 682 l 1,4,-1
 150 682 l 1,5,-1
 150 148 l 2,6,7
 150 68 150 68 236 68 c 1,8,-1
 236 0 l 1,0,1
EndSplineSet
EndChar

StartChar: uni0197
Encoding: 407 407 333
Width: 297
GlyphClass: 2
Flags: W
AnchorPoint: "Anchor-0" 149 726 basechar 0
LayerCount: 2
Fore
SplineSet
111 328 m 1,0,-1
 21 328 l 1,1,-1
 21 370 l 1,2,-1
 111 370 l 1,3,-1
 111 616 l 1,4,-1
 75 616 l 1,5,-1
 75 682 l 1,6,-1
 222 682 l 1,7,-1
 222 616 l 1,8,-1
 186 616 l 1,9,-1
 186 370 l 1,10,-1
 275 370 l 1,11,-1
 275 328 l 1,12,-1
 186 328 l 1,13,-1
 186 66 l 1,14,-1
 222 66 l 1,15,-1
 222 0 l 1,16,-1
 75 0 l 1,17,-1
 75 66 l 1,18,-1
 111 66 l 1,19,-1
 111 328 l 1,0,-1
EndSplineSet
EndChar

StartChar: uni0198
Encoding: 408 408 334
Width: 664
GlyphClass: 2
Flags: W
LayerCount: 2
Fore
SplineSet
79 0 m 1,0,-1
 79 682 l 1,1,-1
 154 682 l 1,2,-1
 154 360 l 1,3,-1
 383 634 l 2,4,5
 428 688 428 688 499 688 c 0,6,7
 567 688 567 688 607 651.5 c 128,-1,8
 647 615 647 615 647 564 c 0,9,10
 647 497 647 497 581 454 c 1,11,-1
 537 503 l 1,12,13
 567 524 567 524 567 555 c 0,14,15
 567 578 567 578 549 594.5 c 128,-1,16
 531 611 531 611 503 611 c 0,17,18
 461 611 461 611 442 588 c 2,19,-1
 266 379 l 1,20,-1
 531 0 l 1,21,-1
 440 0 l 1,22,-1
 216 319 l 1,23,-1
 154 245 l 1,24,-1
 154 0 l 1,25,-1
 79 0 l 1,0,-1
EndSplineSet
EndChar

StartChar: uni0199
Encoding: 409 409 335
Width: 435
GlyphClass: 2
Flags: W
LayerCount: 2
Fore
SplineSet
130 0 m 1,0,-1
 62 0 l 1,1,-1
 63 594 l 2,2,3
 63 656 63 656 105.5 698.5 c 128,-1,4
 148 741 148 741 210 741 c 2,5,-1
 280 741 l 1,6,-1
 280 674 l 1,7,-1
 210 674 l 2,8,9
 176 674 176 674 153.5 651.5 c 128,-1,10
 131 629 131 629 131 594 c 2,11,-1
 130 283 l 1,12,-1
 315 468 l 1,13,-1
 413 468 l 1,14,-1
 233 288 l 1,15,-1
 427 0 l 1,16,-1
 344 0 l 1,17,-1
 184 239 l 1,18,-1
 130 186 l 1,19,-1
 130 0 l 1,0,-1
EndSplineSet
EndChar

StartChar: uni019B
Encoding: 411 411 336
Width: 458
GlyphClass: 2
Flags: W
LayerCount: 2
Fore
SplineSet
229 380 m 1,0,-1
 76 0 l 1,1,-1
 2 0 l 1,2,-1
 192 469 l 1,3,-1
 165 537 l 1,4,-1
 78 496 l 1,5,-1
 52 552 l 1,6,-1
 142 594 l 1,7,-1
 107 682 l 1,8,-1
 179 682 l 1,9,-1
 203 622 l 1,10,-1
 282 659 l 1,11,-1
 308 603 l 1,12,-1
 226 565 l 1,13,-1
 456 0 l 1,14,-1
 382 0 l 1,15,-1
 229 380 l 1,0,-1
EndSplineSet
EndChar

StartChar: uni019D
Encoding: 413 413 337
Width: 629
GlyphClass: 2
Flags: W
LayerCount: 2
Fore
SplineSet
154 -52 m 2,0,1
 154 -112 154 -112 105 -156 c 128,-1,2
 56 -200 56 -200 -7 -200 c 2,3,-1
 -34 -200 l 1,4,-1
 -34 -132 l 1,5,-1
 -7 -132 l 2,6,7
 28 -132 28 -132 53.5 -109 c 128,-1,8
 79 -86 79 -86 79 -52 c 2,9,-1
 79 682 l 1,10,-1
 154 682 l 1,11,-1
 476 123 l 1,12,-1
 476 682 l 1,13,-1
 550 682 l 1,14,-1
 550 0 l 1,15,-1
 476 0 l 1,16,-1
 154 557 l 1,17,-1
 154 -52 l 2,0,1
EndSplineSet
EndChar

StartChar: uni019E
Encoding: 414 414 338
Width: 535
GlyphClass: 2
Flags: W
LayerCount: 2
Fore
SplineSet
409 -200 m 1,0,-1
 409 296 l 2,1,2
 409 349 409 349 371 385.5 c 128,-1,3
 333 422 333 422 270 422 c 128,-1,4
 207 422 207 422 169 368 c 128,-1,5
 131 314 131 314 131 234 c 2,6,-1
 131 0 l 1,7,-1
 63 0 l 1,8,-1
 63 468 l 1,9,-1
 131 468 l 1,10,-1
 131 425 l 1,11,12
 188 484 188 484 270 484 c 0,13,14
 359 484 359 484 418 433.5 c 128,-1,15
 477 383 477 383 477 296 c 2,16,-1
 477 -200 l 1,17,-1
 409 -200 l 1,0,-1
EndSplineSet
EndChar

StartChar: uni01A4
Encoding: 420 420 340
Width: 681
GlyphClass: 2
Flags: W
LayerCount: 2
Fore
SplineSet
278 619 m 1,0,-1
 278 344 l 1,1,-1
 421 344 l 2,2,3
 489 344 489 344 533.5 379.5 c 128,-1,4
 578 415 578 415 578 481 c 128,-1,5
 578 547 578 547 533.5 583 c 128,-1,6
 489 619 489 619 421 619 c 2,7,-1
 278 619 l 1,0,-1
90 426 m 1,8,-1
 27 426 l 1,9,-1
 27 534 l 2,10,11
 27 595 27 595 70.5 638.5 c 128,-1,12
 114 682 114 682 176 682 c 2,13,-1
 421 682 l 2,14,15
 482 682 482 682 534.5 661.5 c 128,-1,16
 587 641 587 641 623.5 594 c 128,-1,17
 660 547 660 547 660 481 c 128,-1,18
 660 415 660 415 624 368.5 c 128,-1,19
 588 322 588 322 536 301.5 c 128,-1,20
 484 281 484 281 423 281 c 2,21,-1
 278 281 l 1,22,-1
 278 0 l 1,23,-1
 203 0 l 1,24,-1
 203 614 l 1,25,-1
 176 614 l 2,26,27
 141 614 141 614 115.5 591 c 128,-1,28
 90 568 90 568 90 534 c 2,29,-1
 90 426 l 1,8,-1
EndSplineSet
EndChar

StartChar: uni01A5
Encoding: 421 421 341
Width: 561
GlyphClass: 2
Flags: W
LayerCount: 2
Fore
SplineSet
63 487 m 2,0,1
 63 548 63 548 105.5 591 c 128,-1,2
 148 634 148 634 210 634 c 2,3,-1
 280 634 l 1,4,-1
 280 567 l 1,5,-1
 210 567 l 2,6,7
 176 567 176 567 153.5 544.5 c 128,-1,8
 131 522 131 522 131 487 c 2,9,-1
 131 406 l 1,10,11
 202 484 202 484 295 484 c 0,12,13
 384 484 384 484 455.5 409.5 c 128,-1,14
 527 335 527 335 527 234 c 128,-1,15
 527 133 527 133 456 58.5 c 128,-1,16
 385 -16 385 -16 297 -16 c 0,17,18
 204 -16 204 -16 131 63 c 1,19,-1
 131 -199 l 1,20,-1
 63 -199 l 1,21,-1
 63 487 l 2,0,1
131 234 m 128,-1,23
 131 157 131 157 180.5 101.5 c 128,-1,24
 230 46 230 46 295 46 c 128,-1,25
 360 46 360 46 409.5 101.5 c 128,-1,26
 459 157 459 157 459 234 c 128,-1,27
 459 311 459 311 409.5 366.5 c 128,-1,28
 360 422 360 422 295 422 c 128,-1,29
 230 422 230 422 180.5 366.5 c 128,-1,22
 131 311 131 311 131 234 c 128,-1,23
EndSplineSet
EndChar

StartChar: uni01A9
Encoding: 425 425 342
Width: 499
GlyphClass: 2
Flags: W
LayerCount: 2
Fore
SplineSet
299 336 m 1,0,-1
 128 62 l 1,1,-1
 469 62 l 1,2,-1
 469 0 l 1,3,-1
 43 0 l 1,4,-1
 43 63 l 1,5,-1
 213 336 l 1,6,-1
 43 607 l 1,7,-1
 43 682 l 1,8,-1
 469 682 l 1,9,-1
 469 620 l 1,10,-1
 122 620 l 1,11,-1
 299 336 l 1,0,-1
EndSplineSet
EndChar

StartChar: uni01AC
Encoding: 428 428 343
Width: 566
GlyphClass: 2
Flags: W
LayerCount: 2
Fore
SplineSet
16 567 m 128,-1,1
 16 611 16 611 54.5 646.5 c 128,-1,2
 93 682 93 682 154 682 c 2,3,-1
 545 682 l 1,4,-1
 545 620 l 1,5,-1
 350 620 l 1,6,-1
 350 0 l 1,7,-1
 276 0 l 1,8,-1
 276 620 l 1,9,-1
 154 620 l 2,10,11
 121 620 121 620 101.5 603.5 c 128,-1,12
 82 587 82 587 82 567 c 0,13,14
 82 548 82 548 101.5 533 c 128,-1,15
 121 518 121 518 154 518 c 1,16,-1
 154 456 l 1,17,18
 92 456 92 456 54 489.5 c 128,-1,0
 16 523 16 523 16 567 c 128,-1,1
EndSplineSet
EndChar

StartChar: uni01AD
Encoding: 429 429 344
Width: 299
GlyphClass: 2
Flags: W
LayerCount: 2
Fore
SplineSet
156 148 m 2,0,1
 156 114 156 114 181.5 91 c 128,-1,2
 207 68 207 68 242 68 c 2,3,-1
 269 68 l 1,4,-1
 269 0 l 1,5,-1
 242 0 l 2,6,7
 180 0 180 0 134 43.5 c 128,-1,8
 88 87 88 87 88 148 c 2,9,-1
 88 406 l 1,10,-1
 28 406 l 1,11,-1
 28 468 l 1,12,-1
 88 468 l 1,13,-1
 88 578 l 2,14,15
 88 642 88 642 129 684 c 128,-1,16
 170 726 170 726 242 726 c 1,17,-1
 242 668 l 1,18,19
 195 668 195 668 175.5 646.5 c 128,-1,20
 156 625 156 625 156 578 c 2,21,-1
 156 468 l 1,22,-1
 264 468 l 1,23,-1
 264 406 l 1,24,-1
 156 406 l 1,25,-1
 156 148 l 2,0,1
EndSplineSet
EndChar

StartChar: uni01AE
Encoding: 430 430 345
Width: 506
GlyphClass: 2
Flags: W
LayerCount: 2
Fore
SplineSet
216 620 m 1,0,-1
 21 620 l 1,1,-1
 21 682 l 1,2,-1
 485 682 l 1,3,-1
 485 620 l 1,4,-1
 290 620 l 1,5,-1
 290 -52 l 2,6,7
 290 -86 290 -86 315.5 -109 c 128,-1,8
 341 -132 341 -132 376 -132 c 2,9,-1
 403 -132 l 1,10,-1
 403 -200 l 1,11,-1
 376 -200 l 2,12,13
 313 -200 313 -200 264.5 -156 c 128,-1,14
 216 -112 216 -112 216 -52 c 2,15,-1
 216 620 l 1,0,-1
EndSplineSet
EndChar

StartChar: uni01B1
Encoding: 433 433 346
Width: 684
GlyphClass: 2
Flags: W
AnchorPoint: "Anchor-0" 342 726 basechar 0
LayerCount: 2
Fore
SplineSet
139 627 m 1,0,-1
 69 627 l 1,1,-1
 69 682 l 1,2,-1
 227 682 l 1,3,4
 227 638 227 638 211.5 600.5 c 128,-1,5
 196 563 196 563 177.5 538 c 128,-1,6
 159 513 159 513 143.5 461 c 128,-1,7
 128 409 128 409 128 340 c 0,8,9
 128 226 128 226 190.5 139.5 c 128,-1,10
 253 53 253 53 342 53 c 128,-1,11
 431 53 431 53 493.5 139.5 c 128,-1,12
 556 226 556 226 556 340 c 0,13,14
 556 409 556 409 540.5 461 c 128,-1,15
 525 513 525 513 506.5 538 c 128,-1,16
 488 563 488 563 472.5 600.5 c 128,-1,17
 457 638 457 638 457 682 c 1,18,-1
 615 682 l 1,19,-1
 615 627 l 1,20,-1
 545 627 l 1,21,22
 552 606 552 606 569 574.5 c 128,-1,23
 586 543 586 543 599.5 517 c 128,-1,24
 613 491 613 491 624 443.5 c 128,-1,25
 635 396 635 396 635 340 c 0,26,27
 635 197 635 197 546.5 90.5 c 128,-1,28
 458 -16 458 -16 342 -16 c 128,-1,29
 226 -16 226 -16 137.5 90.5 c 128,-1,30
 49 197 49 197 49 340 c 0,31,32
 49 396 49 396 60 443.5 c 128,-1,33
 71 491 71 491 84.5 517 c 128,-1,34
 98 543 98 543 115 574.5 c 128,-1,35
 132 606 132 606 139 627 c 1,0,-1
EndSplineSet
EndChar

StartChar: uni01B2
Encoding: 434 434 347
Width: 641
GlyphClass: 2
Flags: W
AnchorPoint: "Anchor-0" 330 726 basechar 0
LayerCount: 2
Fore
SplineSet
458 682 m 1,0,1
 464 676 464 676 473 665.5 c 128,-1,2
 482 655 482 655 506 619.5 c 128,-1,3
 530 584 530 584 548 546.5 c 128,-1,4
 566 509 566 509 581 452.5 c 128,-1,5
 596 396 596 396 596 340 c 0,6,7
 596 194 596 194 519.5 89 c 128,-1,8
 443 -16 443 -16 330 -16 c 0,9,10
 218 -16 218 -16 145 88.5 c 128,-1,11
 72 193 72 193 72 340 c 2,12,-1
 72 682 l 1,13,-1
 151 682 l 1,14,-1
 151 340 l 2,15,16
 151 222 151 222 200 137.5 c 128,-1,17
 249 53 249 53 330 53 c 0,18,19
 413 53 413 53 465 138 c 128,-1,20
 517 223 517 223 517 340 c 0,21,22
 517 398 517 398 499.5 454.5 c 128,-1,23
 482 511 482 511 457 550 c 128,-1,24
 432 589 432 589 407 620.5 c 128,-1,25
 382 652 382 652 364 667 c 2,26,-1
 347 682 l 1,27,-1
 458 682 l 1,0,1
EndSplineSet
EndChar

StartChar: uni01B3
Encoding: 435 435 348
Width: 641
GlyphClass: 2
Flags: W
LayerCount: 2
Fore
SplineSet
549 565 m 0,0,1
 549 589 549 589 531.5 604.5 c 128,-1,2
 514 620 514 620 489 620 c 0,3,4
 441 620 441 620 419 585 c 2,5,-1
 276 347 l 1,6,-1
 276 0 l 1,7,-1
 202 0 l 1,8,-1
 202 350 l 1,9,-1
 3 682 l 1,10,-1
 90 682 l 1,11,-1
 240 432 l 1,12,-1
 353 620 l 2,13,14
 400 697 400 697 493 697 c 0,15,16
 547 697 547 697 582 668.5 c 128,-1,17
 617 640 617 640 625 597 c 0,18,19
 627 585 627 585 627 578 c 0,20,21
 627 521 627 521 579 477 c 1,22,-1
 527 518 l 1,23,24
 549 540 549 540 549 565 c 0,0,1
EndSplineSet
EndChar

StartChar: uni01B4
Encoding: 436 436 349
Width: 622
GlyphClass: 2
Flags: W
LayerCount: 2
Fore
SplineSet
543 366 m 0,0,1
 543 389 543 389 522.5 405.5 c 128,-1,2
 502 422 502 422 480 422 c 0,3,4
 435 422 435 422 410 358 c 2,5,-1
 184 -200 l 1,6,-1
 111 -200 l 1,7,-1
 191 -2 l 1,8,-1
 1 468 l 1,9,-1
 75 468 l 1,10,-1
 228 88 l 1,11,-1
 346 381 l 2,12,13
 366 431 366 431 396.5 457.5 c 128,-1,14
 427 484 427 484 484 484 c 0,15,16
 537 484 537 484 573 451 c 128,-1,17
 609 418 609 418 609 366 c 0,18,19
 609 327 609 327 574 282 c 1,20,-1
 519 311 l 1,21,22
 543 344 543 344 543 366 c 0,0,1
EndSplineSet
EndChar

StartChar: uni01C2
Encoding: 450 450 351
Width: 315
GlyphClass: 2
Flags: W
LayerCount: 2
Fore
SplineSet
180 376 m 1,0,-1
 180 321 l 1,1,-1
 292 321 l 1,2,-1
 292 266 l 1,3,-1
 180 266 l 1,4,-1
 180 -68 l 1,5,-1
 139 -68 l 1,6,-1
 139 266 l 1,7,-1
 23 266 l 1,8,-1
 23 321 l 1,9,-1
 139 321 l 1,10,-1
 139 376 l 1,11,-1
 23 376 l 1,12,-1
 23 430 l 1,13,-1
 139 430 l 1,14,-1
 139 750 l 1,15,-1
 180 750 l 1,16,-1
 180 430 l 1,17,-1
 292 430 l 1,18,-1
 292 376 l 1,19,-1
 180 376 l 1,0,-1
EndSplineSet
EndChar

StartChar: uni01DD
Encoding: 477 477 360
Width: 527
GlyphClass: 2
Flags: W
AnchorPoint: "Anchor-0" 261 567 basechar 0
LayerCount: 2
Fore
SplineSet
426 234 m 1,0,1
 426 311 426 311 376.5 367 c 128,-1,2
 327 423 327 423 262 423 c 0,3,4
 190 423 190 423 157.5 403 c 128,-1,5
 125 383 125 383 99 338 c 1,6,-1
 44 374 l 1,7,8
 80 430 80 430 128 457 c 128,-1,9
 176 484 176 484 260 484 c 0,10,11
 349 484 349 484 421 409.5 c 128,-1,12
 493 335 493 335 493 234 c 128,-1,13
 493 133 493 133 421.5 58.5 c 128,-1,14
 350 -16 350 -16 262 -16 c 0,15,16
 173 -16 173 -16 101 58.5 c 128,-1,17
 29 133 29 133 29 234 c 1,18,-1
 426 234 l 1,0,1
417 173 m 1,19,-1
 107 173 l 1,20,21
 124 118 124 118 167.5 82.5 c 128,-1,22
 211 47 211 47 262 47 c 128,-1,23
 313 47 313 47 356.5 82.5 c 128,-1,24
 400 118 400 118 417 173 c 1,19,-1
EndSplineSet
EndChar

StartChar: uni01EA
Encoding: 490 490 365
Width: 674
GlyphClass: 2
Flags: W
LayerCount: 2
Fore
SplineSet
351 -82 m 0,0,1
 351 -150 351 -150 454 -150 c 0,2,3
 484 -150 484 -150 508 -144 c 1,4,-1
 515 -170 l 1,5,6
 457 -186 457 -186 411 -186 c 0,7,8
 354 -186 354 -186 319.5 -163 c 128,-1,9
 285 -140 285 -140 285 -91 c 0,10,11
 285 -44 285 -44 318 -15 c 1,12,13
 208 -5 208 -5 126 99.5 c 128,-1,14
 44 204 44 204 44 340 c 0,15,16
 44 483 44 483 132.5 590 c 128,-1,17
 221 697 221 697 337 697 c 128,-1,18
 453 697 453 697 541.5 590 c 128,-1,19
 630 483 630 483 630 340 c 0,20,21
 630 216 630 216 561 116.5 c 128,-1,22
 492 17 492 17 394 -9 c 1,23,24
 368 -21 368 -21 359.5 -36 c 128,-1,25
 351 -51 351 -51 351 -82 c 0,0,1
123 340 m 0,26,27
 123 226 123 226 185.5 139.5 c 128,-1,28
 248 53 248 53 337 53 c 128,-1,29
 426 53 426 53 488.5 139.5 c 128,-1,30
 551 226 551 226 551 340 c 0,31,32
 551 455 551 455 488 542 c 128,-1,33
 425 629 425 629 337 629 c 128,-1,34
 249 629 249 629 186 542 c 128,-1,35
 123 455 123 455 123 340 c 0,26,27
EndSplineSet
EndChar

StartChar: uni01EB
Encoding: 491 491 366
Width: 534
GlyphClass: 2
Flags: W
LayerCount: 2
Fore
SplineSet
278 -82 m 0,0,1
 278 -150 278 -150 381 -150 c 0,2,3
 411 -150 411 -150 435 -144 c 1,4,-1
 442 -170 l 1,5,6
 384 -186 384 -186 338 -186 c 0,7,8
 281 -186 281 -186 246.5 -163 c 128,-1,9
 212 -140 212 -140 212 -91 c 0,10,11
 212 -44 212 -44 246 -15 c 1,12,13
 163 -4 163 -4 99 68 c 128,-1,14
 35 140 35 140 35 234 c 0,15,16
 35 335 35 335 106.5 409.5 c 128,-1,17
 178 484 178 484 267 484 c 128,-1,18
 356 484 356 484 427.5 409.5 c 128,-1,19
 499 335 499 335 499 234 c 0,20,21
 499 149 499 149 446.5 80.5 c 128,-1,22
 394 12 394 12 320 -9 c 1,23,24
 294 -20 294 -20 286 -35.5 c 128,-1,25
 278 -51 278 -51 278 -82 c 0,0,1
103 234 m 128,-1,27
 103 157 103 157 152.5 101.5 c 128,-1,28
 202 46 202 46 267 46 c 128,-1,29
 332 46 332 46 381.5 101.5 c 128,-1,30
 431 157 431 157 431 234 c 128,-1,31
 431 311 431 311 381.5 366.5 c 128,-1,32
 332 422 332 422 267 422 c 128,-1,33
 202 422 202 422 152.5 366.5 c 128,-1,26
 103 311 103 311 103 234 c 128,-1,27
EndSplineSet
EndChar

StartChar: uni021C
Encoding: 540 540 380
Width: 465
GlyphClass: 2
Flags: W
LayerCount: 2
Fore
SplineSet
120 300 m 1,0,-1
 120 377 l 1,1,2
 148 390 148 390 189.5 417 c 128,-1,3
 231 444 231 444 274 486.5 c 128,-1,4
 317 529 317 529 317 561 c 0,5,6
 317 594 317 594 290.5 613.5 c 128,-1,7
 264 633 264 633 241 633 c 0,8,9
 206 633 206 633 176.5 624 c 128,-1,10
 147 615 147 615 130.5 602 c 128,-1,11
 114 589 114 589 102 576 c 128,-1,12
 90 563 90 563 86 554 c 2,13,-1
 82 545 l 1,14,-1
 28 590 l 1,15,16
 30 594 30 594 34.5 601.5 c 128,-1,17
 39 609 39 609 56.5 627 c 128,-1,18
 74 645 74 645 96 659 c 128,-1,19
 118 673 118 673 157 684.5 c 128,-1,20
 196 696 196 696 241 696 c 0,21,22
 310 696 310 696 350.5 657.5 c 128,-1,23
 391 619 391 619 391 558 c 0,24,25
 391 504 391 504 308 428 c 1,26,27
 366 403 366 403 398 360 c 128,-1,28
 430 317 430 317 430 268 c 0,29,30
 430 216 430 216 403 170 c 128,-1,31
 376 124 376 124 334 91.5 c 128,-1,32
 292 59 292 59 243.5 33.5 c 128,-1,33
 195 8 195 8 149 -7 c 128,-1,34
 103 -22 103 -22 71.5 -30 c 128,-1,35
 40 -38 40 -38 28 -38 c 1,36,-1
 28 37 l 1,37,38
 38 38 38 38 70 45 c 128,-1,39
 102 52 102 52 152 70 c 128,-1,40
 202 88 202 88 246.5 113 c 128,-1,41
 291 138 291 138 323.5 180 c 128,-1,42
 356 222 356 222 356 271 c 0,43,44
 356 301 356 301 325.5 334.5 c 128,-1,45
 295 368 295 368 259 387 c 1,46,47
 173 322 173 322 120 300 c 1,0,-1
EndSplineSet
EndChar

StartChar: uni021D
Encoding: 541 541 381
Width: 413
GlyphClass: 2
Flags: W
LayerCount: 2
Fore
SplineSet
95 90 m 1,0,-1
 95 173 l 1,1,2
 102 175 102 175 114 179 c 128,-1,3
 126 183 126 183 157 197 c 128,-1,4
 188 211 188 211 211.5 227.5 c 128,-1,5
 235 244 235 244 254 271 c 128,-1,6
 273 298 273 298 273 327 c 0,7,8
 273 362 273 362 251 391.5 c 128,-1,9
 229 421 229 421 209 421 c 0,10,11
 174 421 174 421 145.5 412 c 128,-1,12
 117 403 117 403 102.5 390 c 128,-1,13
 88 377 88 377 78 364 c 128,-1,14
 68 351 68 351 65 342 c 2,15,-1
 62 333 l 1,16,-1
 8 378 l 1,17,18
 10 382 10 382 13.5 389.5 c 128,-1,19
 17 397 17 397 32.5 415 c 128,-1,20
 48 433 48 433 68 447 c 128,-1,21
 88 461 88 461 126 472.5 c 128,-1,22
 164 484 164 484 209 484 c 0,23,24
 275 484 275 484 311 436.5 c 128,-1,25
 347 389 347 389 347 324 c 0,26,27
 347 264 347 264 298 210 c 1,28,29
 336 193 336 193 357 161 c 128,-1,30
 378 129 378 129 378 87 c 0,31,32
 378 39 378 39 357.5 -3 c 128,-1,33
 337 -45 337 -45 304 -74.5 c 128,-1,34
 271 -104 271 -104 231 -128.5 c 128,-1,35
 191 -153 191 -153 151 -167.5 c 128,-1,36
 111 -182 111 -182 78 -192.5 c 128,-1,37
 45 -203 45 -203 24 -207 c 2,38,-1
 4 -211 l 1,39,-1
 4 -122 l 1,40,41
 10 -121 10 -121 21 -119.5 c 128,-1,42
 32 -118 32 -118 63 -111.5 c 128,-1,43
 94 -105 94 -105 122.5 -95.5 c 128,-1,44
 151 -86 151 -86 185.5 -69 c 128,-1,45
 220 -52 220 -52 245 -31 c 128,-1,46
 270 -10 270 -10 287 21.5 c 128,-1,47
 304 53 304 53 304 90 c 0,48,49
 304 118 304 118 284 136 c 128,-1,50
 264 154 264 154 239 160 c 1,51,52
 209 139 209 139 173 121.5 c 128,-1,53
 137 104 137 104 116 97 c 2,54,-1
 95 90 l 1,0,-1
EndSplineSet
EndChar

StartChar: uni0220
Encoding: 544 544 384
Width: 641
GlyphClass: 2
Flags: W
LayerCount: 2
Fore
SplineSet
489 -200 m 1,0,-1
 489 398 l 2,1,2
 489 500 489 500 449 564.5 c 128,-1,3
 409 629 409 629 324 629 c 128,-1,4
 239 629 239 629 199 564.5 c 128,-1,5
 159 500 159 500 159 398 c 2,6,-1
 159 0 l 1,7,-1
 79 0 l 1,8,-1
 79 682 l 1,9,-1
 154 682 l 1,10,-1
 154 631 l 1,11,12
 217 697 217 697 324 697 c 0,13,14
 439 697 439 697 503.5 619 c 128,-1,15
 568 541 568 541 568 398 c 2,16,-1
 568 -200 l 1,17,-1
 489 -200 l 1,0,-1
EndSplineSet
EndChar

StartChar: uni0222
Encoding: 546 546 385
Width: 562
GlyphClass: 2
Flags: W
AnchorPoint: "Anchor-0" 298 726 basechar 0
LayerCount: 2
Fore
SplineSet
281 391 m 1,0,1
 360 414 360 414 383 430 c 0,2,3
 426 458 426 458 426 512 c 0,4,5
 426 526 426 526 419.5 543.5 c 128,-1,6
 413 561 413 561 406 572 c 2,7,-1
 400 582 l 1,8,-1
 469 614 l 1,9,10
 502 558 502 558 502 512 c 0,11,12
 502 411 502 411 391 353 c 1,13,14
 454 327 454 327 488 286.5 c 128,-1,15
 522 246 522 246 522 170 c 0,16,17
 522 84 522 84 450.5 34 c 128,-1,18
 379 -16 379 -16 281 -16 c 128,-1,19
 183 -16 183 -16 111.5 34 c 128,-1,20
 40 84 40 84 40 170 c 0,21,22
 40 246 40 246 74 286.5 c 128,-1,23
 108 327 108 327 171 353 c 1,24,25
 60 411 60 411 60 512 c 0,26,27
 60 601 60 601 123.5 649 c 128,-1,28
 187 697 187 697 294 697 c 1,29,-1
 294 629 l 1,30,31
 136 629 136 629 136 512 c 0,32,33
 136 489 136 489 144.5 471 c 128,-1,34
 153 453 153 453 162 442.5 c 128,-1,35
 171 432 171 432 194 421.5 c 128,-1,36
 217 411 217 411 227 407.5 c 128,-1,37
 237 404 237 404 268 395 c 0,38,39
 277 392 277 392 281 391 c 1,0,1
281 311 m 1,40,41
 188 285 188 285 152 259 c 128,-1,42
 116 233 116 233 116 170 c 0,43,44
 116 114 116 114 165 83.5 c 128,-1,45
 214 53 214 53 281 53 c 128,-1,46
 348 53 348 53 397 83.5 c 128,-1,47
 446 114 446 114 446 170 c 0,48,49
 446 233 446 233 410 259 c 128,-1,50
 374 285 374 285 281 311 c 1,40,41
EndSplineSet
EndChar

StartChar: uni0223
Encoding: 547 547 386
Width: 520
GlyphClass: 2
Flags: W
AnchorPoint: "Anchor-0" 260 682 basechar 0
LayerCount: 2
Fore
SplineSet
260 392 m 1,0,-1
 248 388 l 1,1,2
 177 362 177 362 143.5 313.5 c 128,-1,3
 110 265 110 265 110 210 c 0,4,5
 110 134 110 134 152.5 93.5 c 128,-1,6
 195 53 195 53 260 53 c 128,-1,7
 325 53 325 53 367.5 93.5 c 128,-1,8
 410 134 410 134 410 210 c 0,9,10
 410 265 410 265 376.5 313.5 c 128,-1,11
 343 362 343 362 272 388 c 1,12,-1
 260 392 l 1,0,-1
176 436 m 1,13,14
 54 520 54 520 54 652 c 1,15,-1
 130 652 l 1,16,17
 130 548 130 548 260 477 c 1,18,19
 390 548 390 548 390 652 c 1,20,-1
 466 652 l 1,21,22
 466 520 466 520 344 436 c 1,23,24
 412 399 412 399 449 347 c 128,-1,25
 486 295 486 295 486 210 c 0,26,27
 486 101 486 101 421.5 42.5 c 128,-1,28
 357 -16 357 -16 260 -16 c 128,-1,29
 163 -16 163 -16 98.5 42.5 c 128,-1,30
 34 101 34 101 34 210 c 0,31,32
 34 295 34 295 71 347 c 128,-1,33
 108 399 108 399 176 436 c 1,13,14
EndSplineSet
EndChar

StartChar: uni0228
Encoding: 552 552 389
Width: 503
GlyphClass: 2
Flags: W
LayerCount: 2
Fore
SplineSet
79 0 m 1,0,-1
 79 682 l 1,1,-1
 461 682 l 1,2,-1
 461 619 l 1,3,-1
 154 619 l 1,4,-1
 154 401 l 1,5,-1
 394 401 l 1,6,-1
 394 340 l 1,7,-1
 154 340 l 1,8,-1
 154 62 l 1,9,-1
 464 62 l 1,10,-1
 464 0 l 1,11,-1
 297 0 l 1,12,-1
 264 -68 l 1,13,14
 318 -68 318 -68 344.5 -86 c 128,-1,15
 371 -104 371 -104 371 -125 c 0,16,17
 371 -200 371 -200 166 -200 c 1,18,-1
 166 -173 l 1,19,20
 216 -173 216 -173 261 -161.5 c 128,-1,21
 306 -150 306 -150 306 -131 c 0,22,23
 306 -121 306 -121 299 -115.5 c 128,-1,24
 292 -110 292 -110 268 -106.5 c 128,-1,25
 244 -103 244 -103 198 -103 c 1,26,-1
 246 0 l 1,27,-1
 79 0 l 1,0,-1
EndSplineSet
EndChar

StartChar: uni0229
Encoding: 553 553 390
Width: 528
GlyphClass: 2
Flags: W
LayerCount: 2
Fore
SplineSet
113 296 m 1,0,-1
 421 296 l 1,1,2
 404 351 404 351 361 386.5 c 128,-1,3
 318 422 318 422 267 422 c 128,-1,4
 216 422 216 422 173 386.5 c 128,-1,5
 130 351 130 351 113 296 c 1,0,-1
103 234 m 1,6,7
 103 157 103 157 152.5 101.5 c 128,-1,8
 202 46 202 46 267 46 c 0,9,10
 339 46 339 46 371.5 66 c 128,-1,11
 404 86 404 86 430 131 c 1,12,-1
 484 95 l 1,13,14
 449 42 449 42 405.5 14.5 c 128,-1,15
 362 -13 362 -13 287 -16 c 1,16,-1
 261 -68 l 1,17,18
 315 -68 315 -68 342 -86 c 128,-1,19
 369 -104 369 -104 369 -125 c 0,20,21
 369 -200 369 -200 163 -200 c 1,22,-1
 163 -173 l 1,23,24
 213 -173 213 -173 258 -161.5 c 128,-1,25
 303 -150 303 -150 303 -131 c 0,26,27
 303 -121 303 -121 296 -115.5 c 128,-1,28
 289 -110 289 -110 265 -106.5 c 128,-1,29
 241 -103 241 -103 195 -103 c 1,30,-1
 237 -13 l 1,31,32
 156 1 156 1 95.5 72 c 128,-1,33
 35 143 35 143 35 234 c 0,34,35
 35 335 35 335 106.5 409.5 c 128,-1,36
 178 484 178 484 267 484 c 128,-1,37
 356 484 356 484 427.5 409.5 c 128,-1,38
 499 335 499 335 499 234 c 1,39,-1
 103 234 l 1,6,7
EndSplineSet
EndChar

StartChar: uni0237
Encoding: 567 567 397
Width: 194
GlyphClass: 2
Flags: W
AnchorPoint: "Anchor-0" 99 567 basechar 0
LayerCount: 2
Fore
SplineSet
-45 -138 m 1,0,-1
 -17 -138 l 2,1,2
 17 -138 17 -138 40 -112.5 c 128,-1,3
 63 -87 63 -87 63 -52 c 2,4,-1
 63 468 l 1,5,-1
 131 468 l 1,6,-1
 131 -52 l 2,7,8
 131 -114 131 -114 87.5 -157 c 128,-1,9
 44 -200 44 -200 -17 -200 c 2,10,-1
 -45 -200 l 1,11,-1
 -45 -138 l 1,0,-1
EndSplineSet
EndChar

StartChar: uni023B
Encoding: 571 571 398
Width: 593
GlyphClass: 2
Flags: W
LayerCount: 2
Fore
SplineSet
553 144 m 1,0,1
 460 -16 460 -16 326 -16 c 0,2,3
 228 -16 228 -16 153 64 c 1,4,-1
 111 0 l 1,5,-1
 57 0 l 1,6,-1
 123 100 l 1,7,8
 51 202 51 202 51 340 c 0,9,10
 51 485 51 485 131.5 591 c 128,-1,11
 212 697 212 697 326 697 c 0,12,13
 409 697 409 697 477 635 c 1,14,-1
 508 682 l 1,15,-1
 563 682 l 1,16,-1
 509 601 l 1,17,18
 526 581 526 581 541 557 c 1,19,-1
 482 515 l 1,20,21
 472 531 472 531 467 538 c 1,22,-1
 193 124 l 1,23,24
 248 53 248 53 326 53 c 0,25,26
 420 53 420 53 488 179 c 1,27,-1
 553 144 l 1,0,1
167 166 m 1,28,-1
 437 575 l 1,29,30
 386 629 386 629 326 629 c 0,31,32
 239 629 239 629 183 543 c 128,-1,33
 127 457 127 457 127 340 c 0,34,35
 127 244 127 244 167 166 c 1,28,-1
EndSplineSet
EndChar

StartChar: uni023C
Encoding: 572 572 399
Width: 481
GlyphClass: 2
Flags: W
LayerCount: 2
Fore
SplineSet
55 -93 m 1,0,-1
 -7 -93 l 1,1,-1
 97 73 l 1,2,3
 38 143 38 143 38 234 c 0,4,5
 38 335 38 335 109.5 409.5 c 128,-1,6
 181 484 181 484 270 484 c 0,7,8
 307 484 307 484 345 468 c 1,9,-1
 407 567 l 1,10,-1
 470 567 l 1,11,-1
 392 443 l 1,12,13
 421 423 421 423 447 390 c 1,14,-1
 397 351 l 1,15,16
 379 375 379 375 359 391 c 1,17,-1
 169 88 l 1,18,19
 216 46 216 46 270 46 c 0,20,21
 322 46 322 46 350.5 61.5 c 128,-1,22
 379 77 379 77 405 111 c 1,23,-1
 458 74 l 1,24,25
 422 29 422 29 379.5 6.5 c 128,-1,26
 337 -16 337 -16 272 -16 c 0,27,28
 201 -16 201 -16 136 36 c 1,29,-1
 55 -93 l 1,0,-1
134 131 m 1,30,-1
 312 416 l 1,31,32
 292 422 292 422 270 422 c 0,33,34
 205 422 205 422 155.5 366.5 c 128,-1,35
 106 311 106 311 106 234 c 0,36,37
 106 179 106 179 134 131 c 1,30,-1
EndSplineSet
EndChar

StartChar: uni0241
Encoding: 577 577 400
Width: 460
GlyphClass: 2
Flags: W
LayerCount: 2
Fore
SplineSet
176 166 m 2,0,1
 176 220 176 220 194.5 258.5 c 128,-1,2
 213 297 213 297 239 320.5 c 128,-1,3
 265 344 265 344 291 366 c 128,-1,4
 317 388 317 388 335.5 422.5 c 128,-1,5
 354 457 354 457 354 504 c 0,6,7
 354 560 354 560 317.5 597.5 c 128,-1,8
 281 635 281 635 219 635 c 0,9,10
 174 635 174 635 140.5 610 c 128,-1,11
 107 585 107 585 92 539 c 1,12,-1
 29 559 l 1,13,14
 51 622 51 622 104.5 659.5 c 128,-1,15
 158 697 158 697 219 697 c 0,16,17
 305 697 305 697 363.5 641.5 c 128,-1,18
 422 586 422 586 422 504 c 0,19,20
 422 450 422 450 403.5 411.5 c 128,-1,21
 385 373 385 373 359 349.5 c 128,-1,22
 333 326 333 326 307 304 c 128,-1,23
 281 282 281 282 262.5 247.5 c 128,-1,24
 244 213 244 213 244 166 c 2,25,-1
 244 0 l 1,26,-1
 176 0 l 1,27,-1
 176 166 l 2,0,1
EndSplineSet
EndChar

StartChar: uni0242
Encoding: 578 578 401
Width: 448
GlyphClass: 2
Flags: W
LayerCount: 2
Fore
SplineSet
168 64 m 2,0,1
 168 123 168 123 186.5 161 c 128,-1,2
 205 199 205 199 231 215.5 c 128,-1,3
 257 232 257 232 283 244.5 c 128,-1,4
 309 257 309 257 327.5 277.5 c 128,-1,5
 346 298 346 298 346 332 c 0,6,7
 346 374 346 374 310.5 398 c 128,-1,8
 275 422 275 422 211 422 c 0,9,10
 166 422 166 422 132.5 397 c 128,-1,11
 99 372 99 372 84 326 c 1,12,-1
 21 346 l 1,13,14
 43 409 43 409 96.5 446.5 c 128,-1,15
 150 484 150 484 211 484 c 0,16,17
 303 484 303 484 358.5 446.5 c 128,-1,18
 414 409 414 409 414 332 c 0,19,20
 414 280 414 280 395.5 250.5 c 128,-1,21
 377 221 377 221 351 209 c 128,-1,22
 325 197 325 197 299 185.5 c 128,-1,23
 273 174 273 174 254.5 144.5 c 128,-1,24
 236 115 236 115 236 64 c 2,25,-1
 236 0 l 1,26,-1
 168 0 l 1,27,-1
 168 64 l 2,0,1
EndSplineSet
EndChar

StartChar: uni0243
Encoding: 579 579 402
Width: 575
GlyphClass: 2
Flags: W
LayerCount: 2
Fore
SplineSet
154 619 m 1,0,-1
 154 401 l 1,1,-1
 281 401 l 2,2,3
 341 401 341 401 374.5 434 c 128,-1,4
 408 467 408 467 408 511 c 128,-1,5
 408 555 408 555 375 587 c 128,-1,6
 342 619 342 619 281 619 c 2,7,-1
 154 619 l 1,0,-1
154 184 m 1,8,-1
 154 62 l 1,9,-1
 297 62 l 2,10,11
 365 62 365 62 409.5 98 c 128,-1,12
 454 134 454 134 454 200 c 128,-1,13
 454 266 454 266 409.5 302 c 128,-1,14
 365 338 365 338 297 338 c 2,15,-1
 154 338 l 1,16,-1
 154 232 l 1,17,-1
 315 232 l 1,18,-1
 315 184 l 1,19,-1
 154 184 l 1,8,-1
79 184 m 1,20,-1
 43 184 l 1,21,-1
 43 232 l 1,22,-1
 79 232 l 1,23,-1
 79 682 l 1,24,-1
 281 682 l 2,25,26
 369 682 369 682 429.5 634 c 128,-1,27
 490 586 490 586 490 511 c 0,28,29
 490 426 490 426 415 377 c 1,30,31
 536 325 536 325 536 200 c 0,32,33
 536 134 536 134 500 87.5 c 128,-1,34
 464 41 464 41 412 20.5 c 128,-1,35
 360 0 360 0 299 0 c 2,36,-1
 79 0 l 1,37,-1
 79 184 l 1,20,-1
EndSplineSet
EndChar

StartChar: uni0244
Encoding: 580 580 403
Width: 636
GlyphClass: 2
Flags: W
AnchorPoint: "Anchor-0" 318 726 basechar 0
LayerCount: 2
Fore
SplineSet
37 420 m 1,0,-1
 37 468 l 1,1,-1
 73 468 l 1,2,-1
 73 682 l 1,3,-1
 153 682 l 1,4,-1
 153 468 l 1,5,-1
 483 468 l 1,6,-1
 483 682 l 1,7,-1
 562 682 l 1,8,-1
 562 468 l 1,9,-1
 609 468 l 1,10,-1
 609 420 l 1,11,-1
 562 420 l 1,12,-1
 562 283 l 2,13,14
 562 140 562 140 497.5 62 c 128,-1,15
 433 -16 433 -16 318 -16 c 0,16,17
 202 -16 202 -16 137.5 62 c 128,-1,18
 73 140 73 140 73 283 c 2,19,-1
 73 420 l 1,20,-1
 37 420 l 1,0,-1
483 420 m 1,21,-1
 153 420 l 1,22,-1
 153 283 l 2,23,24
 153 181 153 181 193 117 c 128,-1,25
 233 53 233 53 318 53 c 128,-1,26
 403 53 403 53 443 117 c 128,-1,27
 483 181 483 181 483 283 c 2,28,-1
 483 420 l 1,21,-1
EndSplineSet
EndChar

StartChar: uni0248
Encoding: 584 584 405
Width: 497
GlyphClass: 2
Flags: W
LayerCount: 2
Fore
SplineSet
246 328 m 1,0,-1
 246 370 l 1,1,-1
 341 370 l 1,2,-1
 341 682 l 1,3,-1
 416 682 l 1,4,-1
 416 370 l 1,5,-1
 500 370 l 1,6,-1
 500 328 l 1,7,-1
 416 328 l 1,8,-1
 416 205 l 2,9,10
 416 105 416 105 355 44.5 c 128,-1,11
 294 -16 294 -16 205 -16 c 0,12,13
 144 -16 144 -16 91.5 23.5 c 128,-1,14
 39 63 39 63 12 127 c 1,15,-1
 75 157 l 1,16,17
 90 109 90 109 123.5 81.5 c 128,-1,18
 157 54 157 54 203 54 c 0,19,20
 341 54 341 54 341 205 c 2,21,-1
 341 328 l 1,22,-1
 246 328 l 1,0,-1
EndSplineSet
EndChar

StartChar: uni0249
Encoding: 585 585 406
Width: 245
GlyphClass: 2
Flags: W
LayerCount: 2
Fore
SplineSet
-17 -138 m 1,0,-1
 11 -138 l 2,1,2
 45 -138 45 -138 68 -112.5 c 128,-1,3
 91 -87 91 -87 91 -52 c 2,4,-1
 91 236 l 1,5,-1
 19 236 l 1,6,-1
 19 278 l 1,7,-1
 91 278 l 1,8,-1
 91 468 l 1,9,-1
 159 468 l 1,10,-1
 159 278 l 1,11,-1
 219 278 l 1,12,-1
 219 236 l 1,13,-1
 159 236 l 1,14,-1
 159 -52 l 2,15,16
 159 -114 159 -114 115.5 -157 c 128,-1,17
 72 -200 72 -200 11 -200 c 2,18,-1
 -17 -200 l 1,19,-1
 -17 -138 l 1,0,-1
71 613 m 128,-1,21
 71 636 71 636 86.5 651.5 c 128,-1,22
 102 667 102 667 125 667 c 128,-1,23
 148 667 148 667 163.5 651.5 c 128,-1,24
 179 636 179 636 179 613 c 128,-1,25
 179 590 179 590 163.5 574.5 c 128,-1,26
 148 559 148 559 125 559 c 128,-1,27
 102 559 102 559 86.5 574.5 c 128,-1,20
 71 590 71 590 71 613 c 128,-1,21
EndSplineSet
EndChar

StartChar: uni024A
Encoding: 586 586 407
Width: 707
GlyphClass: 2
Flags: W
LayerCount: 2
Fore
SplineSet
42 340 m 128,-1,1
 42 483 42 483 130.5 590 c 128,-1,2
 219 697 219 697 335 697 c 0,3,4
 397 697 397 697 454.5 663 c 128,-1,5
 512 629 512 629 554 571 c 1,6,-1
 554 682 l 1,7,-1
 629 682 l 1,8,-1
 628 -52 l 2,9,10
 628 -86 628 -86 653 -109 c 128,-1,11
 678 -132 678 -132 713 -132 c 2,12,-1
 740 -132 l 1,13,-1
 740 -200 l 1,14,-1
 713 -200 l 2,15,16
 650 -200 650 -200 602 -156.5 c 128,-1,17
 554 -113 554 -113 554 -52 c 2,18,-1
 554 109 l 1,19,20
 512 51 512 51 454.5 17.5 c 128,-1,21
 397 -16 397 -16 335 -16 c 0,22,23
 219 -16 219 -16 130.5 90.5 c 128,-1,0
 42 197 42 197 42 340 c 128,-1,1
121 340 m 0,24,25
 121 226 121 226 183.5 139.5 c 128,-1,26
 246 53 246 53 335 53 c 128,-1,27
 424 53 424 53 486.5 139.5 c 128,-1,28
 549 226 549 226 549 340 c 0,29,30
 549 455 549 455 486 542 c 128,-1,31
 423 629 423 629 335 629 c 128,-1,32
 247 629 247 629 184 542 c 128,-1,33
 121 455 121 455 121 340 c 0,24,25
EndSplineSet
EndChar

StartChar: uni024B
Encoding: 587 587 408
Width: 561
GlyphClass: 2
Flags: W
LayerCount: 2
Fore
SplineSet
498 -52 m 2,0,1
 498 -86 498 -86 523.5 -109 c 128,-1,2
 549 -132 549 -132 584 -132 c 2,3,-1
 611 -132 l 1,4,-1
 611 -200 l 1,5,-1
 584 -200 l 2,6,7
 522 -200 522 -200 476 -156.5 c 128,-1,8
 430 -113 430 -113 430 -52 c 2,9,-1
 430 61 l 1,10,11
 359 -16 359 -16 268 -16 c 0,12,13
 179 -16 179 -16 106.5 58.5 c 128,-1,14
 34 133 34 133 34 234 c 128,-1,15
 34 335 34 335 105.5 409.5 c 128,-1,16
 177 484 177 484 266 484 c 0,17,18
 358 484 358 484 430 406 c 1,19,-1
 430 468 l 1,20,-1
 498 468 l 1,21,-1
 498 -52 l 2,0,1
102 234 m 128,-1,23
 102 157 102 157 151.5 101.5 c 128,-1,24
 201 46 201 46 266 46 c 128,-1,25
 331 46 331 46 380.5 101.5 c 128,-1,26
 430 157 430 157 430 234 c 128,-1,27
 430 311 430 311 380.5 366.5 c 128,-1,28
 331 422 331 422 266 422 c 128,-1,29
 201 422 201 422 151.5 366.5 c 128,-1,22
 102 311 102 311 102 234 c 128,-1,23
EndSplineSet
EndChar

StartChar: uni024C
Encoding: 588 588 409
Width: 661
GlyphClass: 2
Flags: W
LayerCount: 2
Fore
SplineSet
234 619 m 1,0,-1
 234 344 l 1,1,-1
 377 344 l 2,2,3
 445 344 445 344 489.5 379.5 c 128,-1,4
 534 415 534 415 534 481 c 128,-1,5
 534 547 534 547 489.5 583 c 128,-1,6
 445 619 445 619 377 619 c 2,7,-1
 234 619 l 1,0,-1
159 344 m 1,8,-1
 159 682 l 1,9,-1
 377 682 l 2,10,11
 438 682 438 682 490.5 661.5 c 128,-1,12
 543 641 543 641 579.5 594 c 128,-1,13
 616 547 616 547 616 481 c 0,14,15
 616 405 616 405 571.5 357 c 128,-1,16
 527 309 527 309 457 291 c 1,17,-1
 625 0 l 1,18,-1
 542 0 l 1,19,-1
 380 281 l 1,20,-1
 379 281 l 1,21,-1
 234 281 l 1,22,-1
 234 0 l 1,23,-1
 159 0 l 1,24,-1
 159 281 l 1,25,-1
 9 281 l 1,26,-1
 9 344 l 1,27,-1
 159 344 l 1,8,-1
EndSplineSet
EndChar

StartChar: uni0251
Encoding: 593 593 410
Width: 554
GlyphClass: 2
Flags: W
AnchorPoint: "Anchor-0" 258 567 basechar 0
LayerCount: 2
Fore
SplineSet
35 234 m 128,-1,1
 35 337 35 337 97.5 410.5 c 128,-1,2
 160 484 160 484 247 484 c 0,3,4
 459 484 459 484 459 331 c 2,5,-1
 459 147 l 2,6,7
 459 112 459 112 481.5 89.5 c 128,-1,8
 504 67 504 67 538 67 c 1,9,-1
 538 0 l 1,10,11
 498 0 498 0 464.5 19 c 128,-1,12
 431 38 431 38 412 71 c 1,13,14
 360 -16 360 -16 249 -16 c 0,15,16
 162 -16 162 -16 98.5 57.5 c 128,-1,0
 35 131 35 131 35 234 c 128,-1,1
103 234 m 128,-1,18
 103 157 103 157 147 101.5 c 128,-1,19
 191 46 191 46 247 46 c 0,20,21
 276 46 276 46 299.5 57 c 128,-1,22
 323 68 323 68 338 84 c 128,-1,23
 353 100 353 100 363.5 126 c 128,-1,24
 374 152 374 152 379 174.5 c 128,-1,25
 384 197 384 197 387 230 c 128,-1,26
 390 263 390 263 390.5 282 c 128,-1,27
 391 301 391 301 391 331 c 0,28,29
 391 422 391 422 247 422 c 0,30,31
 189 422 189 422 146 366.5 c 128,-1,17
 103 311 103 311 103 234 c 128,-1,18
EndSplineSet
EndChar

StartChar: uni0253
Encoding: 595 595 411
Width: 561
GlyphClass: 2
Flags: W
LayerCount: 2
Fore
SplineSet
131 63 m 1,0,-1
 131 0 l 1,1,-1
 63 0 l 1,2,-1
 63 594 l 2,3,4
 63 656 63 656 105.5 698.5 c 128,-1,5
 148 741 148 741 210 741 c 2,6,-1
 280 741 l 1,7,-1
 280 674 l 1,8,-1
 210 674 l 2,9,10
 176 674 176 674 153.5 651.5 c 128,-1,11
 131 629 131 629 131 594 c 2,12,-1
 131 406 l 1,13,14
 202 484 202 484 295 484 c 0,15,16
 384 484 384 484 455.5 409.5 c 128,-1,17
 527 335 527 335 527 234 c 128,-1,18
 527 133 527 133 456 58.5 c 128,-1,19
 385 -16 385 -16 297 -16 c 0,20,21
 204 -16 204 -16 131 63 c 1,0,-1
131 234 m 128,-1,23
 131 157 131 157 180.5 101.5 c 128,-1,24
 230 46 230 46 295 46 c 128,-1,25
 360 46 360 46 409.5 101.5 c 128,-1,26
 459 157 459 157 459 234 c 128,-1,27
 459 311 459 311 409.5 366.5 c 128,-1,28
 360 422 360 422 295 422 c 128,-1,29
 230 422 230 422 180.5 366.5 c 128,-1,22
 131 311 131 311 131 234 c 128,-1,23
EndSplineSet
EndChar

StartChar: uni0254
Encoding: 596 596 412
Width: 476
GlyphClass: 2
Flags: W
AnchorPoint: "Anchor-0" 210 567 basechar 0
LayerCount: 2
Fore
SplineSet
22 394 m 1,0,1
 58 439 58 439 100.5 461.5 c 128,-1,2
 143 484 143 484 208 484 c 0,3,4
 297 484 297 484 369.5 409.5 c 128,-1,5
 442 335 442 335 442 234 c 128,-1,6
 442 133 442 133 370.5 58.5 c 128,-1,7
 299 -16 299 -16 210 -16 c 0,8,9
 161 -16 161 -16 114 9.5 c 128,-1,10
 67 35 67 35 33 78 c 1,11,-1
 83 117 l 1,12,13
 133 46 133 46 210 46 c 0,14,15
 275 46 275 46 324.5 101.5 c 128,-1,16
 374 157 374 157 374 234 c 128,-1,17
 374 311 374 311 324.5 366.5 c 128,-1,18
 275 422 275 422 210 422 c 0,19,20
 158 422 158 422 129.5 406.5 c 128,-1,21
 101 391 101 391 75 357 c 1,22,-1
 22 394 l 1,0,1
EndSplineSet
EndChar

StartChar: uni0256
Encoding: 598 598 413
Width: 561
GlyphClass: 2
Flags: W
LayerCount: 2
Fore
SplineSet
498 -53 m 2,0,1
 498 -88 498 -88 520.5 -110.5 c 128,-1,2
 543 -133 543 -133 577 -133 c 2,3,-1
 648 -133 l 1,4,-1
 648 -200 l 1,5,-1
 577 -200 l 2,6,7
 516 -200 516 -200 473 -157 c 128,-1,8
 430 -114 430 -114 430 -53 c 2,9,-1
 430 61 l 1,10,11
 359 -16 359 -16 268 -16 c 0,12,13
 179 -16 179 -16 106.5 58.5 c 128,-1,14
 34 133 34 133 34 234 c 128,-1,15
 34 335 34 335 105.5 409.5 c 128,-1,16
 177 484 177 484 266 484 c 0,17,18
 358 484 358 484 430 406 c 1,19,-1
 430 726 l 1,20,-1
 498 726 l 1,21,-1
 498 -53 l 2,0,1
102 234 m 128,-1,23
 102 157 102 157 151.5 101.5 c 128,-1,24
 201 46 201 46 266 46 c 128,-1,25
 331 46 331 46 380.5 101.5 c 128,-1,26
 430 157 430 157 430 234 c 128,-1,27
 430 311 430 311 380.5 366.5 c 128,-1,28
 331 422 331 422 266 422 c 128,-1,29
 201 422 201 422 151.5 366.5 c 128,-1,22
 102 311 102 311 102 234 c 128,-1,23
EndSplineSet
EndChar

StartChar: uni0257
Encoding: 599 599 414
Width: 561
GlyphClass: 2
Flags: W
LayerCount: 2
Fore
SplineSet
34 234 m 128,-1,1
 34 335 34 335 105.5 409.5 c 128,-1,2
 177 484 177 484 266 484 c 0,3,4
 358 484 358 484 430 406 c 1,5,-1
 430 594 l 2,6,7
 430 656 430 656 473 698.5 c 128,-1,8
 516 741 516 741 577 741 c 2,9,-1
 648 741 l 1,10,-1
 648 674 l 1,11,-1
 577 674 l 2,12,13
 543 674 543 674 520.5 651.5 c 128,-1,14
 498 629 498 629 498 594 c 2,15,-1
 498 0 l 1,16,-1
 430 0 l 1,17,-1
 430 61 l 1,18,19
 359 -16 359 -16 268 -16 c 0,20,21
 179 -16 179 -16 106.5 58.5 c 128,-1,0
 34 133 34 133 34 234 c 128,-1,1
102 234 m 128,-1,23
 102 157 102 157 151.5 101.5 c 128,-1,24
 201 46 201 46 266 46 c 128,-1,25
 331 46 331 46 380.5 101.5 c 128,-1,26
 430 157 430 157 430 234 c 128,-1,27
 430 311 430 311 380.5 366.5 c 128,-1,28
 331 422 331 422 266 422 c 128,-1,29
 201 422 201 422 151.5 366.5 c 128,-1,22
 102 311 102 311 102 234 c 128,-1,23
EndSplineSet
EndChar

StartChar: uni0260
Encoding: 608 608 417
Width: 562
GlyphClass: 2
Flags: W
LayerCount: 2
Fore
SplineSet
498 18 m 2,0,1
 498 -91 498 -91 441.5 -145.5 c 128,-1,2
 385 -200 385 -200 292 -200 c 2,3,-1
 138 -200 l 1,4,-1
 138 -138 l 1,5,-1
 292 -138 l 2,6,7
 358 -138 358 -138 394 -98.5 c 128,-1,8
 430 -59 430 -59 430 18 c 2,9,-1
 430 61 l 1,10,11
 359 -16 359 -16 268 -16 c 0,12,13
 179 -16 179 -16 106.5 58.5 c 128,-1,14
 34 133 34 133 34 234 c 128,-1,15
 34 335 34 335 105.5 409.5 c 128,-1,16
 177 484 177 484 266 484 c 0,17,18
 358 484 358 484 430 406 c 1,19,-1
 430 420 l 2,20,21
 430 482 430 482 473 524.5 c 128,-1,22
 516 567 516 567 577 567 c 2,23,-1
 647 567 l 1,24,-1
 647 500 l 1,25,-1
 577 500 l 2,26,27
 543 500 543 500 520.5 477.5 c 128,-1,28
 498 455 498 455 498 420 c 2,29,-1
 498 18 l 2,0,1
102 234 m 128,-1,31
 102 157 102 157 151.5 101.5 c 128,-1,32
 201 46 201 46 266 46 c 128,-1,33
 331 46 331 46 380.5 101.5 c 128,-1,34
 430 157 430 157 430 234 c 128,-1,35
 430 311 430 311 380.5 366.5 c 128,-1,36
 331 422 331 422 266 422 c 128,-1,37
 201 422 201 422 151.5 366.5 c 128,-1,30
 102 311 102 311 102 234 c 128,-1,31
EndSplineSet
EndChar

StartChar: uni0263
Encoding: 611 611 418
Width: 398
GlyphClass: 2
Flags: W
LayerCount: 2
Fore
SplineSet
76 468 m 1,0,-1
 199 171 l 1,1,-1
 322 468 l 1,2,-1
 397 468 l 1,3,-1
 237 78 l 1,4,-1
 242 67 l 1,5,6
 285 -37 285 -37 285 -96 c 0,7,8
 285 -144 285 -144 263.5 -172 c 128,-1,9
 242 -200 242 -200 199 -200 c 128,-1,10
 156 -200 156 -200 134.5 -172 c 128,-1,11
 113 -144 113 -144 113 -96 c 0,12,13
 113 -72 113 -72 125.5 -23.5 c 128,-1,14
 138 25 138 25 156 67 c 2,15,-1
 161 78 l 1,16,-1
 1 468 l 1,17,-1
 76 468 l 1,0,-1
199 -21 m 1,18,19
 179 -81 179 -81 179 -106 c 0,20,21
 179 -138 179 -138 199 -138 c 128,-1,22
 219 -138 219 -138 219 -106 c 0,23,24
 219 -81 219 -81 199 -21 c 1,18,19
EndSplineSet
EndChar

StartChar: uni0266
Encoding: 614 614 419
Width: 535
GlyphClass: 2
Flags: W
LayerCount: 2
Fore
SplineSet
131 425 m 1,0,1
 188 484 188 484 270 484 c 0,2,3
 359 484 359 484 418 433.5 c 128,-1,4
 477 383 477 383 477 296 c 2,5,-1
 477 0 l 1,6,-1
 409 0 l 1,7,-1
 409 296 l 2,8,9
 409 349 409 349 371 385.5 c 128,-1,10
 333 422 333 422 270 422 c 128,-1,11
 207 422 207 422 169 368 c 128,-1,12
 131 314 131 314 131 234 c 2,13,-1
 131 0 l 1,14,-1
 63 0 l 1,15,-1
 63 579 l 2,16,17
 63 640 63 640 105.5 683 c 128,-1,18
 148 726 148 726 210 726 c 2,19,-1
 280 726 l 1,20,-1
 280 659 l 1,21,-1
 210 659 l 2,22,23
 176 659 176 659 153.5 636.5 c 128,-1,24
 131 614 131 614 131 579 c 2,25,-1
 131 425 l 1,0,1
EndSplineSet
EndChar

StartChar: uni0268
Encoding: 616 616 420
Width: 250
GlyphClass: 2
Flags: W
LayerCount: 2
Fore
SplineSet
71 613 m 128,-1,1
 71 636 71 636 86.5 651.5 c 128,-1,2
 102 667 102 667 125 667 c 128,-1,3
 148 667 148 667 163.5 651.5 c 128,-1,4
 179 636 179 636 179 613 c 128,-1,5
 179 590 179 590 163.5 574.5 c 128,-1,6
 148 559 148 559 125 559 c 128,-1,7
 102 559 102 559 86.5 574.5 c 128,-1,0
 71 590 71 590 71 613 c 128,-1,1
159 236 m 1,8,-1
 159 0 l 1,9,-1
 91 0 l 1,10,-1
 91 236 l 1,11,-1
 25 236 l 1,12,-1
 25 278 l 1,13,-1
 91 278 l 1,14,-1
 91 468 l 1,15,-1
 159 468 l 1,16,-1
 159 278 l 1,17,-1
 225 278 l 1,18,-1
 225 236 l 1,19,-1
 159 236 l 1,8,-1
EndSplineSet
EndChar

StartChar: uni0269
Encoding: 617 617 421
Width: 230
GlyphClass: 2
Flags: W
AnchorPoint: "Anchor-0" 94 567 basechar 0
LayerCount: 2
Fore
SplineSet
217 0 m 1,0,1
 150 0 150 0 104.5 38 c 128,-1,2
 59 76 59 76 59 148 c 2,3,-1
 59 468 l 1,4,-1
 127 468 l 1,5,-1
 127 148 l 2,6,7
 127 68 127 68 217 68 c 1,8,-1
 217 0 l 1,0,1
EndSplineSet
EndChar

StartChar: uni026A
Encoding: 618 618 422
Width: 227
GlyphClass: 2
Flags: W
AnchorPoint: "Anchor-0" 114 567 basechar 0
LayerCount: 2
Fore
SplineSet
186 0 m 1,0,-1
 41 0 l 1,1,-1
 41 48 l 1,2,-1
 76 48 l 1,3,-1
 76 420 l 1,4,-1
 41 420 l 1,5,-1
 41 468 l 1,6,-1
 186 468 l 1,7,-1
 186 420 l 1,8,-1
 151 420 l 1,9,-1
 151 48 l 1,10,-1
 186 48 l 1,11,-1
 186 0 l 1,0,-1
EndSplineSet
EndChar

StartChar: uni026C
Encoding: 620 620 423
Width: 360
GlyphClass: 2
Flags: W
AnchorPoint: "Anchor-0" 174 765 basechar 0
LayerCount: 2
Fore
SplineSet
207 244 m 1,0,1
 246 260 246 260 272.5 297 c 128,-1,2
 299 334 299 334 299 386 c 1,3,-1
 335 386 l 1,4,5
 335 320 335 320 297.5 271.5 c 128,-1,6
 260 223 260 223 207 206 c 1,7,-1
 207 0 l 1,8,-1
 139 0 l 1,9,-1
 139 200 l 1,10,11
 77 205 77 205 43.5 239 c 128,-1,12
 10 273 10 273 10 326 c 0,13,14
 10 358 10 358 32 384 c 128,-1,15
 54 410 54 410 94 410 c 0,16,17
 119 410 119 410 139 396 c 1,18,-1
 139 726 l 1,19,-1
 207 726 l 1,20,-1
 207 244 l 1,0,1
139 236 m 1,21,-1
 139 326 l 2,22,23
 139 347 139 347 125.5 360.5 c 128,-1,24
 112 374 112 374 94 374 c 0,25,26
 73 374 73 374 59.5 362 c 128,-1,27
 46 350 46 350 46 326 c 0,28,29
 46 291 46 291 70.5 266 c 128,-1,30
 95 241 95 241 139 236 c 1,21,-1
EndSplineSet
EndChar

StartChar: uni0272
Encoding: 626 626 424
Width: 535
GlyphClass: 2
Flags: W
LayerCount: 2
Fore
SplineSet
-43 -170 m 1,0,-1
 -43 -107 l 1,1,-1
 -17 -107 l 2,2,3
 17 -107 17 -107 40 -81.5 c 128,-1,4
 63 -56 63 -56 63 -21 c 2,5,-1
 63 468 l 1,6,-1
 131 468 l 1,7,-1
 131 425 l 1,8,9
 188 484 188 484 270 484 c 0,10,11
 359 484 359 484 418 433.5 c 128,-1,12
 477 383 477 383 477 296 c 2,13,-1
 477 0 l 1,14,-1
 409 0 l 1,15,-1
 409 296 l 2,16,17
 409 349 409 349 371 385.5 c 128,-1,18
 333 422 333 422 270 422 c 128,-1,19
 207 422 207 422 169 368 c 128,-1,20
 131 314 131 314 131 234 c 2,21,-1
 131 -21 l 2,22,23
 131 -83 131 -83 87.5 -126.5 c 128,-1,24
 44 -170 44 -170 -17 -170 c 2,25,-1
 -43 -170 l 1,0,-1
EndSplineSet
EndChar

StartChar: uni0279
Encoding: 633 633 426
Width: 472
GlyphClass: 2
Flags: W
LayerCount: 2
Fore
SplineSet
341 248 m 1,0,-1
 255 248 l 2,1,2
 189 248 189 248 152 224.5 c 128,-1,3
 115 201 115 201 115 155 c 128,-1,4
 115 109 115 109 152 85.5 c 128,-1,5
 189 62 189 62 255 62 c 2,6,-1
 341 62 l 1,7,-1
 341 248 l 1,0,-1
409 0 m 1,8,-1
 253 0 l 2,9,10
 155 0 155 0 97 40 c 128,-1,11
 39 80 39 80 39 155 c 0,12,13
 39 264 39 264 160 298 c 1,14,-1
 41 468 l 1,15,-1
 124 468 l 1,16,-1
 235 310 l 1,17,-1
 255 310 l 1,18,-1
 341 310 l 1,19,-1
 341 468 l 1,20,-1
 409 468 l 1,21,-1
 409 0 l 1,8,-1
EndSplineSet
EndChar

StartChar: uni027D
Encoding: 637 637 427
Width: 460
GlyphClass: 2
Flags: W
LayerCount: 2
Fore
SplineSet
136 -53 m 2,0,1
 136 -88 136 -88 158.5 -110.5 c 128,-1,2
 181 -133 181 -133 215 -133 c 2,3,-1
 286 -133 l 1,4,-1
 286 -200 l 1,5,-1
 215 -200 l 2,6,7
 154 -200 154 -200 111 -157 c 128,-1,8
 68 -114 68 -114 68 -53 c 2,9,-1
 68 468 l 1,10,-1
 136 468 l 1,11,-1
 136 431 l 1,12,13
 189 484 189 484 265 484 c 0,14,15
 396 484 396 484 442 374 c 1,16,-1
 380 344 l 1,17,18
 348 422 348 422 265 422 c 0,19,20
 203 422 203 422 169.5 369 c 128,-1,21
 136 316 136 316 136 234 c 2,22,-1
 136 -53 l 2,0,1
EndSplineSet
EndChar

StartChar: uni027E
Encoding: 638 638 428
Width: 429
GlyphClass: 2
Flags: W
LayerCount: 2
Fore
SplineSet
369 344 m 1,0,1
 337 422 337 422 254 422 c 0,2,3
 192 422 192 422 158.5 369 c 128,-1,4
 125 316 125 316 125 234 c 2,5,-1
 125 0 l 1,6,-1
 57 0 l 1,7,-1
 57 234 l 2,8,9
 57 348 57 348 112 416 c 128,-1,10
 167 484 167 484 254 484 c 0,11,12
 385 484 385 484 431 374 c 1,13,-1
 369 344 l 1,0,1
EndSplineSet
EndChar

StartChar: uni0283
Encoding: 643 643 429
Width: 194
GlyphClass: 2
Flags: W
LayerCount: 2
Fore
SplineSet
131 -52 m 2,0,1
 131 -113 131 -113 85 -156.5 c 128,-1,2
 39 -200 39 -200 -23 -200 c 2,3,-1
 -50 -200 l 1,4,-1
 -50 -132 l 1,5,-1
 -23 -132 l 2,6,7
 12 -132 12 -132 37.5 -109 c 128,-1,8
 63 -86 63 -86 63 -52 c 2,9,-1
 63 594 l 2,10,11
 63 656 63 656 106.5 699 c 128,-1,12
 150 742 150 742 211 742 c 2,13,-1
 239 742 l 1,14,-1
 239 680 l 1,15,-1
 211 680 l 2,16,17
 177 680 177 680 154 654.5 c 128,-1,18
 131 629 131 629 131 594 c 2,19,-1
 131 -52 l 2,0,1
EndSplineSet
EndChar

StartChar: uni0288
Encoding: 648 648 430
Width: 269
GlyphClass: 2
Flags: W
LayerCount: 2
Fore
SplineSet
153 406 m 1,0,-1
 153 -53 l 2,1,2
 153 -88 153 -88 175.5 -110.5 c 128,-1,3
 198 -133 198 -133 232 -133 c 2,4,-1
 303 -133 l 1,5,-1
 303 -200 l 1,6,-1
 232 -200 l 2,7,8
 170 -200 170 -200 127.5 -157 c 128,-1,9
 85 -114 85 -114 85 -53 c 2,10,-1
 85 406 l 1,11,-1
 25 406 l 1,12,-1
 25 468 l 1,13,-1
 85 468 l 1,14,-1
 85 623 l 1,15,-1
 153 623 l 1,16,-1
 153 468 l 1,17,-1
 261 468 l 1,18,-1
 261 406 l 1,19,-1
 153 406 l 1,0,-1
EndSplineSet
EndChar

StartChar: uni0289
Encoding: 649 649 431
Width: 561
GlyphClass: 2
Flags: W
AnchorPoint: "Anchor-0" 277 567 basechar 0
LayerCount: 2
Fore
SplineSet
29 236 m 1,0,-1
 29 278 l 1,1,-1
 73 278 l 1,2,-1
 73 468 l 1,3,-1
 140 468 l 1,4,-1
 140 278 l 1,5,-1
 418 278 l 1,6,-1
 418 468 l 1,7,-1
 487 468 l 1,8,-1
 487 278 l 1,9,-1
 532 278 l 1,10,-1
 532 236 l 1,11,-1
 487 236 l 1,12,-1
 487 0 l 1,13,-1
 418 0 l 1,14,-1
 418 41 l 1,15,16
 360 -17 360 -17 280 -17 c 0,17,18
 191 -17 191 -17 132 34 c 128,-1,19
 73 85 73 85 73 172 c 2,20,-1
 73 236 l 1,21,-1
 29 236 l 1,0,-1
418 236 m 1,22,-1
 140 236 l 1,23,-1
 140 172 l 2,24,25
 140 119 140 119 178.5 82.5 c 128,-1,26
 217 46 217 46 280 46 c 128,-1,27
 343 46 343 46 380.5 99.5 c 128,-1,28
 418 153 418 153 418 233 c 2,29,-1
 418 236 l 1,22,-1
EndSplineSet
EndChar

StartChar: uni028A
Encoding: 650 650 432
Width: 556
GlyphClass: 2
Flags: W
AnchorPoint: "Anchor-0" 278 567 basechar 0
LayerCount: 2
Fore
SplineSet
516 468 m 1,0,-1
 516 413 l 1,1,-1
 440 413 l 1,2,3
 445 404 445 404 460.5 379 c 128,-1,4
 476 354 476 354 484.5 336.5 c 128,-1,5
 493 319 493 319 501.5 285.5 c 128,-1,6
 510 252 510 252 510 214 c 0,7,8
 510 113 510 113 443.5 48.5 c 128,-1,9
 377 -16 377 -16 280 -16 c 128,-1,10
 183 -16 183 -16 114.5 48.5 c 128,-1,11
 46 113 46 113 46 214 c 0,12,13
 46 252 46 252 54 286 c 128,-1,14
 62 320 62 320 70.5 337 c 128,-1,15
 79 354 79 354 94.5 379 c 128,-1,16
 110 404 110 404 115 413 c 1,17,-1
 40 413 l 1,18,-1
 40 468 l 1,19,-1
 198 468 l 1,20,21
 198 438 198 438 185 408.5 c 128,-1,22
 172 379 172 379 156 356.5 c 128,-1,23
 140 334 140 334 127 296 c 128,-1,24
 114 258 114 258 114 214 c 0,25,26
 114 139 114 139 162.5 92.5 c 128,-1,27
 211 46 211 46 278 46 c 128,-1,28
 345 46 345 46 393.5 92.5 c 128,-1,29
 442 139 442 139 442 214 c 0,30,31
 442 258 442 258 429 296 c 128,-1,32
 416 334 416 334 400 356.5 c 128,-1,33
 384 379 384 379 371 408.5 c 128,-1,34
 358 438 358 438 358 468 c 1,35,-1
 516 468 l 1,0,-1
EndSplineSet
EndChar

StartChar: uni028B
Encoding: 651 651 433
Width: 518
GlyphClass: 2
Flags: W
AnchorPoint: "Anchor-0" 229 568 basechar 0
LayerCount: 2
Fore
SplineSet
371 468 m 1,0,1
 375 464 375 464 382.5 456 c 128,-1,2
 390 448 390 448 409 422 c 128,-1,3
 428 396 428 396 442.5 368 c 128,-1,4
 457 340 457 340 469 298 c 128,-1,5
 481 256 481 256 481 214 c 0,6,7
 481 110 481 110 423.5 47 c 128,-1,8
 366 -16 366 -16 271 -16 c 128,-1,9
 176 -16 176 -16 116.5 47.5 c 128,-1,10
 57 111 57 111 57 214 c 2,11,-1
 57 468 l 1,12,-1
 125 468 l 1,13,-1
 125 214 l 2,14,15
 125 137 125 137 164.5 91.5 c 128,-1,16
 204 46 204 46 269 46 c 128,-1,17
 334 46 334 46 373.5 91.5 c 128,-1,18
 413 137 413 137 413 214 c 0,19,20
 413 250 413 250 400 290 c 128,-1,21
 387 330 387 330 368.5 360 c 128,-1,22
 350 390 350 390 331.5 415.5 c 128,-1,23
 313 441 313 441 300 454 c 2,24,-1
 287 468 l 1,25,-1
 371 468 l 1,0,1
EndSplineSet
EndChar

StartChar: uni028C
Encoding: 652 652 434
Width: 459
GlyphClass: 2
Flags: W
AnchorPoint: "Anchor-0" 231 567 basechar 0
LayerCount: 2
Fore
SplineSet
267 468 m 1,0,-1
 456 0 l 1,1,-1
 382 0 l 1,2,-1
 229 380 l 1,3,-1
 76 0 l 1,4,-1
 2 0 l 1,5,-1
 192 468 l 1,6,-1
 267 468 l 1,0,-1
EndSplineSet
EndChar

StartChar: uni0294
Encoding: 660 660 436
Width: 487
GlyphClass: 2
Flags: W
LayerCount: 2
Fore
SplineSet
167 166 m 2,0,1
 167 220 167 220 185.5 258.5 c 128,-1,2
 204 297 204 297 230 320.5 c 128,-1,3
 256 344 256 344 282 366 c 128,-1,4
 308 388 308 388 326.5 422.5 c 128,-1,5
 345 457 345 457 345 504 c 0,6,7
 345 560 345 560 308.5 597.5 c 128,-1,8
 272 635 272 635 210 635 c 0,9,10
 165 635 165 635 131.5 610 c 128,-1,11
 98 585 98 585 83 539 c 1,12,-1
 20 559 l 1,13,14
 42 622 42 622 95.5 659.5 c 128,-1,15
 149 697 149 697 210 697 c 0,16,17
 296 697 296 697 354.5 641.5 c 128,-1,18
 413 586 413 586 413 504 c 0,19,20
 413 450 413 450 394.5 411.5 c 128,-1,21
 376 373 376 373 350 349.5 c 128,-1,22
 324 326 324 326 298 304 c 128,-1,23
 272 282 272 282 253.5 247.5 c 128,-1,24
 235 213 235 213 235 166 c 2,25,-1
 235 0 l 1,26,-1
 167 0 l 1,27,-1
 167 166 l 2,0,1
EndSplineSet
EndChar

StartChar: uni0295
Encoding: 661 661 437
Width: 487
GlyphClass: 2
Flags: W
LayerCount: 2
Fore
SplineSet
320 166 m 2,0,-1
 320 0 l 1,1,-1
 252 0 l 1,2,-1
 252 166 l 2,3,4
 252 213 252 213 233.5 247.5 c 128,-1,5
 215 282 215 282 189 304 c 128,-1,6
 163 326 163 326 137 349.5 c 128,-1,7
 111 373 111 373 92.5 411.5 c 128,-1,8
 74 450 74 450 74 504 c 0,9,10
 74 586 74 586 132.5 641.5 c 128,-1,11
 191 697 191 697 277 697 c 0,12,13
 338 697 338 697 391.5 659.5 c 128,-1,14
 445 622 445 622 467 559 c 1,15,-1
 404 539 l 1,16,17
 389 585 389 585 355.5 610 c 128,-1,18
 322 635 322 635 277 635 c 0,19,20
 215 635 215 635 178.5 597.5 c 128,-1,21
 142 560 142 560 142 504 c 0,22,23
 142 457 142 457 160.5 422.5 c 128,-1,24
 179 388 179 388 205 366 c 128,-1,25
 231 344 231 344 257 320.5 c 128,-1,26
 283 297 283 297 301.5 258.5 c 128,-1,27
 320 220 320 220 320 166 c 2,0,-1
EndSplineSet
EndChar

StartChar: uni02B0
Encoding: 688 688 438
Width: 386
GlyphClass: 2
Flags: W
LayerCount: 2
Fore
SplineSet
324 473 m 2,0,-1
 324 307 l 1,1,-1
 267 307 l 1,2,-1
 267 473 l 2,3,4
 267 496 267 496 246.5 511.5 c 128,-1,5
 226 527 226 527 192 527 c 0,6,7
 157 527 157 527 137 502.5 c 128,-1,8
 117 478 117 478 117 441 c 2,9,-1
 117 307 l 1,10,-1
 60 307 l 1,11,-1
 60 726 l 1,12,-1
 117 726 l 1,13,-1
 117 553 l 1,14,15
 150 575 150 575 192 575 c 0,16,17
 249 575 249 575 286.5 547.5 c 128,-1,18
 324 520 324 520 324 473 c 2,0,-1
EndSplineSet
EndChar

StartChar: uni02B2
Encoding: 690 690 439
Width: 220
GlyphClass: 2
Flags: W
LayerCount: 2
Fore
SplineSet
84 646 m 0,0,1
 84 663 84 663 96.5 674 c 128,-1,2
 109 685 109 685 124 685 c 0,3,4
 141 685 141 685 153 673 c 128,-1,5
 165 661 165 661 165 646 c 0,6,7
 165 630 165 630 152 618.5 c 128,-1,8
 139 607 139 607 124 607 c 0,9,10
 107 607 107 607 95.5 619.5 c 128,-1,11
 84 632 84 632 84 646 c 0,0,1
31 272 m 1,12,-1
 56 272 l 2,13,14
 74 272 74 272 85 282.5 c 128,-1,15
 96 293 96 293 96 307 c 2,16,-1
 96 567 l 1,17,-1
 153 567 l 1,18,-1
 153 307 l 2,19,20
 153 271 153 271 124 248 c 128,-1,21
 95 225 95 225 56 225 c 2,22,-1
 31 225 l 1,23,-1
 31 272 l 1,12,-1
EndSplineSet
EndChar

StartChar: uni02B7
Encoding: 695 695 440
Width: 533
GlyphClass: 2
Flags: W
LayerCount: 2
Fore
SplineSet
134 307 m 1,0,-1
 37 567 l 1,1,-1
 97 567 l 1,2,-1
 162 390 l 1,3,-1
 228 567 l 1,4,-1
 281 567 l 1,5,-1
 346 390 l 1,6,-1
 412 567 l 1,7,-1
 472 567 l 1,8,-1
 375 307 l 1,9,-1
 318 307 l 1,10,-1
 254 476 l 1,11,-1
 191 307 l 1,12,-1
 134 307 l 1,0,-1
EndSplineSet
EndChar

StartChar: uni02B8
Encoding: 696 696 441
Width: 502
GlyphClass: 2
Flags: W
LayerCount: 2
Fore
SplineSet
345 567 m 1,0,-1
 174 217 l 1,1,-1
 113 217 l 1,2,-1
 165 324 l 1,3,-1
 47 567 l 1,4,-1
 109 567 l 1,5,-1
 196 388 l 1,6,-1
 283 567 l 1,7,-1
 345 567 l 1,0,-1
EndSplineSet
EndChar

StartChar: uni02BB
Encoding: 699 699 442
Width: 246
GlyphClass: 2
Flags: W
LayerCount: 2
Fore
SplineSet
166 613 m 0,0,1
 166 591 166 591 150.5 575.5 c 128,-1,2
 135 560 135 560 112 560 c 128,-1,3
 89 560 89 560 73.5 575.5 c 128,-1,4
 58 591 58 591 58 613 c 0,5,6
 58 647 58 647 67.5 677 c 128,-1,7
 77 707 77 707 90.5 725 c 128,-1,8
 104 743 104 743 117 756.5 c 128,-1,9
 130 770 130 770 140 776 c 2,10,-1
 149 781 l 1,11,-1
 165 771 l 1,12,13
 127 733 127 733 112 668 c 1,14,15
 134 668 134 668 150 652 c 128,-1,16
 166 636 166 636 166 613 c 0,0,1
EndSplineSet
EndChar

StartChar: uni02BE
Encoding: 702 702 444
Width: 275
GlyphClass: 2
Flags: W
LayerCount: 2
Fore
SplineSet
58 482 m 1,0,1
 92 482 92 482 115 505 c 128,-1,2
 138 528 138 528 138 562 c 128,-1,3
 138 596 138 596 115 620 c 128,-1,4
 92 644 92 644 58 644 c 1,5,-1
 58 697 l 1,6,7
 114 697 114 697 153.5 657.5 c 128,-1,8
 193 618 193 618 193 562 c 0,9,10
 193 507 193 507 153.5 468 c 128,-1,11
 114 429 114 429 58 429 c 1,12,-1
 58 482 l 1,0,1
EndSplineSet
EndChar

StartChar: uni02BF
Encoding: 703 703 445
Width: 275
GlyphClass: 2
Flags: W
LayerCount: 2
Fore
SplineSet
193 644 m 1,0,1
 159 644 159 644 136 621 c 128,-1,2
 113 598 113 598 113 564 c 128,-1,3
 113 530 113 530 136 506 c 128,-1,4
 159 482 159 482 193 482 c 1,5,-1
 193 429 l 1,6,7
 138 429 138 429 98 468.5 c 128,-1,8
 58 508 58 508 58 564 c 0,9,10
 58 619 58 619 97.5 658 c 128,-1,11
 137 697 137 697 193 697 c 1,12,-1
 193 644 l 1,0,1
EndSplineSet
EndChar

StartChar: uni02C0
Encoding: 704 704 446
Width: 408
GlyphClass: 2
Flags: W
LayerCount: 2
Fore
SplineSet
194 688 m 0,0,1
 129 688 129 688 108 630 c 1,2,-1
 54 644 l 1,3,4
 68 686 68 686 108.5 711 c 128,-1,5
 149 736 149 736 194 736 c 0,6,7
 257 736 257 736 299 701 c 128,-1,8
 341 666 341 666 341 615 c 0,9,10
 341 581 341 581 328 556.5 c 128,-1,11
 315 532 315 532 296.5 518 c 128,-1,12
 278 504 278 504 260 490.5 c 128,-1,13
 242 477 242 477 229 458 c 128,-1,14
 216 439 216 439 216 412 c 2,15,-1
 216 307 l 1,16,-1
 159 307 l 1,17,-1
 159 412 l 2,18,19
 159 446 159 446 172 470.5 c 128,-1,20
 185 495 185 495 203 509 c 128,-1,21
 221 523 221 523 239 536.5 c 128,-1,22
 257 550 257 550 270 569 c 128,-1,23
 283 588 283 588 283 615 c 0,24,25
 283 647 283 647 259 667.5 c 128,-1,26
 235 688 235 688 194 688 c 0,0,1
EndSplineSet
EndChar

StartChar: circumflex
Encoding: 710 710 447
Width: 410
GlyphClass: 2
Flags: W
LayerCount: 2
Fore
SplineSet
78 567 m 1,0,-1
 59 601 l 1,1,-1
 194 725 l 1,2,-1
 330 601 l 1,3,-1
 311 567 l 1,4,-1
 194 644 l 1,5,-1
 78 567 l 1,0,-1
EndSplineSet
EndChar

StartChar: caron
Encoding: 711 711 448
Width: 411
GlyphClass: 2
Flags: W
LayerCount: 2
Fore
SplineSet
310 725 m 1,0,-1
 329 691 l 1,1,-1
 193 567 l 1,2,-1
 58 691 l 1,3,-1
 77 725 l 1,4,-1
 193 648 l 1,5,-1
 310 725 l 1,0,-1
EndSplineSet
EndChar

StartChar: uni02CA
Encoding: 714 714 449
Width: 389
GlyphClass: 2
Flags: W
LayerCount: 2
Fore
SplineSet
59 601 m 1,0,-1
 275 742 l 1,1,-1
 309 684 l 1,2,-1
 79 567 l 1,3,-1
 59 601 l 1,0,-1
EndSplineSet
EndChar

StartChar: uni02CB
Encoding: 715 715 450
Width: 389
GlyphClass: 2
Flags: W
LayerCount: 2
Fore
SplineSet
289 567 m 1,0,-1
 59 684 l 1,1,-1
 93 742 l 1,2,-1
 309 601 l 1,3,-1
 289 567 l 1,0,-1
EndSplineSet
EndChar

StartChar: dotaccent
Encoding: 729 729 451
Width: 248
GlyphClass: 2
Flags: W
LayerCount: 2
Fore
SplineSet
58 613 m 128,-1,1
 58 636 58 636 73.5 651.5 c 128,-1,2
 89 667 89 667 111 667 c 0,3,4
 134 667 134 667 150 651 c 128,-1,5
 166 635 166 635 166 613 c 128,-1,6
 166 591 166 591 150 575 c 128,-1,7
 134 559 134 559 111 559 c 0,8,9
 89 559 89 559 73.5 574.5 c 128,-1,0
 58 590 58 590 58 613 c 128,-1,1
EndSplineSet
EndChar

StartChar: ring
Encoding: 730 730 452
Width: 339
GlyphClass: 2
Flags: W
LayerCount: 2
Fore
SplineSet
108 659 m 128,-1,1
 108 639 108 639 122.5 624 c 128,-1,2
 137 609 137 609 157 609 c 128,-1,3
 177 609 177 609 192 624 c 128,-1,4
 207 639 207 639 207 659 c 128,-1,5
 207 679 207 679 192 694 c 128,-1,6
 177 709 177 709 157 709 c 128,-1,7
 137 709 137 709 122.5 694 c 128,-1,0
 108 679 108 679 108 659 c 128,-1,1
58 659 m 128,-1,9
 58 700 58 700 87 729.5 c 128,-1,10
 116 759 116 759 157 759 c 128,-1,11
 198 759 198 759 227.5 729.5 c 128,-1,12
 257 700 257 700 257 659 c 128,-1,13
 257 618 257 618 227.5 589 c 128,-1,14
 198 560 198 560 157 560 c 128,-1,15
 116 560 116 560 87 589 c 128,-1,8
 58 618 58 618 58 659 c 128,-1,9
EndSplineSet
EndChar

StartChar: ogonek
Encoding: 731 731 453
Width: 370
GlyphClass: 2
Flags: W
LayerCount: 2
Fore
SplineSet
124 -82 m 0,0,1
 124 -150 124 -150 227 -150 c 0,2,3
 257 -150 257 -150 281 -144 c 1,4,-1
 288 -170 l 1,5,6
 230 -186 230 -186 184 -186 c 0,7,8
 127 -186 127 -186 92.5 -163 c 128,-1,9
 58 -140 58 -140 58 -91 c 0,10,11
 58 5 58 5 190 24 c 1,12,-1
 190 0 l 1,13,14
 149 -13 149 -13 136.5 -29.5 c 128,-1,15
 124 -46 124 -46 124 -82 c 0,0,1
EndSplineSet
EndChar

StartChar: tilde
Encoding: 732 732 454
Width: 482
GlyphClass: 2
Flags: W
LayerCount: 2
Fore
SplineSet
289 634 m 0,0,1
 316 634 316 634 334 654 c 128,-1,2
 352 674 352 674 356 697 c 1,3,-1
 402 697 l 1,4,5
 396 650 396 650 363.5 608.5 c 128,-1,6
 331 567 331 567 289 567 c 0,7,8
 263 567 263 567 242 583 c 128,-1,9
 221 599 221 599 204 615 c 128,-1,10
 187 631 187 631 172 631 c 0,11,12
 145 631 145 631 126.5 610.5 c 128,-1,13
 108 590 108 590 104 567 c 1,14,-1
 59 567 l 1,15,16
 65 614 65 614 97.5 655.5 c 128,-1,17
 130 697 130 697 172 697 c 0,18,19
 198 697 198 697 219 681.5 c 128,-1,20
 240 666 240 666 257 650 c 128,-1,21
 274 634 274 634 289 634 c 0,0,1
EndSplineSet
EndChar

StartChar: gravecomb
Encoding: 768 768 455
Width: 0
GlyphClass: 4
Flags: W
AnchorPoint: "Anchor-0" -312 567 mark 0
LayerCount: 2
Fore
SplineSet
-253 567 m 1,0,-1
 -483 684 l 1,1,-1
 -449 742 l 1,2,-1
 -233 601 l 1,3,-1
 -253 567 l 1,0,-1
EndSplineSet
EndChar

StartChar: acutecomb
Encoding: 769 769 456
Width: 0
GlyphClass: 4
Flags: W
AnchorPoint: "Anchor-0" -312 567 mark 0
LayerCount: 2
Fore
SplineSet
-390 601 m 1,0,-1
 -174 742 l 1,1,-1
 -140 684 l 1,2,-1
 -370 567 l 1,3,-1
 -390 601 l 1,0,-1
EndSplineSet
EndChar

StartChar: uni0302
Encoding: 770 770 457
Width: 0
GlyphClass: 4
Flags: W
AnchorPoint: "Anchor-0" -312 567 mark 0
LayerCount: 2
Fore
SplineSet
-428 567 m 1,0,-1
 -447 601 l 1,1,-1
 -312 725 l 1,2,-1
 -176 601 l 1,3,-1
 -195 567 l 1,4,-1
 -312 644 l 1,5,-1
 -428 567 l 1,0,-1
EndSplineSet
EndChar

StartChar: tildecomb
Encoding: 771 771 458
Width: 0
GlyphClass: 4
Flags: W
AnchorPoint: "Anchor-0" -312 567 mark 0
LayerCount: 2
Fore
SplineSet
-252 634 m 0,0,1
 -225 634 -225 634 -207 654 c 128,-1,2
 -189 674 -189 674 -185 697 c 1,3,-1
 -139 697 l 1,4,5
 -145 650 -145 650 -177.5 608.5 c 128,-1,6
 -210 567 -210 567 -252 567 c 0,7,8
 -278 567 -278 567 -299 583 c 128,-1,9
 -320 599 -320 599 -337 615 c 128,-1,10
 -354 631 -354 631 -369 631 c 0,11,12
 -396 631 -396 631 -414.5 610.5 c 128,-1,13
 -433 590 -433 590 -437 567 c 1,14,-1
 -482 567 l 1,15,16
 -476 614 -476 614 -443.5 655.5 c 128,-1,17
 -411 697 -411 697 -369 697 c 0,18,19
 -343 697 -343 697 -322 681.5 c 128,-1,20
 -301 666 -301 666 -284 650 c 128,-1,21
 -267 634 -267 634 -252 634 c 0,0,1
EndSplineSet
EndChar

StartChar: uni0304
Encoding: 772 772 459
Width: 0
GlyphClass: 4
Flags: W
AnchorPoint: "Anchor-0" -312 567 mark 0
LayerCount: 2
Fore
SplineSet
-453 631 m 1,0,-1
 -186 631 l 1,1,-1
 -186 586 l 1,2,-1
 -453 586 l 1,3,-1
 -453 631 l 1,0,-1
EndSplineSet
EndChar

StartChar: uni0306
Encoding: 774 774 460
Width: 0
GlyphClass: 4
Flags: W
AnchorPoint: "Anchor-0" -312 567 mark 0
LayerCount: 2
Fore
SplineSet
-217 698 m 1,0,-1
 -176 698 l 1,1,2
 -177 692 -177 692 -180 683 c 128,-1,3
 -183 674 -183 674 -193.5 650 c 128,-1,4
 -204 626 -204 626 -218 608 c 128,-1,5
 -232 590 -232 590 -257 575 c 128,-1,6
 -282 560 -282 560 -312 560 c 128,-1,7
 -342 560 -342 560 -366.5 574 c 128,-1,8
 -391 588 -391 588 -405.5 608.5 c 128,-1,9
 -420 629 -420 629 -430 649.5 c 128,-1,10
 -440 670 -440 670 -444 684 c 2,11,-1
 -447 698 l 1,12,-1
 -406 698 l 1,13,14
 -384 653 -384 653 -364 638 c 0,15,16
 -342 621 -342 621 -312 621 c 0,17,18
 -291 621 -291 621 -275 628 c 128,-1,19
 -259 635 -259 635 -247.5 648.5 c 128,-1,20
 -236 662 -236 662 -231 670 c 128,-1,21
 -226 678 -226 678 -219 694 c 0,22,23
 -218 697 -218 697 -217 698 c 1,0,-1
EndSplineSet
EndChar

StartChar: uni0307
Encoding: 775 775 461
Width: 0
GlyphClass: 4
Flags: W
AnchorPoint: "Anchor-0" -312 567 mark 0
LayerCount: 2
Fore
SplineSet
-365 613 m 128,-1,1
 -365 636 -365 636 -349.5 651.5 c 128,-1,2
 -334 667 -334 667 -312 667 c 0,3,4
 -289 667 -289 667 -273 651 c 128,-1,5
 -257 635 -257 635 -257 613 c 128,-1,6
 -257 591 -257 591 -273 575 c 128,-1,7
 -289 559 -289 559 -312 559 c 0,8,9
 -334 559 -334 559 -349.5 574.5 c 128,-1,0
 -365 590 -365 590 -365 613 c 128,-1,1
EndSplineSet
EndChar

StartChar: uni0308
Encoding: 776 776 462
Width: 0
GlyphClass: 4
Flags: W
AnchorPoint: "Anchor-0" -312 567 mark 0
LayerCount: 2
Fore
SplineSet
-268 613 m 128,-1,1
 -268 636 -268 636 -252 651.5 c 128,-1,2
 -236 667 -236 667 -214 667 c 0,3,4
 -191 667 -191 667 -175 651 c 128,-1,5
 -159 635 -159 635 -159 613 c 128,-1,6
 -159 591 -159 591 -175 575 c 128,-1,7
 -191 559 -191 559 -214 559 c 0,8,9
 -236 559 -236 559 -252 574.5 c 128,-1,0
 -268 590 -268 590 -268 613 c 128,-1,1
-463 613 m 128,-1,11
 -463 636 -463 636 -447.5 651.5 c 128,-1,12
 -432 667 -432 667 -409 667 c 128,-1,13
 -386 667 -386 667 -370 651 c 128,-1,14
 -354 635 -354 635 -354 613 c 128,-1,15
 -354 591 -354 591 -370 575 c 128,-1,16
 -386 559 -386 559 -409 559 c 128,-1,17
 -432 559 -432 559 -447.5 574.5 c 128,-1,10
 -463 590 -463 590 -463 613 c 128,-1,11
EndSplineSet
EndChar

StartChar: uni030A
Encoding: 778 778 463
Width: 0
GlyphClass: 4
Flags: W
AnchorPoint: "Anchor-0" -312 567 mark 0
LayerCount: 2
Fore
SplineSet
-361 659 m 128,-1,1
 -361 639 -361 639 -346.5 624 c 128,-1,2
 -332 609 -332 609 -312 609 c 128,-1,3
 -292 609 -292 609 -277 624 c 128,-1,4
 -262 639 -262 639 -262 659 c 128,-1,5
 -262 679 -262 679 -277 694 c 128,-1,6
 -292 709 -292 709 -312 709 c 128,-1,7
 -332 709 -332 709 -346.5 694 c 128,-1,0
 -361 679 -361 679 -361 659 c 128,-1,1
-411 659 m 128,-1,9
 -411 700 -411 700 -382 729.5 c 128,-1,10
 -353 759 -353 759 -312 759 c 128,-1,11
 -271 759 -271 759 -241.5 729.5 c 128,-1,12
 -212 700 -212 700 -212 659 c 128,-1,13
 -212 618 -212 618 -241.5 589 c 128,-1,14
 -271 560 -271 560 -312 560 c 128,-1,15
 -353 560 -353 560 -382 589 c 128,-1,8
 -411 618 -411 618 -411 659 c 128,-1,9
EndSplineSet
EndChar

StartChar: uni030B
Encoding: 779 779 464
Width: 0
GlyphClass: 4
Flags: W
AnchorPoint: "Anchor-0" -312 567 mark 0
LayerCount: 2
Fore
SplineSet
-258 587 m 1,0,-1
 -86 779 l 1,1,-1
 -38 731 l 1,2,-1
 -230 560 l 1,3,-1
 -258 587 l 1,0,-1
-430 587 m 1,4,-1
 -258 779 l 1,5,-1
 -210 731 l 1,6,-1
 -402 560 l 1,7,-1
 -430 587 l 1,4,-1
EndSplineSet
EndChar

StartChar: uni030C
Encoding: 780 780 465
Width: 0
GlyphClass: 4
Flags: W
AnchorPoint: "Anchor-0" -312 567 mark 0
LayerCount: 2
Fore
SplineSet
-195 725 m 1,0,-1
 -176 691 l 1,1,-1
 -312 567 l 1,2,-1
 -447 691 l 1,3,-1
 -428 725 l 1,4,-1
 -312 648 l 1,5,-1
 -195 725 l 1,0,-1
EndSplineSet
EndChar

StartChar: uni030D
Encoding: 781 781 466
Width: 0
GlyphClass: 4
Flags: W
AnchorPoint: "Anchor-0" -312 567 mark 0
LayerCount: 2
Fore
SplineSet
-292 764 m 1,0,-1
 -292 567 l 1,1,-1
 -332 567 l 1,2,-1
 -332 764 l 1,3,-1
 -292 764 l 1,0,-1
EndSplineSet
EndChar

StartChar: uni0311
Encoding: 785 785 467
Width: 0
GlyphClass: 4
Flags: W
AnchorPoint: "Anchor-0" -312 567 mark 0
LayerCount: 2
Fore
SplineSet
-406 567 m 1,0,-1
 -447 567 l 1,1,2
 -446 573 -446 573 -443 582 c 128,-1,3
 -440 591 -440 591 -429.5 615 c 128,-1,4
 -419 639 -419 639 -405 657 c 128,-1,5
 -391 675 -391 675 -366 690 c 128,-1,6
 -341 705 -341 705 -311 705 c 128,-1,7
 -281 705 -281 705 -256.5 691 c 128,-1,8
 -232 677 -232 677 -217.5 656.5 c 128,-1,9
 -203 636 -203 636 -193 615.5 c 128,-1,10
 -183 595 -183 595 -180 581 c 2,11,-1
 -176 567 l 1,12,-1
 -217 567 l 1,13,14
 -239 612 -239 612 -259 627 c 0,15,16
 -281 644 -281 644 -311 644 c 0,17,18
 -332 644 -332 644 -348 637 c 128,-1,19
 -364 630 -364 630 -375.5 616.5 c 128,-1,20
 -387 603 -387 603 -392 595 c 128,-1,21
 -397 587 -397 587 -404 571 c 0,22,23
 -405 568 -405 568 -406 567 c 1,0,-1
EndSplineSet
EndChar

StartChar: uni0312
Encoding: 786 786 468
Width: 0
GlyphClass: 4
Flags: W
AnchorPoint: "Anchor-0" -312 567 mark 0
LayerCount: 2
Fore
SplineSet
-258 613 m 0,0,1
 -258 591 -258 591 -273.5 575.5 c 128,-1,2
 -289 560 -289 560 -312 560 c 128,-1,3
 -335 560 -335 560 -350.5 575.5 c 128,-1,4
 -366 591 -366 591 -366 613 c 0,5,6
 -366 647 -366 647 -356.5 677 c 128,-1,7
 -347 707 -347 707 -333.5 725 c 128,-1,8
 -320 743 -320 743 -307 756.5 c 128,-1,9
 -294 770 -294 770 -284 776 c 2,10,-1
 -275 781 l 1,11,-1
 -259 771 l 1,12,13
 -297 733 -297 733 -312 668 c 1,14,15
 -290 668 -290 668 -274 652 c 128,-1,16
 -258 636 -258 636 -258 613 c 0,0,1
EndSplineSet
EndChar

StartChar: uni0313
Encoding: 787 787 469
Width: 0
GlyphClass: 4
Flags: W
AnchorPoint: "Anchor-0" -312 567 mark 0
LayerCount: 2
Fore
SplineSet
-366 728 m 0,0,1
 -366 750 -366 750 -350.5 765.5 c 128,-1,2
 -335 781 -335 781 -312 781 c 128,-1,3
 -289 781 -289 781 -273.5 765.5 c 128,-1,4
 -258 750 -258 750 -258 728 c 0,5,6
 -258 694 -258 694 -267.5 664 c 128,-1,7
 -277 634 -277 634 -290.5 616 c 128,-1,8
 -304 598 -304 598 -317 584.5 c 128,-1,9
 -330 571 -330 571 -340 566 c 1,10,-1
 -349 560 l 1,11,-1
 -365 570 l 1,12,13
 -327 608 -327 608 -312 673 c 1,14,15
 -334 673 -334 673 -350 689 c 128,-1,16
 -366 705 -366 705 -366 728 c 0,0,1
EndSplineSet
EndChar

StartChar: uni0314
Encoding: 788 788 470
Width: 0
GlyphClass: 4
Flags: W
AnchorPoint: "Anchor-0" -312 567 mark 0
LayerCount: 2
Fore
SplineSet
-258 728 m 0,0,1
 -258 705 -258 705 -274 689 c 128,-1,2
 -290 673 -290 673 -312 673 c 1,3,4
 -305 644 -305 644 -292 618.5 c 128,-1,5
 -279 593 -279 593 -269 582 c 2,6,-1
 -259 570 l 1,7,-1
 -275 560 l 1,8,9
 -279 562 -279 562 -285 566 c 128,-1,10
 -291 570 -291 570 -306.5 584.5 c 128,-1,11
 -322 599 -322 599 -334 616.5 c 128,-1,12
 -346 634 -346 634 -356 664 c 128,-1,13
 -366 694 -366 694 -366 728 c 0,14,15
 -366 750 -366 750 -350.5 765.5 c 128,-1,16
 -335 781 -335 781 -312 781 c 128,-1,17
 -289 781 -289 781 -273.5 765.5 c 128,-1,18
 -258 750 -258 750 -258 728 c 0,0,1
EndSplineSet
EndChar

StartChar: uni0327
Encoding: 807 807 475
Width: 0
GlyphClass: 2
Flags: W
LayerCount: 2
Fore
SplineSet
-344 0 m 1,0,-1
 -293 0 l 1,1,-1
 -326 -68 l 1,2,3
 -272 -68 -272 -68 -245.5 -86 c 128,-1,4
 -219 -104 -219 -104 -219 -125 c 0,5,6
 -219 -200 -219 -200 -424 -200 c 1,7,-1
 -424 -173 l 1,8,9
 -374 -173 -374 -173 -329 -161.5 c 128,-1,10
 -284 -150 -284 -150 -284 -131 c 0,11,12
 -284 -121 -284 -121 -291 -115.5 c 128,-1,13
 -298 -110 -298 -110 -322 -106.5 c 128,-1,14
 -346 -103 -346 -103 -392 -103 c 1,15,-1
 -344 0 l 1,0,-1
EndSplineSet
EndChar

StartChar: uni0328
Encoding: 808 808 476
Width: 0
GlyphClass: 2
Flags: W
LayerCount: 2
Fore
SplineSet
-359 -82 m 0,0,1
 -359 -150 -359 -150 -256 -150 c 0,2,3
 -226 -150 -226 -150 -202 -144 c 1,4,-1
 -195 -170 l 1,5,6
 -253 -186 -253 -186 -299 -186 c 0,7,8
 -356 -186 -356 -186 -390.5 -163 c 128,-1,9
 -425 -140 -425 -140 -425 -91 c 0,10,11
 -425 5 -425 5 -293 24 c 1,12,-1
 -293 0 l 1,13,14
 -334 -13 -334 -13 -346.5 -29.5 c 128,-1,15
 -359 -46 -359 -46 -359 -82 c 0,0,1
EndSplineSet
EndChar

StartChar: uni0332
Encoding: 818 818 481
Width: 0
GlyphClass: 2
Flags: W
LayerCount: 2
Fore
SplineSet
-503 -94 m 1,0,-1
 -136 -94 l 1,1,-1
 -136 -139 l 1,2,-1
 -503 -139 l 1,3,-1
 -503 -94 l 1,0,-1
EndSplineSet
EndChar

StartChar: uni0335
Encoding: 821 821 482
Width: 0
GlyphClass: 2
Flags: W
LayerCount: 2
Fore
SplineSet
-367 293 m 1,0,-1
 -105 293 l 1,1,-1
 -105 245 l 1,2,-1
 -367 245 l 1,3,-1
 -367 293 l 1,0,-1
EndSplineSet
EndChar

StartChar: uni0336
Encoding: 822 822 483
Width: 0
GlyphClass: 2
Flags: W
LayerCount: 2
Fore
SplineSet
-497 293 m 1,0,-1
 0 293 l 1,1,-1
 0 245 l 1,2,-1
 -497 245 l 1,3,-1
 -497 293 l 1,0,-1
EndSplineSet
EndChar

StartChar: uni0337
Encoding: 823 823 484
Width: 0
GlyphClass: 2
Flags: W
LayerCount: 2
Fore
SplineSet
-340 332 m 1,0,-1
 -102 499 l 1,1,-1
 -79 467 l 1,2,-1
 -317 300 l 1,3,-1
 -340 332 l 1,0,-1
EndSplineSet
EndChar

StartChar: uni0338
Encoding: 824 824 485
Width: 0
GlyphClass: 2
Flags: W
LayerCount: 2
Fore
SplineSet
13 682 m 1,0,-1
 -548 0 l 1,1,-1
 -610 0 l 1,2,-1
 -50 682 l 1,3,-1
 13 682 l 1,0,-1
EndSplineSet
EndChar

StartChar: uni0345
Encoding: 837 837 487
Width: 0
GlyphClass: 2
Flags: W
LayerCount: 2
Fore
SplineSet
-205 -202 m 1,0,1
 -255 -202 -255 -202 -289 -173.5 c 128,-1,2
 -323 -145 -323 -145 -323 -91 c 2,3,-1
 -323 -42 l 1,4,-1
 -272 -42 l 1,5,-1
 -272 -91 l 2,6,7
 -272 -151 -272 -151 -205 -151 c 1,8,-1
 -205 -202 l 1,0,1
EndSplineSet
EndChar

StartChar: uni035E
Encoding: 862 862 488
Width: 0
GlyphClass: 4
Flags: W
AnchorPoint: "Anchor-0" -312 567 mark 0
LayerCount: 2
Fore
SplineSet
-503 631 m 1,0,-1
 272 631 l 1,1,-1
 272 586 l 1,2,-1
 -503 586 l 1,3,-1
 -503 631 l 1,0,-1
EndSplineSet
EndChar

StartChar: uni035F
Encoding: 863 863 489
Width: 0
GlyphClass: 2
Flags: W
LayerCount: 2
Fore
SplineSet
-503 -94 m 1,0,-1
 272 -94 l 1,1,-1
 272 -139 l 1,2,-1
 -503 -139 l 1,3,-1
 -503 -94 l 1,0,-1
EndSplineSet
EndChar

StartChar: uni037A
Encoding: 890 890 490
Width: 228
GlyphClass: 2
Flags: W
LayerCount: 2
Fore
SplineSet
173 -202 m 1,0,1
 123 -202 123 -202 89 -173.5 c 128,-1,2
 55 -145 55 -145 55 -91 c 2,3,-1
 55 -42 l 1,4,-1
 106 -42 l 1,5,-1
 106 -91 l 2,6,7
 106 -151 106 -151 173 -151 c 1,8,-1
 173 -202 l 1,0,1
EndSplineSet
EndChar

StartChar: uni037E
Encoding: 894 894 491
Width: 220
GlyphClass: 2
Flags: W
LayerCount: 2
Fore
SplineSet
56 418 m 0,0,1
 56 440 56 440 72 456 c 128,-1,2
 88 472 88 472 110 472 c 128,-1,3
 132 472 132 472 148 456 c 128,-1,4
 164 440 164 440 164 418 c 0,5,6
 164 395 164 395 148 379 c 128,-1,7
 132 363 132 363 110 363 c 128,-1,8
 88 363 88 363 72 379 c 128,-1,9
 56 395 56 395 56 418 c 0,0,1
56 47 m 128,-1,11
 56 70 56 70 72 85.5 c 128,-1,12
 88 101 88 101 110 101 c 128,-1,13
 132 101 132 101 148 85.5 c 128,-1,14
 164 70 164 70 164 47 c 0,15,16
 164 13 164 13 154.5 -17 c 128,-1,17
 145 -47 145 -47 132 -65 c 128,-1,18
 119 -83 119 -83 106 -96.5 c 128,-1,19
 93 -110 93 -110 84 -116 c 1,20,-1
 74 -121 l 1,21,-1
 57 -111 l 1,22,23
 95 -73 95 -73 110 -8 c 1,24,25
 88 -8 88 -8 72 8 c 128,-1,10
 56 24 56 24 56 47 c 128,-1,11
EndSplineSet
EndChar

StartChar: tonos
Encoding: 900 900 492
Width: 285
GlyphClass: 2
Flags: W
LayerCount: 2
Fore
SplineSet
70 619 m 1,0,-1
 159 808 l 1,1,-1
 220 779 l 1,2,-1
 105 603 l 1,3,-1
 70 619 l 1,0,-1
EndSplineSet
EndChar

StartChar: dieresistonos
Encoding: 901 901 493
Width: 401
GlyphClass: 2
Flags: W
LayerCount: 2
Fore
SplineSet
175 686 m 1,0,-1
 264 875 l 1,1,-1
 325 846 l 1,2,-1
 210 670 l 1,3,-1
 175 686 l 1,0,-1
248 613 m 128,-1,5
 248 636 248 636 264 651.5 c 128,-1,6
 280 667 280 667 302 667 c 0,7,8
 325 667 325 667 341 651 c 128,-1,9
 357 635 357 635 357 613 c 128,-1,10
 357 591 357 591 341 575 c 128,-1,11
 325 559 325 559 302 559 c 0,12,13
 280 559 280 559 264 574.5 c 128,-1,4
 248 590 248 590 248 613 c 128,-1,5
53 613 m 128,-1,15
 53 636 53 636 68.5 651.5 c 128,-1,16
 84 667 84 667 107 667 c 128,-1,17
 130 667 130 667 146 651 c 128,-1,18
 162 635 162 635 162 613 c 128,-1,19
 162 591 162 591 146 575 c 128,-1,20
 130 559 130 559 107 559 c 128,-1,21
 84 559 84 559 68.5 574.5 c 128,-1,14
 53 590 53 590 53 613 c 128,-1,15
EndSplineSet
EndChar

StartChar: Alphatonos
Encoding: 902 902 494
Width: 595
GlyphClass: 2
Flags: W
LayerCount: 2
Fore
SplineSet
55 616 m 1,0,-1
 144 805 l 1,1,-1
 205 776 l 1,2,-1
 90 600 l 1,3,-1
 55 616 l 1,0,-1
347 680 m 1,4,-1
 595 0 l 1,5,-1
 515 0 l 1,6,-1
 445 191 l 1,7,-1
 169 191 l 1,8,-1
 100 0 l 1,9,-1
 20 0 l 1,10,-1
 267 680 l 1,11,-1
 267 682 l 1,12,-1
 348 682 l 1,13,-1
 347 680 l 1,4,-1
307 570 m 1,14,-1
 192 253 l 1,15,-1
 423 253 l 1,16,-1
 307 570 l 1,14,-1
EndSplineSet
EndChar

StartChar: anoteleia
Encoding: 903 903 495
Width: 220
GlyphClass: 2
Flags: W
LayerCount: 2
Fore
SplineSet
56 254 m 0,0,1
 56 276 56 276 72 292 c 128,-1,2
 88 308 88 308 110 308 c 128,-1,3
 132 308 132 308 148 292 c 128,-1,4
 164 276 164 276 164 254 c 0,5,6
 164 231 164 231 148 215 c 128,-1,7
 132 199 132 199 110 199 c 128,-1,8
 88 199 88 199 72 215 c 128,-1,9
 56 231 56 231 56 254 c 0,0,1
EndSplineSet
EndChar

StartChar: Epsilontonos
Encoding: 904 904 496
Width: 597
GlyphClass: 2
Flags: W
LayerCount: 2
Fore
SplineSet
-11 616 m 1,0,-1
 78 805 l 1,1,-1
 139 776 l 1,2,-1
 24 600 l 1,3,-1
 -11 616 l 1,0,-1
173 0 m 1,4,-1
 173 682 l 1,5,-1
 555 682 l 1,6,-1
 555 619 l 1,7,-1
 248 619 l 1,8,-1
 248 401 l 1,9,-1
 488 401 l 1,10,-1
 488 340 l 1,11,-1
 248 340 l 1,12,-1
 248 62 l 1,13,-1
 558 62 l 1,14,-1
 558 0 l 1,15,-1
 173 0 l 1,4,-1
EndSplineSet
EndChar

StartChar: Etatonos
Encoding: 905 905 497
Width: 690
GlyphClass: 2
Flags: W
LayerCount: 2
Fore
SplineSet
161 0 m 1,0,-1
 161 682 l 1,1,-1
 236 682 l 1,2,-1
 236 387 l 1,3,-1
 536 387 l 1,4,-1
 536 682 l 1,5,-1
 611 682 l 1,6,-1
 611 0 l 1,7,-1
 536 0 l 1,8,-1
 536 325 l 1,9,-1
 236 325 l 1,10,-1
 236 0 l 1,11,-1
 161 0 l 1,0,-1
-9 616 m 1,12,-1
 80 805 l 1,13,-1
 141 776 l 1,14,-1
 26 600 l 1,15,-1
 -9 616 l 1,12,-1
EndSplineSet
EndChar

StartChar: Iotatonos
Encoding: 906 906 498
Width: 382
GlyphClass: 2
Flags: W
LayerCount: 2
Fore
SplineSet
293 616 m 1,0,-1
 293 66 l 1,1,-1
 329 66 l 1,2,-1
 329 0 l 1,3,-1
 182 0 l 1,4,-1
 182 66 l 1,5,-1
 218 66 l 1,6,-1
 218 616 l 1,7,-1
 182 616 l 1,8,-1
 182 682 l 1,9,-1
 329 682 l 1,10,-1
 329 616 l 1,11,-1
 293 616 l 1,0,-1
-10 616 m 1,12,-1
 79 805 l 1,13,-1
 140 776 l 1,14,-1
 25 600 l 1,15,-1
 -10 616 l 1,12,-1
EndSplineSet
EndChar

StartChar: Omicrontonos
Encoding: 908 908 499
Width: 704
GlyphClass: 2
Flags: W
LayerCount: 2
Fore
SplineSet
12 616 m 1,0,-1
 101 805 l 1,1,-1
 162 776 l 1,2,-1
 47 600 l 1,3,-1
 12 616 l 1,0,-1
155 340 m 0,4,5
 155 226 155 226 217.5 139.5 c 128,-1,6
 280 53 280 53 369 53 c 128,-1,7
 458 53 458 53 520.5 139.5 c 128,-1,8
 583 226 583 226 583 340 c 0,9,10
 583 455 583 455 520 542 c 128,-1,11
 457 629 457 629 369 629 c 128,-1,12
 281 629 281 629 218 542 c 128,-1,13
 155 455 155 455 155 340 c 0,4,5
76 340 m 128,-1,15
 76 483 76 483 164.5 590 c 128,-1,16
 253 697 253 697 369 697 c 128,-1,17
 485 697 485 697 573.5 590 c 128,-1,18
 662 483 662 483 662 340 c 128,-1,19
 662 197 662 197 573.5 90.5 c 128,-1,20
 485 -16 485 -16 369 -16 c 128,-1,21
 253 -16 253 -16 164.5 90.5 c 128,-1,14
 76 197 76 197 76 340 c 128,-1,15
EndSplineSet
EndChar

StartChar: Upsilontonos
Encoding: 910 910 500
Width: 659
GlyphClass: 2
Flags: W
LayerCount: 2
Fore
SplineSet
423 432 m 1,0,-1
 573 682 l 1,1,-1
 660 682 l 1,2,-1
 459 347 l 1,3,-1
 459 0 l 1,4,-1
 385 0 l 1,5,-1
 385 350 l 1,6,-1
 186 682 l 1,7,-1
 273 682 l 1,8,-1
 423 432 l 1,0,-1
20 616 m 1,9,-1
 109 805 l 1,10,-1
 170 776 l 1,11,-1
 55 600 l 1,12,-1
 20 616 l 1,9,-1
EndSplineSet
EndChar

StartChar: Omegatonos
Encoding: 911 911 501
Width: 735
GlyphClass: 2
Flags: W
LayerCount: 2
Fore
SplineSet
8 616 m 1,0,-1
 97 805 l 1,1,-1
 158 776 l 1,2,-1
 43 600 l 1,3,-1
 8 616 l 1,0,-1
583 55 m 1,4,-1
 653 55 l 1,5,-1
 653 0 l 1,6,-1
 495 0 l 1,7,8
 495 52 495 52 506.5 90.5 c 128,-1,9
 518 129 518 129 535 154.5 c 128,-1,10
 552 180 552 180 569 206.5 c 128,-1,11
 586 233 586 233 597.5 275 c 128,-1,12
 609 317 609 317 609 374 c 0,13,14
 609 485 609 485 547.5 557 c 128,-1,15
 486 629 486 629 395 629 c 128,-1,16
 304 629 304 629 242.5 557 c 128,-1,17
 181 485 181 485 181 374 c 0,18,19
 181 317 181 317 192.5 275 c 128,-1,20
 204 233 204 233 221 206.5 c 128,-1,21
 238 180 238 180 255 154.5 c 128,-1,22
 272 129 272 129 283.5 90.5 c 128,-1,23
 295 52 295 52 295 0 c 1,24,-1
 137 0 l 1,25,-1
 137 55 l 1,26,-1
 207 55 l 1,27,28
 202 89 202 89 175 137 c 128,-1,29
 148 185 148 185 125 244 c 128,-1,30
 102 303 102 303 102 374 c 0,31,32
 102 514 102 514 189.5 606 c 128,-1,33
 277 698 277 698 395 698 c 128,-1,34
 513 698 513 698 600.5 606 c 128,-1,35
 688 514 688 514 688 374 c 0,36,37
 688 303 688 303 665 244 c 128,-1,38
 642 185 642 185 615 137 c 128,-1,39
 588 89 588 89 583 55 c 1,4,-1
EndSplineSet
EndChar

StartChar: iotadieresistonos
Encoding: 912 912 502
Width: 226
GlyphClass: 2
Flags: W
LayerCount: 2
Fore
SplineSet
62 686 m 1,0,-1
 151 875 l 1,1,-1
 212 846 l 1,2,-1
 97 670 l 1,3,-1
 62 686 l 1,0,-1
135 613 m 128,-1,5
 135 636 135 636 150.5 651.5 c 128,-1,6
 166 667 166 667 189 667 c 128,-1,7
 212 667 212 667 228 651 c 128,-1,8
 244 635 244 635 244 613 c 128,-1,9
 244 591 244 591 228 575 c 128,-1,10
 212 559 212 559 189 559 c 128,-1,11
 166 559 166 559 150.5 574.5 c 128,-1,4
 135 590 135 590 135 613 c 128,-1,5
-60 613 m 128,-1,13
 -60 636 -60 636 -44 651.5 c 128,-1,14
 -28 667 -28 667 -6 667 c 0,15,16
 17 667 17 667 33 651 c 128,-1,17
 49 635 49 635 49 613 c 128,-1,18
 49 591 49 591 33 575 c 128,-1,19
 17 559 17 559 -6 559 c 0,20,21
 -28 559 -28 559 -44 574.5 c 128,-1,12
 -60 590 -60 590 -60 613 c 128,-1,13
217 0 m 1,22,23
 150 0 150 0 104.5 38 c 128,-1,24
 59 76 59 76 59 148 c 2,25,-1
 59 468 l 1,26,-1
 127 468 l 1,27,-1
 127 148 l 2,28,29
 127 68 127 68 217 68 c 1,30,-1
 217 0 l 1,22,23
EndSplineSet
EndChar

StartChar: Gamma
Encoding: 915 915 505
Width: 466
GlyphClass: 2
Flags: W
LayerCount: 2
Fore
SplineSet
154 619 m 1,0,-1
 154 0 l 1,1,-1
 79 0 l 1,2,-1
 79 682 l 1,3,-1
 461 682 l 1,4,-1
 461 619 l 1,5,-1
 154 619 l 1,0,-1
EndSplineSet
EndChar

StartChar: Delta
Encoding: 916 916 506
Width: 576
GlyphClass: 2
Flags: W
LayerCount: 2
Fore
SplineSet
328 680 m 1,0,-1
 576 0 l 1,1,-1
 1 0 l 1,2,-1
 248 680 l 1,3,-1
 248 682 l 1,4,-1
 329 682 l 1,5,-1
 328 680 l 1,0,-1
288 570 m 1,6,-1
 103 62 l 1,7,-1
 473 62 l 1,8,-1
 288 570 l 1,6,-1
EndSplineSet
EndChar

StartChar: Theta
Encoding: 920 920 510
Width: 670
GlyphClass: 2
Flags: W
LayerCount: 2
Fore
SplineSet
121 340 m 0,0,1
 121 226 121 226 183.5 139.5 c 128,-1,2
 246 53 246 53 335 53 c 128,-1,3
 424 53 424 53 486.5 139.5 c 128,-1,4
 549 226 549 226 549 340 c 0,5,6
 549 455 549 455 486 542 c 128,-1,7
 423 629 423 629 335 629 c 128,-1,8
 247 629 247 629 184 542 c 128,-1,9
 121 455 121 455 121 340 c 0,0,1
42 340 m 128,-1,11
 42 483 42 483 130.5 590 c 128,-1,12
 219 697 219 697 335 697 c 128,-1,13
 451 697 451 697 539.5 590 c 128,-1,14
 628 483 628 483 628 340 c 128,-1,15
 628 197 628 197 539.5 90.5 c 128,-1,16
 451 -16 451 -16 335 -16 c 128,-1,17
 219 -16 219 -16 130.5 90.5 c 128,-1,10
 42 197 42 197 42 340 c 128,-1,11
186 368 m 1,18,-1
 482 368 l 1,19,-1
 482 313 l 1,20,-1
 186 313 l 1,21,-1
 186 368 l 1,18,-1
EndSplineSet
EndChar

StartChar: Lambda
Encoding: 923 923 513
Width: 576
GlyphClass: 2
Flags: W
LayerCount: 2
Fore
SplineSet
288 570 m 1,0,-1
 81 0 l 1,1,-1
 1 0 l 1,2,-1
 248 680 l 1,3,-1
 248 682 l 1,4,-1
 329 682 l 1,5,-1
 328 680 l 1,6,-1
 576 0 l 1,7,-1
 496 0 l 1,8,-1
 288 570 l 1,0,-1
EndSplineSet
EndChar

StartChar: Xi
Encoding: 926 926 516
Width: 532
GlyphClass: 2
Flags: W
LayerCount: 2
Fore
SplineSet
110 396 m 1,0,-1
 423 396 l 1,1,-1
 423 334 l 1,2,-1
 110 334 l 1,3,-1
 110 396 l 1,0,-1
40 682 m 1,4,-1
 493 682 l 1,5,-1
 493 620 l 1,6,-1
 40 620 l 1,7,-1
 40 682 l 1,4,-1
40 62 m 1,8,-1
 493 62 l 1,9,-1
 493 0 l 1,10,-1
 40 0 l 1,11,-1
 40 62 l 1,8,-1
EndSplineSet
EndChar

StartChar: Pi
Encoding: 928 928 518
Width: 608
GlyphClass: 2
Flags: W
LayerCount: 2
Fore
SplineSet
79 0 m 1,0,-1
 79 682 l 1,1,-1
 154 682 l 1,2,-1
 454 682 l 1,3,-1
 529 682 l 1,4,-1
 529 0 l 1,5,-1
 454 0 l 1,6,-1
 454 620 l 1,7,-1
 154 620 l 1,8,-1
 154 0 l 1,9,-1
 79 0 l 1,0,-1
EndSplineSet
EndChar

